<svg version="1.1" id="Layer_1" xmlns="http://www.w3.org/2000/svg" x="0" y="0" viewBox="0 0 480.2 484.4" style="enable-background:new 0 0 480.2 484.4" xml:space="preserve"><style>.st2{fill:#fff;stroke:#000;stroke-width:10;stroke-miterlimit:10}.st3{fill:#474c50}.st4{fill:#5e6367}.st7{fill:#b0b0af}</style><path d="M354.8 424.5H78.3c-40.3 0-72.9-32.6-72.9-72.9v-268c0-40.3 32.7-72.9 72.9-72.9h276.5c40.3 0 72.9 32.7 72.9 72.9v268c0 40.2-32.7 72.9-72.9 72.9z" style="opacity:.2;fill:#2b2b2b;stroke:#000;stroke-miterlimit:10;enable-background:new"/><linearGradient id="SVGID_1_" gradientUnits="userSpaceOnUse" x1="136.37" y1="-109.453" x2="322.985" y2="-109.453" gradientTransform="matrix(1 0 0 -1 0 128)"><stop offset="0" style="stop-color:#9a1f24"/><stop offset=".325" style="stop-color:#c92222"/><stop offset="1" style="stop-color:#c42b27"/></linearGradient><path class="st2" d="M182.9 199.8v-13s-10.7 0-21.5-4.3c-12.6-5-12.1-13.7-12.1-14.2-.1-.5-1.2-9.3 8.6-13.7 8.5-3.8 18.9-3.1 18.9-3.1s-3.2-1.2-8.1-4.9c-2.2-1.6-5.5-5.2-5.8-5.5h-.1s-16.3-15.5-9.3-40.1c6.9-24.6 41.1-40.4 73.6-36.9 30.4 3.3 43.8 24.4 45.3 27 .1.2.2.3.2.3 3.6 5.6 10.3 20.3 0 40.5-7.1 13.9-20.3 20.1-20.3 20.1s11.8-.9 20.2 2.4c6.9 2.8 9.1 8.8 9.4 9.5 0 0 .5.8.4 4.6-.1 4.5-2.6 9.7-9.7 13-9.3 4.2-19.1 5-19.1 5l-.3 11.2v.1c0 .6.5 6.9 10.1 25 9.2 17.3 16.1 26.5 17.4 28 2.2-.3 4.3-.3 6.5.2 3.4.9 4.8 2.9 4.8 2.9 2.7 2.3 4.2 7.5 4.2 7.5 1 2.9.5 4.6.5 4.6s13 9.2 18.3 13.5c5.2 4.2 11.6 11.9 12 12.4s5.2 5.8 5.7 13.8c.4 6.4-2.7 12.3-2.7 12.3l.1.1 12.9 10.8s.3.4.4.6c1.5 2.2 2.1 4.7 1.9 7.2-.3 3.4-1.6 11.1-18.1 20.1-16.5 8.9-56.4 17-109.1 17s-81-6.8-102-14.3c-20.3-7.3-25.5-13.9-26-20.1-.4-5 2.9-9.2 2.9-9.2s1.8-2.6 6.7-6.3c3.6-2.8 8.3-5.2 8.8-5.5-.6-.1-4-4.1-4.1-10.5-.2-6.9 3.3-12.3 3.3-12.3s4.5-9.1 13.8-16.6c5.5-4.5 15-10.6 15.6-11-.3-.1-2-1.2-2.1-4.7 0-2.2 1.4-4.4 1.4-4.4s3.3-4.2 7.8-5.3c0 0 3.6-.9 6-.9h1.7s20.8-25.1 24.5-32.1 6.5-20.8 6.5-20.8z"/><path class="st3" d="m270.1 88.5-107.8 52.3s3.5 3.8 5.8 5.6c4.9 3.6 8.1 4.9 8.1 4.9l-2 5.4-25.5 11.4s-.9 9 12.1 14.2c10.8 4.3 21.5 4.3 21.5 4.3v13s16.3 16.1 38 16.1 32.1-18.3 32.1-18.3l.3-11.2s9.8-.8 19.1-5c7.1-3.2 9.6-8.5 9.7-13 .1-3.8-.4-4.6-.4-4.6l-29.6-11.9s13.2-6.2 20.3-20.1c13.5-26.2-1.7-43.1-1.7-43.1zM209.9 244.9l-73.7 13.5s-1.9 2.1-1.9 4.3c.1 3.8 2.2 4.7 2.2 4.7L107.1 295s-3.4 5.4-3.3 12.3c.2 6.6 3.7 10.6 4.2 10.5l-9.6 9.8-6.1 2s-3.3 4.1-2.9 9.2c.5 6.2 5.7 12.8 26.1 20.1 21 7.5 49.3 14.3 102 14.3s92.6-8 109.1-17c16.5-8.9 17.8-16.7 18.1-20.1.2-2.5-.4-5-1.9-7.2-.1-.2-.5-.6-.5-.6l-13-10.9s3.1-6 2.7-12.3c-.5-8-5.7-13.8-5.7-13.8l-30.7-20.6.3-5.4s.5-1.7-.5-4.6c-.9-2.5-1.6-3.8-2.3-4.7-2.2-2.5-4.8-2.3-4.8-2.3l-78.4-8.8z"/><path class="st4" d="M162.3 140.8s-16.3-15.5-9.3-40.1c6.9-24.6 41.1-40.4 73.6-36.9S272 91 272 91s-.9 29.5-36 43.9-73.7 5.9-73.7 5.9z"/><path d="M207.7 71.6c7.7 3.4 3.5 7.2-8.1 13-10.8 5.4-23.7 21.2-27.2 25.3-3.5 4-5.8 4.5-7.5 3.6s-7.2-3.1-2.3-15.9c4.9-12.7 18-20.8 24.3-23.7 6.3-3 14.7-5 20.8-2.3z" style="fill:#fffffe"/><path class="st4" d="M176.4 151.2s16.4 8.4 34 8.6c24.9.2 41.3-8.1 41.3-8.1s11.8-.9 20.2 2.4c7.4 2.9 9.4 9.5 9.4 9.5s-13.3 15.6-70 14.5c-56.7-1.2-62.4-10.1-62.4-10.1s-1.5-9.2 8.6-13.7c8.5-3.9 18.9-3.1 18.9-3.1z"/><path d="M165.9 155.8c-5.4-.4-13.7 2.2-12.7 7.9s17.8 8.3 25.9 8.6 21.1 1.2 20.8-4.7c-.2-5.9-19.8-2.9-27.5-6.1-7.6-3.2 1.3-5.1-6.5-5.7z" style="fill:#aeaeaf"/><path class="st4" d="M182.4 199.4s15.9 3.5 37.5 3.5 32.6-5.7 32.6-5.7 0 6 10.1 25c10.2 19 17.5 28.3 17.5 28.3s6.6-.3 9.2 1.2c2.5 1.6 5 6.4 5 6.4-.8.9-18.9 13.8-73.3 12.9-58-1-84.9-12.7-84.9-12.7s3.4-4.4 7.3-5.4c4.7-1.2 7.7-.9 7.7-.9s17.4-16.2 24.5-32.1c7.3-15.7 6.8-20.5 6.8-20.5z"/><path class="st7" d="M218.7 258.8c21.4 0 39.9-3.3 47.8-5.1 7.9-1.8 13.9-4.7 20-3.2 3.4.9 4.8 2.9 4.8 2.9s-22.7 14.7-72.8 13.2c-53.4-1.6-79.4-11-79.4-11s3.5-3.8 11.3-3.5c2.1.1 4 .6 16 2.7s31.5 4 52.3 4z"/><path class="st4" d="M136.5 267.4s40.7 10.8 82.2 11.2c55.5.6 77.3-13.1 77.3-13.1s13 9.2 18.3 13.5c5.3 4.3 12.1 12.4 12.1 12.4s-23.2 29.6-108.2 29C133.2 319.8 107 295 107 295s4.5-9.1 13.8-16.6c5.7-4.6 15.7-11 15.7-11z"/><path class="st7" d="M135.9 279.6c-6.3-1.3-18.8 8.4-17.3 14.5.8 3.1 3 6.6 15.2 10 11.2 3.1 28.5 3 28.5-2.2 0-6.7-15-6.1-18.8-12-3.1-4.6-1-8.9-7.6-10.3z"/><path class="st4" d="M108 317.7s-5 2.6-8.9 5.6c-4.9 3.7-6.7 6.3-6.7 6.3s11.2 31.2 119 31.8c105.6.7 131-33.1 131-33.1s-3.4-3.8-7.1-6.6c-3.6-2.8-6-4.2-6-4.2s-36.2 26.7-118.7 26c-78.5-.6-102.6-25.8-102.6-25.8z"/><path class="st7" d="M102.6 326.3c-2.9 2.5-2.8 7.7 5.7 12 9.1 4.6 23.8 11.2 44.8 14.2 21.4 3.1 43.7 2.1 42.3-3.4-.9-3.8-19.5.5-52.4-9.6-19.3-5.9-25.3-9.1-29.2-11.3-2.5-1.4-7-5.5-11.2-1.9zM127.5 297.9c6.7 0 6.7-8 0-8s-6.7 8 0 8z"/><linearGradient id="SVGID_00000168109054319439665970000010276386952448157582_" gradientUnits="userSpaceOnUse" x1="3.79" y1="-90.665" x2="432.66" y2="-90.665" gradientTransform="matrix(1 0 0 -1 0 128)"><stop offset="0" style="stop-color:#818e70"/><stop offset="1" style="stop-color:#0b5500"/></linearGradient><path style="fill:url(#SVGID_00000168109054319439665970000010276386952448157582_);stroke:#000;stroke-width:5;stroke-miterlimit:10" d="M372.8 433.1H63.7c-33 0-59.9-26.9-59.9-59.9V64.1c0-33 26.9-59.9 59.9-59.9h309.1c33 0 59.9 26.9 59.9 59.9v309.1c0 33-26.9 59.9-59.9 59.9zM63.7 24.2c-22 0-39.9 17.9-39.9 39.9v309.1c0 22 17.9 39.9 39.9 39.9h309.1c22 0 39.9-17.9 39.9-39.9V64.1c0-22-17.9-39.9-39.9-39.9H63.7z"/><g style="opacity:.1"><path d="m476 399.1-2.4 7.4c-4.8 15-12.9 29-23.5 40.5l-5.2 5.7c-.9 1-2.4 1.1-3.4.3l-6-4.8c-4.5-3.5-10.3-5.1-16-4.3-5.6.8-10.6 3.7-14 8.2-3.4 4.5-4.9 10.1-4.1 15.7l1.1 7.6c.2 1.3-.6 2.5-1.9 2.8l-7.5 1.7c-7.5 1.6-15.3 2.5-22.9 2.5-8 0-16.1-.9-23.9-2.7l-7.5-1.7c-1.3-.3-2.1-1.5-1.9-2.8l1.1-7.6c1.3-8.5-2.7-16.8-10.1-21-7.5-4.3-16.7-3.7-23.5 1.7l-6.1 4.7c-1 .8-2.5.7-3.4-.3l-5.2-5.7c-10.5-11.5-18.5-25.5-23-40.4l-2.2-7.3c-.4-1.2.2-2.5 1.4-3l7-2.9c8-3.2 13.2-10.9 13.2-19.5.1-8.5-5-16.1-12.8-19.3l-7.1-3c-1.2-.5-1.8-1.8-1.4-3.1l2.4-7.3c4.8-14.9 12.9-28.8 23.5-40.2l5.1-5.6c.9-1 2.3-1.1 3.4-.3l6 4.6c4.4 3.4 9.9 4.8 15.4 4.2 5.6-.7 10.7-3.5 14.1-8 3.5-4.5 5-10 4.4-15.7l-1-7.5c-.2-1.3.7-2.5 2-2.8l7.4-1.6c15.2-3.4 31.4-3.4 46.6 0l7.5 1.7c1.3.3 2.1 1.5 1.9 2.8l-1 7.6c-1.2 8.4 2.8 16.6 10.2 20.8 7.5 4.3 16.7 3.7 23.5-1.6l6-4.7c1-.8 2.5-.7 3.4.3l5.2 5.6c10.6 11.5 18.6 25.4 23.3 40.3l2.3 7.3c.4 1.2-.2 2.6-1.5 3.1l-7.1 2.9c-8.1 3.2-13.3 10.9-13.4 19.5-.1 8.5 5.1 16.3 13 19.4l7.2 2.9c1.1.3 1.8 1.6 1.4 2.9z" style="fill:#2e3192"/></g><g style="opacity:.5"><path d="m466 393.5-2.4 7.4c-4.8 15-12.9 29-23.5 40.5l-5.2 5.7c-.9 1-2.4 1.1-3.4.3l-6-4.8c-4.5-3.5-10.3-5.1-16-4.3-5.6.8-10.6 3.7-14 8.2-3.4 4.5-4.9 10.1-4.1 15.7l1.1 7.6c.2 1.3-.6 2.5-1.9 2.8l-7.5 1.7c-7.5 1.6-15.3 2.5-22.9 2.5-8 0-16.1-.9-23.9-2.7l-7.5-1.7c-1.3-.3-2.1-1.5-1.9-2.8l1.1-7.6c1.3-8.5-2.7-16.8-10.1-21-7.5-4.3-16.7-3.7-23.5 1.7l-6.1 4.7c-1 .8-2.5.7-3.4-.3l-5.2-5.7c-10.5-11.5-18.5-25.5-23-40.4l-2.2-7.3c-.4-1.2.2-2.5 1.4-3l7.1-2.9c8-3.2 13.2-10.9 13.2-19.5.1-8.5-5-16.1-12.8-19.3l-7.1-3c-1.2-.5-1.8-1.8-1.4-3.1l2.4-7.3c4.8-14.9 12.9-28.8 23.5-40.2l5.1-5.6c.9-1 2.3-1.1 3.4-.3l6 4.6c4.4 3.4 9.9 4.8 15.4 4.2 5.6-.7 10.7-3.5 14.1-8 3.5-4.5 5-10 4.4-15.7l-1-7.5c-.2-1.3.7-2.5 2-2.8l7.4-1.6c15.2-3.4 31.4-3.4 46.6 0l7.5 1.7c1.3.3 2.1 1.5 1.9 2.8l-1 7.6c-1.2 8.4 2.8 16.6 10.2 20.8 7.5 4.3 16.7 3.7 23.5-1.6l6-4.7c1-.8 2.5-.7 3.4.3l5.2 5.6c10.6 11.5 18.6 25.4 23.3 40.3l2.3 7.3c.4 1.2-.2 2.6-1.5 3.1l-7.1 2.9c-8.1 3.2-13.3 10.9-13.4 19.5-.1 8.5 5.1 16.3 13 19.4l7.2 2.9c1.1.3 1.7 1.7 1.3 2.9z" style="fill:#edf0f2"/></g><linearGradient id="SVGID_00000025418008876080850040000012044797140076332958_" gradientUnits="userSpaceOnUse" x1="268.06" y1="367.69" x2="453.09" y2="367.69"><stop offset="0" style="stop-color:#818e70"/><stop offset="1" style="stop-color:#434a3a"/></linearGradient><linearGradient id="SVGID_00000021102449381149589100000013177915394247844481_" gradientUnits="userSpaceOnUse" x1="391.856" y1="-271.805" x2="328.915" y2="-208.864" gradientTransform="matrix(1 0 0 -1 0 128)"><stop offset="0" style="stop-color:#818e70"/><stop offset="1" style="stop-color:#434a3a"/></linearGradient><path style="fill:url(#SVGID_00000021102449381149589100000013177915394247844481_);stroke:#000;stroke-width:5;stroke-miterlimit:10" d="M399 346.2c-12.2-21.3-39.5-28.6-60.8-16.4s-28.6 39.5-16.4 60.8c12.2 21.3 39.4 28.6 60.7 16.4 21.3-12.3 28.7-39.5 16.5-60.8zm-25.7 44.7c-12.5 7.2-28.4 2.9-35.6-9.6-7.2-12.5-2.9-28.4 9.6-35.6 12.5-7.2 28.4-2.9 35.6 9.6 7.2 12.3 3 28.2-9.3 35.4-.1.1-.2.2-.3.2z"/><linearGradient id="SVGID_00000176008515133633833260000001131249974590345406_" gradientUnits="userSpaceOnUse" x1="435.25" y1="-315.31" x2="285.43" y2="-165.49" gradientTransform="matrix(1 0 0 -1 0 128)"><stop offset="0" style="stop-color:#818e70"/><stop offset="1" style="stop-color:#434a3a"/></linearGradient><path style="fill:url(#SVGID_00000176008515133633833260000001131249974590345406_);stroke:#000;stroke-width:5;stroke-miterlimit:10" d="M441.9 368.2c.1-9.6 6-18.3 14.9-21.8l7.1-2.9-2.3-7.3c-4.6-14.6-12.3-28.1-22.8-39.4l-5.2-5.6-6 4.6c-7.6 5.9-18 6.6-26.3 1.8-8.2-4.7-12.8-14-11.4-23.3l1-7.6-7.5-1.6c-15-3.3-30.5-3.3-45.5 0l-7.4 1.6 1 7.5c1.6 13-7.7 24.9-20.7 26.5-6.1.8-12.3-.9-17.2-4.7l-6-4.6-5.1 5.6c-10.4 11.3-18.2 24.7-22.9 39.3l-2.4 7.3 7.1 3c8.7 3.6 14.4 12.2 14.3 21.6-.1 9.6-5.9 18.2-14.8 21.8l-7.1 2.9 2.2 7.3c4.5 14.7 12.2 28.1 22.5 39.5l5.2 5.7 6.1-4.7c7.6-5.9 18-6.7 26.3-1.9 8.3 4.8 12.8 14.1 11.4 23.6l-1.1 7.6 7.5 1.7c7.7 1.7 15.5 2.6 23.4 2.6 7.5 0 15-.8 22.4-2.4l7.5-1.6-1.1-7.6c-1.8-13 7.2-24.9 20.2-26.7 6.4-.9 12.9.9 17.9 4.9l6 4.8 5.2-5.7c10.5-11.4 18.3-24.9 23-39.5l2.4-7.4-7.2-2.9c-8.9-3.8-14.7-12.5-14.6-22zm-11.2 55c-19.9-10-44.2-2-54.2 17.9-2.5 4.9-3.9 10.2-4.2 15.6-8.3 1.1-16.7 1.1-25-.1-.7-13.5-8.2-25.6-19.9-32.3-11.7-6.7-25.9-7.2-38-1.2-5.1-6.5-9.2-13.8-12.3-21.5 11.2-7.4 18-19.9 18.1-33.4.1-13.3-6.5-25.8-17.5-33.3 3.1-7.8 7.4-15 12.5-21.6 20.1 9.8 44.3 1.4 54-18.6 2.2-4.6 3.6-9.6 4-14.7 8.3-1.2 16.7-1.2 25 0 1.5 22.1 20.6 38.8 42.7 37.3 5.3-.4 10.5-1.8 15.2-4.1 2.6 3.3 5 6.8 7.1 10.5 2 3.5 3.8 7.2 5.3 11-11.3 7.4-18.1 19.9-18.2 33.4-.1 13.5 6.6 26.1 17.9 33.5-3.2 7.7-7.4 15-12.5 21.6z"/></svg>