<svg version="1.1" id="Layer_1" xmlns="http://www.w3.org/2000/svg" x="0" y="0" viewBox="0 0 480.2 484.4" style="enable-background:new 0 0 480.2 484.4" xml:space="preserve"><style>.st3{fill:#fff;stroke:#000;stroke-width:10;stroke-miterlimit:10}.st6{fill:#a1107c}.st10{opacity:.93;fill:#fff;enable-background:new}</style><linearGradient id="SVGID_1_" gradientUnits="userSpaceOnUse" x1="136.4" y1="-219.45" x2="322.975" y2="-219.45" gradientTransform="matrix(1 0 0 -1 0 18)"><stop offset="0" style="stop-color:#9a1f24"/><stop offset=".325" style="stop-color:#c92222"/><stop offset="1" style="stop-color:#c42b27"/></linearGradient><path d="M372.8 421.4H66c-27.2 0-49.2-22-49.2-49.2V65.4c0-27.2 22-49.2 49.2-49.2h306.8c27.2 0 49.2 22 49.2 49.2v306.8c0 27.1-22.1 49.2-49.2 49.2z" style="opacity:5.000000e-02;fill:#757abf"/><linearGradient id="SVGID_00000144323855166291430600000010202473413881791143_" gradientUnits="userSpaceOnUse" x1="217.604" y1="426.476" x2="217.604" y2="109.176" gradientTransform="matrix(1 0 0 -1 0 485.276)"><stop offset="0" style="stop-color:#a92cc7"/><stop offset="1" style="stop-color:#ff77d8"/></linearGradient><path style="fill:url(#SVGID_00000144323855166291430600000010202473413881791143_)" d="M218 376.1c-55.1 0-83.1-7.3-103.2-14.5-18.8-6.8-27.6-13.9-28.3-23.1-.5-6 3-10.8 3.6-11.6.4-.6 2.5-3.3 7.4-7 1.8-1.4 3.9-2.8 5.7-3.8-1.4-2.6-2.3-6.1-2.4-9.4-.2-7.2 3.1-13 3.7-14.1.7-1.4 5.5-10.2 14.7-17.6 2.9-2.4 7.3-5.5 12.9-9.2-.4-1-.6-2.2-.7-3.7v-.1c0-3.1 1.6-5.8 1.9-6.3l.1-.1.1-.1c.4-.5 4.2-5.2 9.7-6.5.4-.1 4.1-1 6.8-1h.1c6.4-7.7 20.3-25.1 23.1-30.2 3.1-5.9 5.6-17.4 6.1-19.5V189c-4.2-.3-11.7-1.4-19.3-4.4-13-5.2-14.3-14.1-14.3-17.2-.5-3.6.5-12.6 10.7-17.2 3-1.4 6.3-2.2 9.2-2.7-1.4-1.2-3-2.8-4.3-4.1l-1-1c-.7-.7-17.7-17.3-10.3-43.6 3.2-11.5 12.2-21.8 25.2-29.2 12.3-6.9 27.5-10.8 42.7-10.8 3.2 0 6.4.2 9.5.5 31.9 3.5 45.9 25.3 47.9 28.6l.2.3c3.8 5.9 11.4 22 .2 44-3.5 6.8-8.2 11.7-12.3 15 3.4.5 7.1 1.3 10.4 2.6 5.2 2.1 9.2 6.1 11.3 11.3.4.8.8 2.5.7 6.2-.2 6.8-4.4 12.7-11.7 16.1-6.6 3-13.3 4.3-17.2 4.9l-.2 8.2s.4 5.9 9.7 23.4c7.4 14 13.3 22.6 15.9 26h1.3c1.5 0 3 .2 4.4.5h.1c3.6 1 5.7 3 6.4 3.9 3.1 2.8 4.7 7.9 5 8.9.5 1.5.7 2.9.8 3.9 3.7 2.6 12.6 9 16.9 12.5 5.4 4.4 11.7 12 12.5 12.8.7.8 6 7.1 6.5 15.9.3 4.6-1 8.9-2 11.5l11.3 9.5.2.3.6.9c1.8 2.8 2.7 6 2.4 9.3-.3 3.1-1.1 12.6-19.9 22.9-14.9 8-52.9 17.4-110.8 17.4z"/><path d="M217.9 62.4c3 0 6.1.2 9.1.5 30.4 3.3 43.8 24.4 45.3 27 .1.2.2.3.2.3 3.6 5.6 10.3 20.3 0 40.5-7.1 13.9-19.9 19.2-19.9 19.2s11.4 0 19.8 3.3c6.9 2.8 9.1 8.8 9.4 9.5 0 0 .5.8.4 4.6-.1 4.5-2.6 9.7-9.7 13-9.3 4.2-19.1 5-19.1 5l-.3 11.2v.1c0 .6.5 6.9 10.1 25 9.2 17.3 16.1 26.5 17.4 28 1-.1 1.9-.2 2.8-.2 1.2 0 2.4.1 3.7.4 3.4.9 4.8 2.9 4.8 2.9 2.7 2.3 4.2 7.5 4.2 7.5 1 2.9.5 4.6.5 4.6s13 9.2 18.3 13.5c5.2 4.2 11.6 11.9 12 12.4 0 0 5.2 5.8 5.7 13.8.4 6.4-2.7 12.3-2.7 12.3l.1.1 12.9 10.8s.3.4.4.6c1.5 2.2 2.1 4.7 1.9 7.2-.3 3.4-1.6 11.1-18.1 20.1-16.5 8.9-56.4 17-109.1 17s-81-6.8-102-14.3c-20.3-7.3-25.5-13.9-26-20.1-.4-5 2.9-9.2 2.9-9.2s1.8-2.6 6.7-6.3c3.6-2.8 8.3-5.2 8.8-5.5-.6-.1-4-4.1-4.1-10.5-.2-6.9 3.3-12.3 3.3-12.3s4.5-9.1 13.8-16.6c5.5-4.5 15-10.6 15.6-11-.3-.1-2-1.2-2.1-4.7 0-2.2 1.4-4.4 1.4-4.4s3.3-4.2 7.8-5.3c0 0 3.6-.9 6-.9h1.7s20.8-25.1 24.5-32.1c3.7-7 6.5-20.8 6.5-20.8v-13s-10.7 0-21.5-4.3c-12.6-5-12.1-13.7-12.1-14.2-.1-.5-1.2-9.3 8.6-13.7 6.2-2.8 13.4-3.2 16.9-3.2 1.3 0 2 .1 2 .1s-3.2-1.2-8.1-4.9c-2.2-1.6-5.5-5.2-5.8-5.5h-.1s-16.3-15.5-9.3-40.1c6.3-22.3 35-37.4 64.5-37.4m0-7c-15.8 0-31.6 4-44.4 11.2-13.8 7.8-23.4 18.9-26.8 31.3-8.1 28.3 10.4 46.3 11.2 47.1l.7.7c-1.2.4-2.4.9-3.6 1.4-11.9 5.3-13.3 15.9-12.7 20.6.1 2.8.8 5.8 2.3 8.4 2.7 5.2 7.5 9.1 14.3 11.8 6.3 2.5 12.5 3.7 17.1 4.3v5.8c-.9 4.1-3.2 13.5-5.7 18.3-2.2 4.3-13.7 18.8-21.7 28.4-2.7.2-5.4.9-6 1-6.5 1.6-10.8 6.7-11.6 7.8l-.2.3-.2.3c-.6.9-2.5 4.2-2.5 8.2v.2c0 .7.1 1.4.2 2-4.7 3.2-8.5 5.9-11.1 8.1-9.4 7.6-14.5 16.7-15.5 18.6-1 1.6-4.4 7.9-4.2 15.9 0 2.6.6 5.4 1.4 7.9-1.1.7-2.3 1.5-3.4 2.4-5.1 3.8-7.4 6.8-8.1 7.7-.9 1.2-4.8 6.8-4.2 13.9.9 10.8 10.3 18.8 30.6 26.1 13.1 4.7 25.9 7.9 40.4 10.3 18.4 3 39.3 4.4 64 4.4 48.2 0 92.3-7 112.4-17.8 20.5-11.2 21.4-22.1 21.7-25.6.3-4.1-.7-8-2.9-11.4-.2-.3-.4-.7-.8-1.1l-.5-.6-.6-.5-9.2-7.7c.9-2.9 1.6-6.6 1.4-10.6-.6-9.7-6.3-16.7-7.4-17.9-1.1-1.3-7.4-8.8-12.9-13.3-3.9-3.2-11.6-8.7-15.8-11.7-.1-.9-.4-2-.8-3.1-.4-1.5-2.2-6.8-5.8-10.2-1.6-1.8-4.4-3.9-8.1-4.9h-.2c-1.6-.4-3.1-.5-4.7-.6-2.8-3.9-8.1-12-14.5-24.1-7.9-14.9-9.1-21-9.3-21.9l.1-5c4.1-.8 9.7-2.2 15.1-4.7 8.6-4 13.6-11 13.7-19.2.1-3.5-.2-5.9-1-7.6-2.5-6-7.2-10.7-13.2-13.1-1.4-.5-2.9-1-4.3-1.4 2.9-3.1 5.8-6.8 8.1-11.4 12-23.6 3.8-41.1-.3-47.5l-.2-.3c-2.3-3.9-17.2-26.5-50.4-30.2-3.3-.8-6.6-1-9.9-1z"/><path d="M269.4 131.1c-6.7 12.3-20.2 17.9-20.2 17.9h.1c-1.3.6-16.3 7.3-38.6 7.1-16.5-.2-31.9-7.6-31.9-7.6h-.5c-.9-.4-3.5-1.6-7.3-4.2-2.1-1.5-5.2-4.7-5.4-4.9-5.6-1.1 40.2 6 69.1-5.2 31.6-12.2 37.5-36.7 37.6-38.7 3.4 5 6.9 17.8-2.9 35.6z" style="fill:#81027e"/><path d="M185.4 199.5c13.6 2.9 25 3.5 33.1 3.5 18.1-.1 27-3.6 32-6 .1 0 .1-.1.2-.1l1.2-10.9s9.5-.8 18.5-4.8c6.9-3.1 9.3-8.2 9.4-12.6.1-2.8-.1-3.7-.5-4.2-12.4 5.8-33.4 13.6-60.5 15-30.3 1.5-54.1-5.8-67.4-11l-.2.1s-.9 8.7 11.7 13.7c10.5 4.2 22.4 3.9 22.4 3.9l.1 13.4z" style="fill:#880680"/><path class="st6" d="M145.1 254.6c6.3-.2 12.6-.3 18.9-.5 1.5.3 3.2.6 5.2.9 11.7 2.1 30.8 3.9 51.1 3.9 20.9 0 39-3.2 46.7-5 2.3-.5 4.4-1.1 6.3-1.7l15 1.7s.8-.1 1.9.3c.8.3 1.8.8 2.7 1.8l.1.1c.7.9 1.4 2.2 2.2 4.6 1 2.8.5 4.5.5 4.5v.3c-1.7 1-23.4 13.3-75.5 12.7-40.6-.4-80.4-11-80.4-11-.2-.1-2.9-2.1-2.7-5.3.1-1.9 1.1-3.1 1.5-3.5.5-.7 1.5-1.7 2.9-2.6 1.6-.7 2.8-1 3.6-1.2z"/><path d="M106.4 308c-.1-6.5 2.9-11.6 3.3-12.2 1.4 1.3 28.5 24.8 111.1 25.3 83.9.6 107.6-28.2 108.2-29 .7.8 5.1 6.3 5.6 13.7.4 6.3-2.7 12.3-2.7 12.3l.4.4c-.3-.2-.4-.3-.4-.3s-36.2 26.7-118.7 26c-78.5-.6-102.6-25.8-102.6-25.8l-.1.1c-.8-.4-3.9-4.3-4.1-10.5z" style="fill:#cf3393"/><path d="M343.6 333.7c-.3 3.5-1.6 11.4-18 20.4-16.4 9.1-56 17.3-108.2 17.3s-80.4-6.9-101.2-14.5c-20.2-7.4-24.5-12.8-25-19.1-.4-5.2 4.4-10.4 4.4-10.4s8.8 31.4 115.8 32c102.2.7 128.7-32 129.9-33.6.1.1.4.4.4.5 1.5 2.3 2.1 4.9 1.9 7.4z" style="fill:#e548a8"/><path class="st6" d="M294.3 258.5c-.8.9-18.4 13.4-71.2 12.5-53.5-.9-79.7-11.2-82.3-12.3l7.2-1.3c-3-.8-4.5-1.4-4.5-1.4s3.4-3.7 11-3.4c1.7.1 3.2.4 10.3 1.7 1.5.3 3.2.6 5.2.9 11.7 2 30.6 3.9 50.8 3.9 20.8 0 38.8-3.2 46.4-5 2.2-.5 4.3-1.1 6.3-1.7 2.4-.7 4.6-1.3 6.8-1.6.1.1.1.2.1.2s6.4-.3 8.9 1.2c.6.4 1.3 1 1.9 1.7.7.8 1.2 1.6 1.7 2.4.9 1.2 1.4 2.2 1.4 2.2z"/><path d="M342.4 328.3h-.1l-12.6-10.5c.9.5 2.9 1.8 5.6 3.9 3.7 2.8 7.1 6.6 7.1 6.6z" style="fill:#5e6367"/><path class="st10" d="M199.6 84.6c-10.8 5.4-23.7 21.2-27.2 25.3-3.5 4-5.8 4.5-7.5 3.6s-7.2-3.1-2.3-15.9c4.9-12.7 18-20.8 24.3-23.7 6.3-3 14.7-5 20.8-2.3 7.7 3.4 3.5 7.2-8.1 13zM199.9 167.6c.3 5.9-12.7 5-20.8 4.7-7.1-.3-21-2.3-24.9-6.7-.5-.6-.9-1.2-1-1.9-1-5.7 7.3-8.3 12.7-7.9 5.5.4 2.7 1.5 3.2 3.2.2.7 1 1.6 3.3 2.5 7.7 3.2 27.3.2 27.5 6.1zM290.5 253.1s-.1 0 0 0c-.2.1-.5.3-1 .6-4.8 2.6-26.5 13.2-68.2 11.9-38.4-1.1-61.9-6.5-71.1-9.1-2.9-.8-4.4-1.3-4.4-1.3s3.3-3.6 10.7-3.3c1.7.1 3.2.4 10.1 1.7 1.4.3 3.1.6 5.1.9 11.4 2 29.9 3.8 49.7 3.8 20.3 0 37.9-3.1 45.4-4.8 2.2-.5 4.2-1.1 6.2-1.6 2.3-.7 4.5-1.3 6.6-1.6s4.2-.3 6.2.2c3.3.6 4.7 2.6 4.7 2.6zM162.3 301.9c0 5.2-17.3 5.3-28.5 2.2-12.2-3.4-14.4-6.9-15.2-10-1.5-6.1 11-15.8 17.3-14.5 6.6 1.4 4.5 5.7 7.6 10.3 3.8 5.9 18.8 5.3 18.8 12zM153.1 351.5c-21-3-35.7-9.6-44.8-14.2-8.5-4.3-8.6-9.5-5.7-12 4.2-3.6 8.7.5 11.2 1.9 3.9 2.2 9.9 5.4 29.2 11.3 32.9 10.1 51.5 5.8 52.4 9.6 1.4 5.5-20.9 6.5-42.3 3.4z"/><linearGradient id="SVGID_00000148624154152011001670000001697651276007490481_" gradientUnits="userSpaceOnUse" x1="415.125" y1="-3.775" x2="21.375" y2="-397.525" gradientTransform="matrix(1 0 0 -1 0 18)"><stop offset="0" style="stop-color:#0000e6"/><stop offset="1" style="stop-color:#ff7fff"/></linearGradient><path style="fill:url(#SVGID_00000148624154152011001670000001697651276007490481_);stroke:#000;stroke-width:5;stroke-miterlimit:10" d="M372.8 433.1H63.7c-33 0-59.9-26.9-59.9-59.9V64.1c0-33 26.9-59.9 59.9-59.9h309.1c33 0 59.9 26.9 59.9 59.9v309.1c0 33-26.9 59.9-59.9 59.9zM63.7 24.2c-22 0-39.9 17.9-39.9 39.9v309.1c0 22 17.9 39.9 39.9 39.9h309.1c22 0 39.9-17.9 39.9-39.9V64.1c0-22-17.9-39.9-39.9-39.9H63.7z"/><g style="opacity:8.000000e-02"><path d="m476 399.1-2.4 7.4c-4.8 15-12.9 29-23.5 40.5l-5.2 5.7c-.9 1-2.4 1.1-3.4.3l-6-4.8c-4.5-3.5-10.3-5.1-16-4.3-5.6.8-10.6 3.7-14 8.2s-4.9 10.1-4.1 15.7l1.1 7.6c.2 1.3-.6 2.5-1.9 2.8l-7.5 1.7c-7.5 1.6-15.3 2.5-22.9 2.5-8 0-16.1-.9-23.9-2.7l-7.5-1.7c-1.3-.3-2.1-1.5-1.9-2.8l1.1-7.6c1.3-8.5-2.7-16.8-10.1-21-7.5-4.3-16.7-3.7-23.5 1.7l-6.1 4.7c-1 .8-2.5.7-3.4-.3l-5.2-5.7c-10.5-11.5-18.5-25.5-23-40.4l-2.2-7.3c-.4-1.2.2-2.5 1.4-3l7-2.9c8-3.2 13.2-10.9 13.2-19.5.1-8.5-5-16.1-12.8-19.3l-7.1-3c-1.2-.5-1.8-1.8-1.4-3.1l2.4-7.3c4.8-14.9 12.9-28.8 23.5-40.2l5.1-5.6c.9-1 2.3-1.1 3.4-.3l6 4.6c4.4 3.4 9.9 4.8 15.4 4.2 5.6-.7 10.7-3.5 14.1-8 3.5-4.5 5-10 4.4-15.7l-1-7.5c-.2-1.3.7-2.5 2-2.8l7.4-1.6c15.2-3.4 31.4-3.4 46.6 0l7.5 1.7c1.3.3 2.1 1.5 1.9 2.8l-1 7.6c-1.2 8.4 2.8 16.6 10.2 20.8 7.5 4.3 16.7 3.7 23.5-1.6l6-4.7c1-.8 2.5-.7 3.4.3l5.2 5.6c10.6 11.5 18.6 25.4 23.3 40.3l2.3 7.3c.4 1.2-.2 2.6-1.5 3.1l-7.1 2.9c-8.1 3.2-13.3 10.9-13.4 19.5-.1 8.5 5.1 16.3 13 19.4l7.2 2.9c1.1.3 1.8 1.6 1.4 2.9z" style="fill:#2e3192"/></g><g style="opacity:.4"><path d="m466 393.5-2.4 7.4c-4.8 15-12.9 29-23.5 40.5l-5.2 5.7c-.9 1-2.4 1.1-3.4.3l-6-4.8c-4.5-3.5-10.3-5.1-16-4.3-5.6.8-10.6 3.7-14 8.2s-4.9 10.1-4.1 15.7l1.1 7.6c.2 1.3-.6 2.5-1.9 2.8l-7.5 1.7c-7.5 1.6-15.3 2.5-22.9 2.5-8 0-16.1-.9-23.9-2.7l-7.5-1.7c-1.3-.3-2.1-1.5-1.9-2.8l1.1-7.6c1.3-8.5-2.7-16.8-10.1-21-7.5-4.3-16.7-3.7-23.5 1.7l-6.1 4.7c-1 .8-2.5.7-3.4-.3l-5.2-5.7c-10.5-11.5-18.5-25.5-23-40.4l-2.2-7.3c-.4-1.2.2-2.5 1.4-3l7.1-2.9c8-3.2 13.2-10.9 13.2-19.5.1-8.5-5-16.1-12.8-19.3l-7.1-3c-1.2-.5-1.8-1.8-1.4-3.1l2.4-7.3c4.8-14.9 12.9-28.8 23.5-40.2l5.1-5.6c.9-1 2.3-1.1 3.4-.3l6 4.6c4.4 3.4 9.9 4.8 15.4 4.2 5.6-.7 10.7-3.5 14.1-8 3.5-4.5 5-10 4.4-15.7l-1-7.5c-.2-1.3.7-2.5 2-2.8l7.4-1.6c15.2-3.4 31.4-3.4 46.6 0l7.5 1.7c1.3.3 2.1 1.5 1.9 2.8l-1 7.6c-1.2 8.4 2.8 16.6 10.2 20.8 7.5 4.3 16.7 3.7 23.5-1.6l6-4.7c1-.8 2.5-.7 3.4.3l5.2 5.6c10.6 11.5 18.6 25.4 23.3 40.3l2.3 7.3c.4 1.2-.2 2.6-1.5 3.1l-7.1 2.9c-8.1 3.2-13.3 10.9-13.4 19.5-.1 8.5 5.1 16.3 13 19.4l7.2 2.9c1.1.3 1.7 1.7 1.3 2.9z" style="fill:#edf0f2"/></g><linearGradient id="SVGID_00000072988377306750009650000007400262637724969099_" gradientUnits="userSpaceOnUse" x1="294.175" y1="410.725" x2="431.275" y2="547.825" gradientTransform="translate(0 -110)"><stop offset="0" style="stop-color:#4e299d"/><stop offset="1" style="stop-color:#9c6b9c"/></linearGradient><linearGradient id="SVGID_00000157274347048167068370000013525743112207180943_" gradientUnits="userSpaceOnUse" x1="328.899" y1="-318.903" x2="391.834" y2="-381.837" gradientTransform="matrix(1 0 0 -1 0 18)"><stop offset="0" style="stop-color:#7500ff"/><stop offset="1" style="stop-color:#ff84ff"/></linearGradient><path style="fill:url(#SVGID_00000157274347048167068370000013525743112207180943_);stroke:#000;stroke-width:5;stroke-miterlimit:10" d="M399 346.2c-12.2-21.3-39.5-28.6-60.8-16.4s-28.6 39.5-16.4 60.8 39.4 28.6 60.7 16.4c21.3-12.3 28.7-39.5 16.5-60.8zm-25.7 44.7c-12.5 7.2-28.4 2.9-35.6-9.6s-2.9-28.4 9.6-35.6 28.4-2.9 35.6 9.6c7.2 12.3 3 28.2-9.3 35.4-.1.1-.2.2-.3.2z"/><linearGradient id="SVGID_00000142145120113836708030000005419409079660523445_" gradientUnits="userSpaceOnUse" x1="285.4" y1="-275.6" x2="435.3" y2="-425.5" gradientTransform="matrix(1 0 0 -1 0 18)"><stop offset="0" style="stop-color:#7500ff"/><stop offset="1" style="stop-color:#ff84ff"/></linearGradient><path style="fill:url(#SVGID_00000142145120113836708030000005419409079660523445_);stroke:#000;stroke-width:5;stroke-miterlimit:10" d="M441.9 368.2c.1-9.6 6-18.3 14.9-21.8l7.1-2.9-2.3-7.3c-4.6-14.6-12.3-28.1-22.8-39.4l-5.2-5.6-6 4.6c-7.6 5.9-18 6.6-26.3 1.8-8.2-4.7-12.8-14-11.4-23.3l1-7.6-7.5-1.6c-15-3.3-30.5-3.3-45.5 0l-7.4 1.6 1 7.5c1.6 13-7.7 24.9-20.7 26.5-6.1.8-12.3-.9-17.2-4.7l-6-4.6-5.1 5.6c-10.4 11.3-18.2 24.7-22.9 39.3l-2.4 7.3 7.1 3c8.7 3.6 14.4 12.2 14.3 21.6-.1 9.6-5.9 18.2-14.8 21.8l-7.1 2.9 2.2 7.3c4.5 14.7 12.2 28.1 22.5 39.5l5.2 5.7 6.1-4.7c7.6-5.9 18-6.7 26.3-1.9 8.3 4.8 12.8 14.1 11.4 23.6l-1.1 7.6 7.5 1.7c7.7 1.7 15.5 2.6 23.4 2.6 7.5 0 15-.8 22.4-2.4l7.5-1.6-1.1-7.6c-1.8-13 7.2-24.9 20.2-26.7 6.4-.9 12.9.9 17.9 4.9l6 4.8 5.2-5.7c10.5-11.4 18.3-24.9 23-39.5l2.4-7.4-7.2-2.9c-8.9-3.8-14.7-12.5-14.6-22zm-11.2 55c-19.9-10-44.2-2-54.2 17.9-2.5 4.9-3.9 10.2-4.2 15.6-8.3 1.1-16.7 1.1-25-.1-.7-13.5-8.2-25.6-19.9-32.3-11.7-6.7-25.9-7.2-38-1.2-5.1-6.5-9.2-13.8-12.3-21.5 11.2-7.4 18-19.9 18.1-33.4.1-13.3-6.5-25.8-17.5-33.3 3.1-7.8 7.4-15 12.5-21.6 20.1 9.8 44.3 1.4 54-18.6 2.2-4.6 3.6-9.6 4-14.7 8.3-1.2 16.7-1.2 25 0 1.5 22.1 20.6 38.8 42.7 37.3 5.3-.4 10.5-1.8 15.2-4.1 2.6 3.3 5 6.8 7.1 10.5 2 3.5 3.8 7.2 5.3 11-11.3 7.4-18.1 19.9-18.2 33.4s6.6 26.1 17.9 33.5c-3.2 7.7-7.4 15-12.5 21.6z"/></svg>