<svg version="1.1" id="Layer_1" xmlns="http://www.w3.org/2000/svg" x="0" y="0" viewBox="0 0 480.2 484.4" style="enable-background:new 0 0 480.2 484.4" xml:space="preserve"><style>.st2{fill:#fff;stroke:#000;stroke-width:10;stroke-miterlimit:10}.st3{fill:#474c50}.st4{fill:#5e6367}.st7{fill:#b0b0af}.st13{display:inline}</style><path d="M189.1 205.8v-12.7s-10.5 0-21-4.2c-12.3-4.9-11.8-13.4-11.8-13.9-.1-.5-1.2-9.1 8.4-13.4 8.3-3.7 18.5-3 18.5-3s-3.1-1.2-7.9-4.8c-2.2-1.6-5.4-5.1-5.7-5.4h-.1s-16-15.2-9.1-39.2c6.8-24.1 40.2-39.5 72-36.1 29.7 3.2 42.9 23.9 44.3 26.4.1.2.2.3.2.3 3.5 5.5 10.1 19.9 0 39.6C270 153 257 159 257 159s11.5-.9 19.8 2.3c6.8 2.7 8.9 8.6 9.2 9.3 0 0 .5.8.4 4.5-.1 4.4-2.5 9.5-9.5 12.7-9.1 4.1-18.7 4.9-18.7 4.9l-.3 11v.1c0 .6.5 6.8 9.9 24.5 9 16.9 15.8 25.9 17 27.4 2.2-.3 4.2-.3 6.4.2 3.3.9 4.7 2.8 4.7 2.8 2.6 2.3 4.1 7.3 4.1 7.3 1 2.8.5 4.5.5 4.5s12.7 9 17.9 13.2c5.1 4.1 11.4 11.6 11.7 12.1 0 0 5.1 5.7 5.6 13.5.4 6.3-2.6 12-2.6 12l.1.1 12.6 10.6s.3.4.4.6c1.5 2.2 2.1 4.6 1.9 7-.3 3.3-1.6 10.9-17.7 19.7-16.1 8.7-55.2 16.6-106.8 16.6s-79.3-6.7-99.8-14c-19.9-7.1-25-13.6-25.4-19.7-.4-4.9 2.8-9 2.8-9s1.8-2.5 6.6-6.2c3.5-2.7 8.1-5.1 8.6-5.4-.6-.1-3.9-4-4-10.3-.2-6.8 3.2-12 3.2-12s4.4-8.9 13.5-16.2c5.4-4.4 14.7-10.4 15.3-10.8-.3-.1-2-1.2-2.1-4.6 0-2.2 1.4-4.3 1.4-4.3s3.2-4.1 7.6-5.2c0 0 3.5-.9 5.9-.9h1.7s20.4-24.6 24-31.4c3.5-6.6 6.2-20.1 6.2-20.1z" style="fill:#fff;stroke:#000;stroke-width:21;stroke-miterlimit:10"/><path class="st3" d="M274.5 96.9 169 148.1s3.4 3.7 5.7 5.5c4.8 3.5 7.9 4.8 7.9 4.8l-2 5.3-25 11.2s-.9 8.8 11.8 13.9c10.6 4.2 21 4.2 21 4.2v12.7s16 15.8 37.2 15.8 31.4-17.9 31.4-17.9l.3-11s9.6-.8 18.7-4.9c6.9-3.1 9.4-8.3 9.5-12.7.1-3.7-.4-4.5-.4-4.5l-29-11.6s12.9-6.1 19.9-19.7c13.3-25.8-1.5-42.3-1.5-42.3zM215.6 249.9l-72.1 13.2s-1.9 2.1-1.9 4.2c.1 3.7 2.2 4.6 2.2 4.6L115 299s-3.3 5.3-3.2 12c.2 6.5 3.6 10.4 4.1 10.3l-9.4 9.6-6 2s-3.2 4-2.8 9c.5 6.1 5.6 12.5 25.5 19.7 20.5 7.3 48.2 14 99.8 14s90.6-7.8 106.8-16.6c16.1-8.7 17.4-16.3 17.7-19.7.2-2.4-.4-4.9-1.9-7-.1-.2-.5-.6-.5-.6L332.4 321s3-5.9 2.6-12c-.5-7.8-5.6-13.5-5.6-13.5l-30-20.2.3-5.3s.5-1.7-.5-4.5c-.9-2.4-1.6-3.7-2.3-4.6-2.2-2.4-4.7-2.3-4.7-2.3l-76.6-8.7z"/><path class="st4" d="M169 148.1s-16-15.2-9.1-39.2c6.8-24.1 40.2-39.5 72-36.1s44.4 26.6 44.4 26.6-.9 28.9-35.2 43-72.1 5.7-72.1 5.7z"/><path d="M213.4 80.3c7.5 3.3 3.4 7-7.9 12.7-10.6 5.3-23.2 20.7-26.6 24.8-3.4 3.9-5.7 4.4-7.3 3.5-1.7-.9-7-3-2.3-15.6 4.8-12.4 17.6-20.4 23.8-23.2 6.1-2.8 14.3-4.8 20.3-2.2z" style="fill:#fffffe"/><path class="st4" d="M182.8 158.2s16 8.2 33.3 8.4c24.4.2 40.4-7.9 40.4-7.9s11.5-.9 19.8 2.3c7.2 2.8 9.2 9.3 9.2 9.3s-13 15.3-68.5 14.2c-55.5-1.2-61.1-9.9-61.1-9.9s-1.5-9 8.4-13.4c8.3-3.7 18.5-3 18.5-3z"/><path d="M172.5 162.7c-5.3-.4-13.4 2.2-12.4 7.7 1 5.6 17.4 8.1 25.3 8.4 7.9.3 20.6 1.2 20.4-4.6-.2-5.8-19.4-2.8-26.9-6-7.5-3 1.2-4.9-6.4-5.5z" style="fill:#aeaeaf"/><path class="st4" d="M188.6 205.4s15.6 3.4 36.7 3.4 31.9-5.6 31.9-5.6 0 5.9 9.9 24.5c10 18.6 17.1 27.7 17.1 27.7s6.5-.3 9 1.2c2.4 1.6 4.9 6.3 4.9 6.3-.8.9-18.5 13.5-71.7 12.6-56.8-1-83.1-12.4-83.1-12.4s3.3-4.3 7.1-5.3c4.6-1.2 7.5-.9 7.5-.9s17-15.9 24-31.4c7.2-15.4 6.7-20.1 6.7-20.1z"/><path class="st7" d="M224.2 263.5c20.9 0 39-3.2 46.8-5 7.7-1.8 13.6-4.6 19.6-3.1 3.3.9 4.7 2.8 4.7 2.8s-22.3 14.4-71.3 13c-52.3-1.6-77.7-10.8-77.7-10.8s3.4-3.7 11.1-3.4c2.1.1 3.9.6 15.7 2.6s30.7 3.9 51.1 3.9z"/><path class="st4" d="M143.7 271.9s39.8 10.6 80.4 11c54.3.6 75.6-12.8 75.6-12.8s12.7 9 17.9 13.2 11.8 12.1 11.8 12.1-22.7 29-105.9 28.4c-83.2-.6-108.8-24.9-108.8-24.9s4.4-8.9 13.5-16.2c5.7-4.5 15.5-10.8 15.5-10.8z"/><path class="st7" d="M143.1 283.9c-6.2-1.3-18.4 8.2-16.9 14.2.8 3 2.9 6.5 14.9 9.8 11 3 27.9 2.9 27.9-2.2 0-6.6-14.7-6-18.4-11.7-3.1-4.5-1-8.7-7.5-10.1z"/><path class="st4" d="M115.8 321.2s-4.9 2.5-8.7 5.5c-4.8 3.6-6.6 6.2-6.6 6.2s11 30.5 116.4 31.1c103.3.7 128.2-32.4 128.2-32.4s-3.3-3.7-6.9-6.5c-3.5-2.7-5.9-4.1-5.9-4.1s-35.4 26.1-116.2 25.4c-76.7-.6-100.3-25.2-100.3-25.2z"/><path class="st7" d="M110.6 329.6c-2.8 2.4-2.7 7.5 5.6 11.7 8.9 4.5 23.3 11 43.8 13.9 20.9 3 42.8 2.1 41.4-3.3-.9-3.7-19.1.5-51.3-9.4-18.9-5.8-24.8-8.9-28.6-11.1-2.4-1.3-6.8-5.3-10.9-1.8zM134.9 301.8c6.6 0 6.6-7.8 0-7.8-6.5 0-6.5 7.8 0 7.8z"/><linearGradient id="SVGID_1_" gradientUnits="userSpaceOnUse" x1="8.871" y1="691.516" x2="438.575" y2="691.516" gradientTransform="translate(0 -467.276)"><stop offset="0" style="stop-color:#818e70"/><stop offset="1" style="stop-color:#434a3a"/></linearGradient><path d="M72.5 439.1c-35.1 0-63.6-28.5-63.6-63.6V73c0-35.1 28.5-63.6 63.6-63.6H375c35.1 0 63.6 28.5 63.6 63.6v302.5c0 35.1-28.5 63.6-63.6 63.6H72.5zm0-400.1c-18.8 0-34 15.3-34 34v302.5c0 18.8 15.3 34 34 34H375c18.8 0 34-15.3 34-34V73c0-18.8-15.3-34-34-34H72.5z" style="fill:url(#SVGID_1_)"/><path d="M375 14.4c32.3 0 58.6 26.3 58.6 58.6v302.5c0 32.3-26.3 58.6-58.6 58.6H72.5c-32.3 0-58.6-26.3-58.6-58.6V73c0-32.3 26.3-58.6 58.6-58.6H375M72.5 414.5H375c21.5 0 39-17.5 39-39V73c0-21.5-17.5-39-39-39H72.5c-21.5 0-39 17.5-39 39v302.5c-.1 21.5 17.5 39 39 39M375 4.4H72.5C34.7 4.4 3.9 35.2 3.9 73v302.5c0 37.8 30.8 68.6 68.6 68.6H375c37.8 0 68.6-30.8 68.6-68.6V73c0-37.8-30.8-68.6-68.6-68.6zM72.5 404.5c-16 0-29-13-29-29V73c0-16 13-29 29-29H375c16 0 29 13 29 29v302.5c0 16-13 29-29 29H72.5z"/><path d="m473 397.9-2.3 7.2c-4.7 14.7-12.6 28.4-23 39.6l-5.1 5.6c-.9 1-2.3 1.1-3.3.3l-5.9-4.7c-4.4-3.4-10.1-5-15.7-4.2-5.5.8-10.4 3.6-13.7 8-3.3 4.4-4.8 9.9-4 15.4l1.1 7.4c.2 1.3-.6 2.4-1.9 2.7l-7.3 1.7c-7.3 1.6-15 2.4-22.4 2.4-7.8 0-15.8-.9-23.4-2.6l-7.3-1.7c-1.3-.3-2.1-1.5-1.9-2.7l1.1-7.4c1.3-8.3-2.6-16.4-9.9-20.5-7.3-4.2-16.3-3.6-23 1.7l-6 4.6c-1 .8-2.4.7-3.3-.3l-5.1-5.6c-10.3-11.3-18.1-25-22.5-39.5l-2.2-7.1c-.4-1.2.2-2.4 1.4-2.9l6.8-2.8c7.8-3.1 12.9-10.7 12.9-19.1.1-8.3-4.9-15.8-12.5-18.9l-6.9-2.9c-1.2-.5-1.8-1.8-1.4-3l2.3-7.1c4.7-14.6 12.6-28.2 23-39.3l5-5.5c.9-1 2.3-1.1 3.3-.3l5.9 4.5c4.3 3.3 9.7 4.7 15.1 4.1 5.5-.7 10.5-3.4 13.8-7.8 3.4-4.4 4.9-9.8 4.3-15.4l-1-7.3c-.2-1.3.7-2.4 2-2.7l7.2-1.6c14.9-3.3 30.7-3.3 45.6 0l7.3 1.7c1.3.3 2.1 1.5 1.9 2.7l-1 7.4c-1.2 8.2 2.7 16.2 10 20.4 7.3 4.2 16.3 3.6 23-1.6l5.9-4.6c1-.8 2.4-.7 3.3.3l5.1 5.5c10.4 11.3 18.2 24.9 22.8 39.4l2.3 7.1c.4 1.2-.2 2.5-1.5 3l-6.9 2.8c-7.9 3.1-13 10.7-13.1 19.1-.1 8.3 5 16 12.7 19l7 2.8c1.1.1 1.8 1.4 1.4 2.7z" style="opacity:.2;fill:#2e3192"/><linearGradient id="SVGID_00000103965799950218880140000015112788934162092951_" gradientUnits="userSpaceOnUse" x1="268.1" y1="117.576" x2="453.1" y2="117.576" gradientTransform="matrix(1 0 0 -1 0 485.276)"><stop offset="0" style="stop-color:#818e70"/><stop offset="1" style="stop-color:#434a3a"/></linearGradient><path d="m466.2 395.3-2.3 7.2c-4.7 14.7-12.6 28.4-23 39.6l-5.1 5.6c-.9 1-2.3 1.1-3.3.3l-5.9-4.7c-4.4-3.4-10.1-5-15.7-4.2-5.5.8-10.4 3.6-13.7 8-3.3 4.4-4.8 9.9-4 15.4l1.1 7.4c.2 1.3-.6 2.4-1.9 2.7l-7.3 1.7c-7.3 1.6-15 2.4-22.4 2.4-7.8 0-15.8-.9-23.4-2.6l-7.3-1.7c-1.3-.3-2.1-1.5-1.9-2.7l1.1-7.4c1.3-8.3-2.6-16.4-9.9-20.5-7.3-4.2-16.3-3.6-23 1.7l-6 4.6c-1 .8-2.4.7-3.3-.3l-5.1-5.6c-10.3-11.3-18.1-25-22.5-39.5l-2.2-7.1c-.4-1.2.2-2.4 1.4-2.9l6.9-2.8c7.8-3.1 12.9-10.7 12.9-19.1.1-8.3-4.9-15.8-12.5-18.9L261 349c-1.2-.5-1.8-1.8-1.4-3l2.3-7.1c4.7-14.6 12.6-28.2 23-39.3l5-5.5c.9-1 2.3-1.1 3.3-.3l5.9 4.5c4.3 3.3 9.7 4.7 15.1 4.1 5.5-.7 10.5-3.4 13.8-7.8 3.4-4.4 4.9-9.8 4.3-15.4l-1-7.3c-.2-1.3.7-2.4 2-2.7l7.2-1.6c14.9-3.3 30.7-3.3 45.6 0l7.3 1.7c1.3.3 2.1 1.5 1.9 2.7l-1 7.4c-1.2 8.2 2.7 16.2 10 20.4 7.3 4.2 16.3 3.6 23-1.6l5.9-4.6c1-.8 2.4-.7 3.3.3l5.1 5.5c10.4 11.3 18.2 24.9 22.8 39.4l2.3 7.1c.4 1.2-.2 2.5-1.5 3l-6.9 2.8c-7.9 3.1-13 10.7-13.1 19.1-.1 8.3 5 16 12.7 19l7 2.8c1.1.2 1.7 1.6 1.3 2.7z" style="fill:#edf0f2"/><linearGradient id="SVGID_00000098214983441813231060000001110627950349475748_" gradientUnits="userSpaceOnUse" x1="393.585" y1="868.819" x2="332" y2="807.234" gradientTransform="translate(0 -467.276)"><stop offset="0" style="stop-color:#818e70"/><stop offset="1" style="stop-color:#434a3a"/></linearGradient><path style="fill:url(#SVGID_00000098214983441813231060000001110627950349475748_);stroke:#000;stroke-width:7;stroke-miterlimit:10" d="M400.6 349.1c-11.9-20.8-38.7-28-59.5-16-20.8 11.9-28 38.7-16 59.5 11.9 20.8 38.6 28 59.4 16 20.8-12.1 28-38.7 16.1-59.5zm-25.2 43.7c-12.2 7-27.8 2.8-34.8-9.4-7-12.2-2.8-27.8 9.4-34.8 12.2-7 27.8-2.8 34.8 9.4 7 12 2.9 27.6-9.1 34.6-.1.1-.2.2-.3.2z"/><radialGradient id="SVGID_00000183954342422992612910000016930574575788825761_" cx="362.746" cy="838.117" r="106.37" gradientTransform="translate(0 -467.276)" gradientUnits="userSpaceOnUse"><stop offset="0" style="stop-color:#818e70"/><stop offset="1" style="stop-color:#434a3a"/></radialGradient><path style="fill:url(#SVGID_00000183954342422992612910000016930574575788825761_)" d="M362.6 477.9c-7.8 0-15.8-.9-23.7-2.6l-10.5-2.4 1.5-10.6c1.2-7.9-2.5-15.6-9.4-19.6-2.9-1.7-6.3-2.6-9.7-2.6-4.4 0-8.7 1.5-12.2 4.2l-8.5 6.6-7.3-8c-10.6-11.7-18.2-25.2-22.8-40l-3.1-10.2 9.9-4c7.4-3 12.2-10.1 12.3-18.1.1-7.7-4.7-14.9-11.8-17.9l-9.9-4.2 3.4-10.2c4.8-14.9 12.6-28.2 23.2-39.7l7.1-7.8 8.4 6.5c3.4 2.6 7.6 4.1 11.8 4.1.8 0 1.6-.1 2.5-.2 10.8-1.3 18.6-11.2 17.2-22l-1.4-10.5 10.4-2.2c7.5-1.7 15.3-2.5 23-2.5s15.5.8 23 2.5l10.5 2.2-1.4 10.6c-1.2 7.7 2.6 15.4 9.4 19.3 3 1.7 6.4 2.6 9.8 2.6 4.3 0 8.6-1.5 12-4.1l8.4-6.5 7.3 7.8c10.4 11.2 18.4 25 23.1 39.9l3.2 10.2-9.9 4.1c-7.4 2.9-12.3 10.2-12.4 18.1-.1 7.9 4.7 15.1 12.2 18.3l10 4-3.4 10.3c-4.8 15-12.7 28.4-23.3 39.9l-7.3 8-8.4-6.7c-3.4-2.7-7.7-4.3-12.1-4.3-.9 0-1.8.1-2.7.2-5.2.7-9.9 3.4-13 7.6-3.2 4.2-4.5 9.4-3.8 14.6l1.5 10.7-10.5 2.2c-7.4 1.6-15 2.4-22.6 2.4zm-9.4-23.9c3.1.3 6.2.5 9.3.5 2.9 0 5.8-.1 8.7-.4.6-4.8 2-9.4 4.2-13.7 7.3-14.6 22.1-23.6 38.4-23.6 5.8 0 11.3 1.1 16.6 3.4 3.5-4.8 6.5-10 9-15.6-10.6-8-16.8-20.5-16.7-34 .1-13.4 6.4-25.9 17-33.9-1.1-2.6-2.5-5.2-3.9-7.8-1.5-2.6-3.1-5.2-5-7.7-4.3 1.7-8.9 2.8-13.5 3.2-1 .1-2 .1-3 .1-21.4 0-39.4-16-42.3-37-3-.3-6-.5-9-.5s-6.1.2-9.1.5c-.6 4.4-2 8.7-3.9 12.8-7.1 14.7-22.3 24.2-38.7 24.2-5.6 0-11-1.1-16.2-3.2-3.7 5.1-6.7 10.3-9.1 15.6 10.4 8.1 16.4 20.6 16.3 33.8-.1 13.4-6.4 25.9-16.9 33.9 2.5 5.6 5.4 10.8 8.8 15.5 5.2-2.1 10.8-3.3 16.4-3.3 7.5 0 14.9 2 21.5 5.7 11.9 6.6 19.5 18.3 21.1 31.5z"/><path d="M363.1 267.3c7.5 0 14.9.8 22.3 2.4l7.3 1.6-1 7.4c-1.4 9.1 3.1 18.2 11.2 22.8 3.6 2.1 7.6 3.1 11.6 3.1 5 0 10-1.6 14.2-4.9l5.9-4.5 5.1 5.5c10.3 11.1 17.8 24.3 22.3 38.6l2.3 7.1-6.9 2.8c-8.7 3.4-14.5 11.9-14.6 21.3-.1 9.3 5.6 17.8 14.3 21.5l7 2.8-2.3 7.2c-4.6 14.3-12.2 27.5-22.5 38.7l-5.1 5.6-5.9-4.7c-4.1-3.3-9.1-5-14.3-5-1.1 0-2.1.1-3.2.2-12.7 1.8-21.5 13.4-19.8 26.1l1.1 7.4-7.3 1.6c-7.2 1.6-14.6 2.3-21.9 2.3-7.7 0-15.4-.9-22.9-2.5l-7.3-1.7 1.1-7.4c1.4-9.3-3-18.4-11.2-23.1-3.6-2.1-7.5-3.1-11.4-3.1-5.1 0-10.1 1.7-14.3 4.9l-6 4.6-5.1-5.6c-10.1-11.2-17.6-24.3-22-38.7l-2.2-7.1 6.9-2.8c8.7-3.5 14.4-11.9 14.5-21.3.1-9.2-5.5-17.6-14-21.1l-6.9-2.9 2.3-7.1c4.6-14.3 12.2-27.4 22.4-38.5l5-5.5 5.9 4.5c4 3.1 8.9 4.8 13.9 4.8 1 0 1.9-.1 2.9-.2 12.7-1.6 21.8-13.2 20.3-25.9l-1-7.3 7.2-1.6c7.1-1.5 14.6-2.3 22.1-2.3m-51.7 53.6c-5.8 0-11.7-1.3-17.3-4-5 6.5-9.2 13.5-12.2 21.1 10.8 7.3 17.2 19.6 17.1 32.6-.1 13.2-6.8 25.4-17.7 32.7 3 7.5 7 14.7 12 21 5.5-2.7 11.5-4.1 17.5-4.1 6.8 0 13.6 1.8 19.7 5.3 11.4 6.6 18.8 18.4 19.5 31.6 4.1.6 8.3.9 12.5.9 4 0 8-.3 12-.8.3-5.3 1.7-10.5 4.1-15.3 6.9-13.8 20.9-21.7 35.3-21.7 6 0 12 1.4 17.7 4.2 5-6.5 9.1-13.6 12.2-21.1-11.1-7.2-17.6-19.6-17.5-32.8.1-13.2 6.8-25.4 17.8-32.7-1.5-3.7-3.2-7.3-5.2-10.8-2.1-3.6-4.4-7-6.9-10.3-4.6 2.3-9.7 3.6-14.9 4-.9.1-1.8.1-2.7.1-20.5 0-37.7-15.9-39.1-36.6-4.1-.6-8.1-.9-12.2-.9s-8.2.3-12.2.9c-.4 5-1.8 9.9-3.9 14.4-6.8 14.1-20.9 22.3-35.6 22.3m51.7-60.6c-8 0-16 .9-23.8 2.6l-7.2 1.6-6.3 1.4.9 6.4 1 7.3c1.1 8.9-5.3 17-14.2 18.1-.7.1-1.3.1-2 .1-3.5 0-6.9-1.2-9.6-3.3L296 290l-5.1-3.9-4.3 4.8-5 5.5c-10.9 11.8-18.9 25.7-23.9 41l-2.3 7.1-2 6.1 5.9 2.5 6.9 2.9c5.9 2.4 9.7 8.3 9.7 14.6-.1 6.6-4 12.5-10.1 14.9l-7 2.8-5.9 2.4 1.8 6.1 2.2 7.1c4.7 15.4 12.6 29.2 23.5 41.3l5.1 5.6 4.3 4.8 5.1-3.9 6-4.6c2.9-2.2 6.4-3.5 10-3.5 2.8 0 5.5.7 7.9 2.1 5.7 3.3 8.7 9.6 7.7 16l-1.1 7.5-.9 6.4 6.3 1.4 7.3 1.7c8.2 1.8 16.4 2.7 24.4 2.7 7.8 0 15.7-.8 23.4-2.5l7.3-1.6 6.4-1.4-.9-6.5-1.1-7.4c-1.2-8.8 5-17 13.8-18.2.7-.1 1.5-.2 2.2-.2 3.6 0 7.2 1.2 10 3.5l5.9 4.7 5.1 4.1 4.4-4.8 5.1-5.6c10.9-11.9 19-25.8 24-41.2l2.3-7.2 2-6.2-6.1-2.4-7-2.8c-6.1-2.6-10-8.5-10-15 .1-6.5 4.1-12.5 10.1-14.9l6.9-2.8 6-2.4-1.9-6.1-2.3-7.1c-4.8-15.4-13.1-29.6-23.9-41.2l-5.1-5.5-4.3-4.7-5.1 3.9-5.9 4.5c-2.8 2.2-6.4 3.4-9.9 3.4-2.8 0-5.6-.7-8-2.2-5.6-3.2-8.7-9.5-7.7-15.7v-.2l1-7.4.8-6.4-6.3-1.3-7.3-1.6c-7.4-1.9-15.4-2.7-23.3-2.7zm-6.1 30.3c2-.2 4.1-.2 6.1-.2s4 .1 6 .2c4.2 21.3 23.1 37.2 45.3 37.2 1.1 0 2.1 0 3.2-.1 4.1-.3 8.1-1.1 12-2.4 1.2 1.7 2.3 3.5 3.3 5.2 1 1.7 1.8 3.4 2.7 5-10.1 8.7-16.1 21.3-16.2 34.9-.1 13.6 5.7 26.3 15.8 35-1.8 3.6-3.7 7-6 10.3-4.9-1.7-10-2.6-15.3-2.6-17.7 0-33.6 9.8-41.6 25.6-1.9 3.8-3.3 7.8-4.1 12-1.9.1-3.8.2-5.7.2-2.1 0-4.1-.1-6.2-.2-2.4-13.1-10.5-24.6-22.3-31.3-7.1-4.1-15.1-6.2-23.2-6.2-5.1 0-10.2.9-15 2.5-2.2-3.2-4.1-6.6-5.8-10.2 10.1-8.7 16-21.3 16.1-34.9.1-13.4-5.6-26-15.5-34.8 1.7-3.5 3.7-7 6.1-10.4 4.8 1.6 9.8 2.5 14.9 2.5 17.7 0 34.1-10.3 41.8-26.2 1.6-3.6 2.9-7.3 3.6-11.1z"/></svg>