<svg version="1.1" id="Layer_2_00000107576003736148730360000001615593915677431966_" xmlns="http://www.w3.org/2000/svg" x="0" y="0" viewBox="0 0 376.6 32" style="enable-background:new 0 0 376.6 32" xml:space="preserve"><style>.st0{fill:#231f20}</style><g id="Layer_1-2"><path class="st0" d="M234.3 24.3h13.8v1.5h-15.5V3.4h15v1.5h-13.3v19.4zm-.2-10.6h12.1v1.4h-12.1v-1.4zM250.2 25.8l6.9-9v.8l-6.6-8.5h1.8l5.7 7.4h-.7l5.7-7.4h1.8l-6.6 8.5v-.9l7 9h-1.9l-6-7.9.6.1-6 7.8-1.7.1zM266.1 10.5V9.1h10v1.4h-10zm7.6 15.4c-1.5 0-2.6-.4-3.4-1.2-.8-.8-1.2-1.9-1.2-3.3v-16h1.6v15.8c0 1.1.3 1.9.8 2.5.5.6 1.3.9 2.3.9s1.9-.3 2.6-.9l.7 1.1c-.4.4-.9.7-1.5.9-.7.1-1.3.2-1.9.2zM287.7 25.9c-1.7 0-3.2-.4-4.5-1.1-1.3-.7-2.3-1.7-3-3-.7-1.3-1.1-2.7-1.1-4.4s.4-3.1 1-4.4 1.6-2.3 2.9-3c1.2-.7 2.6-1.1 4.1-1.1s2.9.4 4.1 1.1c1.2.7 2.1 1.7 2.9 3 .7 1.3 1 2.7 1 4.4v.4h-14.8v-1.2h13.9l-.6.6c0-1.3-.2-2.5-.8-3.5s-1.3-1.9-2.3-2.4c-1-.6-2.1-.9-3.3-.9s-2.3.3-3.3.9-1.7 1.4-2.3 2.4-.8 2.2-.8 3.5v.3c0 1.4.3 2.6.9 3.6.6 1.1 1.5 1.9 2.5 2.5 1.1.6 2.3.9 3.6.9 1.1 0 2.1-.2 3-.6.9-.4 1.7-1 2.4-1.8l.9 1.1c-.7.9-1.6 1.6-2.7 2-1.3.5-2.5.7-3.7.7zM307.5 9c1.4 0 2.5.3 3.6.8 1 .5 1.8 1.3 2.4 2.4.6 1.1.9 2.4.9 3.9v9.8h-1.6v-9.6c0-1.9-.5-3.3-1.4-4.3-1-1-2.3-1.5-4-1.5-1.3 0-2.4.3-3.4.8s-1.7 1.3-2.2 2.2-.8 2.1-.8 3.5v8.9h-1.6V9.1h1.5v4.6l-.2-.5c.5-1.3 1.4-2.4 2.5-3.1 1.1-.8 2.6-1.1 4.3-1.1zM324.4 25.9c-1.4 0-2.7-.2-3.9-.6-1.2-.4-2.1-.9-2.8-1.5l.7-1.3c.6.5 1.5 1 2.6 1.4 1.1.4 2.2.6 3.5.6 1.8 0 3-.3 3.8-.9s1.1-1.3 1.1-2.3c0-.7-.2-1.2-.6-1.6-.4-.4-.9-.7-1.6-.9s-1.4-.4-2.2-.5c-.8-.1-1.6-.3-2.4-.5s-1.5-.4-2.2-.7c-.7-.3-1.2-.8-1.6-1.3-.4-.6-.6-1.3-.6-2.3 0-.9.2-1.6.7-2.3s1.2-1.2 2.1-1.6 2.1-.6 3.5-.6c1 0 2.1.1 3.1.4 1.1.3 1.9.7 2.6 1.2l-.7 1.3c-.7-.5-1.5-.9-2.4-1.1s-1.8-.4-2.7-.4c-1.6 0-2.8.3-3.6.9-.8.6-1.1 1.3-1.1 2.2 0 .7.2 1.3.6 1.7s.9.7 1.6 1c.7.2 1.4.4 2.2.5.8.1 1.6.3 2.4.5s1.5.4 2.2.7c.7.3 1.2.7 1.6 1.3.4.5.6 1.3.6 2.2s-.2 1.7-.8 2.4-1.1 1.2-2.1 1.5c-1 .4-2.2.6-3.6.6zM335.6 5c-.4 0-.7-.1-.9-.4-.3-.3-.4-.6-.4-.9 0-.4.1-.7.4-.9s.6-.4.9-.4c.4 0 .7.1.9.4.2.3.4.6.4.9s-.1.7-.4.9c-.2.3-.5.4-.9.4zm-.8 20.8V9.1h1.6v16.7h-1.6zM349 25.9c-1.6 0-3-.4-4.3-1.1s-2.2-1.7-3-3c-.7-1.3-1.1-2.7-1.1-4.4s.4-3.1 1.1-4.4c.7-1.3 1.7-2.3 3-3 1.3-.7 2.7-1 4.3-1s3 .4 4.3 1.1 2.2 1.7 3 3 1.1 2.7 1.1 4.4-.4 3.1-1.1 4.4c-.7 1.3-1.7 2.3-3 3s-2.7 1-4.3 1zm0-1.4c1.3 0 2.4-.3 3.5-.9 1-.6 1.8-1.4 2.4-2.5s.9-2.3.9-3.7-.3-2.6-.9-3.7c-.6-1.1-1.4-1.9-2.4-2.5-1-.6-2.2-.9-3.5-.9s-2.4.3-3.4.9-1.8 1.4-2.4 2.5c-.6 1.1-.9 2.3-.9 3.7s.3 2.6.9 3.7 1.4 1.9 2.4 2.5c1 .6 2.1.9 3.4.9zM369.8 9c1.4 0 2.5.3 3.6.8 1 .5 1.8 1.3 2.4 2.4.6 1.1.9 2.4.9 3.9v9.8H375v-9.6c0-1.9-.5-3.3-1.4-4.3-1-1-2.3-1.5-4-1.5-1.3 0-2.4.3-3.4.8s-1.7 1.3-2.2 2.2-.8 2.1-.8 3.5v8.9h-1.6V9.1h1.5v4.6l-.2-.5c.5-1.3 1.4-2.4 2.5-3.1 1.3-.8 2.7-1.1 4.4-1.1z"/></g><path d="M1.4 25.4V3h5.2v18.2h11.2v4.2H1.4zM22 5.8c-.9 0-1.7-.3-2.3-.8-.6-.5-.9-1.2-.9-2s.3-1.5.9-2C20.3.5 21 .2 22 .2c.9 0 1.7.3 2.3.8.6.5.9 1.1.9 1.9 0 .8-.3 1.5-.9 2.1-.6.5-1.4.8-2.3.8zm-2.5 19.6V8.2h5v17.2h-5zM36.5 25.7c-1.9 0-3.5-.4-4.9-1.1-1.4-.8-2.6-1.8-3.4-3.2-.8-1.3-1.2-2.9-1.2-4.6 0-1.7.4-3.3 1.2-4.6.8-1.3 2-2.4 3.4-3.1 1.4-.8 3.1-1.2 4.9-1.2 1.8 0 3.4.4 4.8 1.1 1.4.8 2.3 1.8 2.9 3.2l-3.8 2.1c-.5-.8-1-1.4-1.7-1.8-.7-.4-1.4-.6-2.2-.6-.8 0-1.6.2-2.3.6-.7.4-1.2.9-1.6 1.6-.4.7-.6 1.6-.6 2.6s.2 1.9.6 2.6c.4.7.9 1.3 1.6 1.6.7.4 1.4.6 2.3.6.8 0 1.5-.2 2.2-.6.7-.4 1.2-1 1.7-1.8l3.8 2.1c-.6 1.4-1.6 2.4-2.9 3.2-1.4.9-3 1.3-4.8 1.3zM56.6 7.9c1.4 0 2.6.3 3.7.8s1.9 1.4 2.5 2.5c.6 1.1.9 2.6.9 4.3v9.9h-5v-9.1c0-1.4-.3-2.4-.9-3.1-.6-.7-1.5-1-2.6-1-.8 0-1.5.2-2.1.5-.6.3-1.1.8-1.5 1.5-.4.7-.5 1.5-.5 2.6v8.5h-5V1.7h5V13L50 11.5c.6-1.2 1.5-2 2.7-2.7 1.1-.6 2.4-.9 3.9-.9zM75.8 25.7c-2 0-3.7-.4-5.2-1.2-1.5-.8-2.6-1.8-3.4-3.2-.8-1.3-1.2-2.8-1.2-4.5 0-1.7.4-3.2 1.2-4.6.8-1.3 1.9-2.4 3.3-3.2 1.4-.8 3-1.1 4.7-1.1 1.7 0 3.2.4 4.6 1.1 1.4.7 2.4 1.7 3.2 3.1.8 1.3 1.2 2.9 1.2 4.8v.7c0 .2 0 .5-.1.7h-14v-2.9h11.4l-2 .9c0-.9-.1-1.7-.5-2.3s-.9-1.2-1.5-1.6-1.4-.6-2.2-.6c-.9 0-1.6.2-2.3.6-.7.4-1.2.9-1.5 1.6s-.5 1.5-.5 2.4v.6c0 1 .2 1.8.6 2.5.4.7 1 1.2 1.8 1.6s1.6.6 2.7.6c.9 0 1.7-.1 2.4-.4.7-.3 1.3-.7 1.9-1.2l2.7 2.9c-.8.9-1.8 1.6-3 2.1-1.4.3-2.7.6-4.3.6zM92.3 25.7c-1.5 0-2.9-.2-4.2-.5-1.3-.4-2.4-.8-3.2-1.3l1.6-3.6c.8.5 1.8.9 2.8 1.2 1.1.3 2.1.5 3.2.5 1.2 0 2-.1 2.4-.4s.7-.7.7-1.2c0-.4-.2-.7-.6-.9-.4-.2-.9-.4-1.5-.5-.6-.1-1.3-.2-2-.3-.7-.1-1.5-.3-2.2-.4-.7-.2-1.4-.5-2-.8-.6-.4-1.1-.8-1.5-1.5-.4-.6-.6-1.4-.6-2.4 0-1.1.3-2.1 1-2.9.6-.8 1.5-1.5 2.7-2 1.2-.5 2.6-.7 4.3-.7 1.2 0 2.4.1 3.6.4 1.2.2 2.2.6 3 1L98.2 13c-.8-.5-1.6-.8-2.5-1-.8-.2-1.6-.3-2.4-.3-1.2 0-2 .1-2.5.4-.5.3-.8.7-.8 1.2 0 .4.2.8.6 1 .4.2.9.4 1.5.5.6.1 1.3.2 2 .3.7.1 1.5.3 2.2.4.7.2 1.4.5 2 .8.6.4 1.1.8 1.5 1.5.4.6.6 1.4.6 2.4s-.3 2-1 2.8c-.6.8-1.6 1.5-2.8 1.9-1.1.5-2.6.8-4.3.8zM108.3 25.7c-1.5 0-2.9-.2-4.2-.5-1.3-.4-2.4-.8-3.2-1.3l1.6-3.6c.8.5 1.8.9 2.8 1.2 1.1.3 2.1.5 3.2.5 1.2 0 2-.1 2.4-.4s.7-.7.7-1.2c0-.4-.2-.7-.6-.9-.4-.2-.9-.4-1.5-.5-.6-.1-1.3-.2-2-.3-.7-.1-1.5-.3-2.2-.4-.7-.2-1.4-.5-2-.8-.6-.4-1.1-.8-1.5-1.5-.4-.6-.6-1.4-.6-2.4 0-1.1.3-2.1 1-2.9.6-.8 1.5-1.5 2.7-2 1.2-.5 2.6-.7 4.3-.7 1.2 0 2.4.1 3.6.4 1.2.3 2.2.6 3.1 1.1l-1.7 3.6c-.8-.5-1.6-.8-2.5-1-.8-.2-1.6-.3-2.4-.3-1.2 0-2 .1-2.5.4-.5.3-.8.7-.8 1.2 0 .4.2.8.6 1 .4.2.9.4 1.5.5.6.1 1.3.2 2 .3.7.1 1.5.3 2.2.4.7.2 1.4.5 2 .8.6.4 1.1.8 1.5 1.5.4.6.6 1.4.6 2.4s-.3 2-1 2.8c-.6.8-1.6 1.5-2.8 1.9-1.1.4-2.6.7-4.3.7zM124.1 25.4h-5.2V3h5.2v22.4zm10.5-9.2h-10.9v-4.4h10.9v4.4zM134.2 3h5.2v22.4h-5.2V3zM151.9 25.7c-2 0-3.7-.4-5.2-1.2-1.5-.8-2.6-1.8-3.4-3.2-.8-1.3-1.2-2.9-1.2-4.6 0-1.7.4-3.2 1.2-4.6.8-1.3 1.9-2.4 3.3-3.2 1.4-.8 3-1.1 4.7-1.1 1.7 0 3.2.4 4.6 1.1 1.4.7 2.4 1.7 3.2 3.1.8 1.3 1.2 2.9 1.2 4.8v.7c0 .2 0 .5-.1.7h-14v-2.9h11.4l-2 .9c0-.9-.1-1.7-.5-2.3s-.9-1.2-1.5-1.6-1.4-.6-2.2-.6c-.9 0-1.6.2-2.3.6-.7.4-1.2.9-1.5 1.6s-.5 1.5-.5 2.4v.7c0 1 .2 1.8.6 2.5.4.7 1 1.2 1.8 1.6s1.6.6 2.7.6c.9 0 1.7-.1 2.4-.4.7-.3 1.3-.7 1.9-1.2l2.7 2.9c-.8.9-1.8 1.6-3 2.1-1.3.3-2.7.6-4.3.6zM162.6 25.4V1.7h5v23.7h-5zM171.3 31.6V8.2h4.8v3.5l-.1 5.1.3 5.1v9.7h-5zm10.1-5.9c-1.4 0-2.7-.3-3.8-1-1.1-.6-1.9-1.6-2.5-2.9-.6-1.3-.9-3-.9-5s.3-3.7.9-5c.6-1.3 1.4-2.3 2.5-2.9 1.1-.6 2.4-1 3.9-1 1.6 0 3.1.4 4.4 1.1 1.3.7 2.3 1.8 3.1 3.1.8 1.3 1.1 2.9 1.1 4.7 0 1.8-.4 3.4-1.1 4.7-.8 1.3-1.8 2.3-3.1 3.1-1.3.7-2.8 1.1-4.5 1.1zm-.8-4.1c.8 0 1.6-.2 2.2-.6s1.2-.9 1.6-1.6c.4-.7.6-1.6.6-2.5 0-1-.2-1.9-.6-2.6s-.9-1.2-1.6-1.6c-.7-.4-1.4-.6-2.2-.6s-1.6.2-2.2.6c-.7.4-1.2.9-1.6 1.6-.4.7-.6 1.6-.6 2.6s.2 1.8.6 2.5c.4.7.9 1.3 1.6 1.6.6.4 1.4.6 2.2.6zM201 25.7c-2 0-3.7-.4-5.2-1.2-1.5-.8-2.6-1.8-3.4-3.2-.8-1.3-1.2-2.9-1.2-4.6 0-1.7.4-3.2 1.2-4.6.8-1.3 1.9-2.4 3.3-3.2 1.4-.8 3-1.1 4.7-1.1 1.7 0 3.2.4 4.6 1.1s2.4 1.7 3.2 3.1c.8 1.3 1.2 2.9 1.2 4.8v.7c0 .3 0 .5-.1.7h-14v-2.9h11.4l-2 .9c0-.9-.1-1.7-.5-2.3-.4-.7-.9-1.2-1.5-1.6-.6-.4-1.4-.6-2.2-.6-.9 0-1.6.2-2.3.6-.7.4-1.2.9-1.5 1.6-.4.7-.5 1.5-.5 2.4v.7c0 1 .2 1.8.6 2.5s1 1.2 1.8 1.6c.7.4 1.6.6 2.7.6.9 0 1.7-.1 2.4-.4.7-.3 1.3-.7 1.9-1.2l2.7 2.9c-.8.9-1.8 1.6-3 2.1-1.4.3-2.7.6-4.3.6zM211.7 25.4V8.2h4.8v4.9l-.7-1.4c.5-1.2 1.3-2.1 2.5-2.8 1.1-.6 2.5-.9 4.1-.9v4.6c-.2 0-.4-.1-.6-.1h-.5c-1.4 0-2.5.4-3.4 1.2-.8.8-1.2 2-1.2 3.6v8.1h-5z"/></svg>