<?xml version="1.0" encoding="utf-8"?>
<!-- Generator: Adobe Illustrator 26.4.1, SVG Export Plug-In . SVG Version: 6.00 Build 0)  -->
<svg version="1.1" id="Layer_1" xmlns="http://www.w3.org/2000/svg" xmlns:xlink="http://www.w3.org/1999/xlink" x="0px" y="0px"
	 viewBox="0 0 480.2 484.4" style="enable-background:new 0 0 480.2 484.4;" xml:space="preserve">
<style type="text/css">
	.st0{display:none;fill:#FFFFFF;stroke:url(#SVGID_1_);stroke-width:18;stroke-miterlimit:10;}
	.st1{opacity:5.000000e-02;fill:#757ABF;}
	.st2{fill:url(#SVGID_00000114768079167553431930000017007030277156567985_);}
	.st3{fill:#FFFFFF;stroke:#000000;stroke-width:10;stroke-miterlimit:10;}
	.st4{fill:#81027E;}
	.st5{fill:#880680;}
	.st6{fill:#A1107C;}
	.st7{fill:#CF3393;}
	.st8{fill:#E548A8;}
	.st9{fill:#5E6367;}
	.st10{opacity:0.93;fill:#FFFFFF;enable-background:new    ;}
	.st11{display:none;fill:#FFFFFF;stroke:#000000;stroke-width:5;stroke-miterlimit:10;}
	.st12{fill:url(#SVGID_00000068646825358527881900000009523901203907746450_);stroke:#000000;stroke-width:5;stroke-miterlimit:10;}
	.st13{opacity:8.000000e-02;}
	.st14{fill:#2E3192;}
	.st15{opacity:0.4;}
	.st16{fill:#EDF0F2;}
	
		.st17{display:none;fill:url(#SVGID_00000122706087764967388260000004582695539164048019_);stroke:#000000;stroke-width:5;stroke-miterlimit:10;}
	.st18{fill:url(#SVGID_00000100355116732680993960000016436566101484438963_);stroke:#000000;stroke-width:5;stroke-miterlimit:10;}
	.st19{fill:url(#SVGID_00000072971033752104221070000004240668568403496881_);stroke:#000000;stroke-width:5;stroke-miterlimit:10;}
</style>
<linearGradient id="SVGID_1_" gradientUnits="userSpaceOnUse" x1="136.4" y1="-219.45" x2="322.975" y2="-219.45" gradientTransform="matrix(1 0 0 -1 0 18)">
	<stop  offset="0" style="stop-color:#9A1F24"/>
	<stop  offset="0.3248" style="stop-color:#C92222"/>
	<stop  offset="1" style="stop-color:#C42B27"/>
</linearGradient>
<path class="st0" d="M145.4,141.1v192.7c0,9.9,11,15.8,19.2,10.3l143.9-96.4c7.3-4.9,7.3-15.6,0-20.5l-143.9-96.4
	C156.4,125.3,145.4,131.2,145.4,141.1z"/>
<path class="st1" d="M372.8,421.4H66c-27.2,0-49.2-22-49.2-49.2V65.4c0-27.2,22-49.2,49.2-49.2h306.8c27.2,0,49.2,22,49.2,49.2
	v306.8C422,399.3,399.9,421.4,372.8,421.4z"/>
<g>
	
		<linearGradient id="SVGID_00000144323855166291430600000010202473413881791143_" gradientUnits="userSpaceOnUse" x1="217.604" y1="426.4756" x2="217.604" y2="109.1756" gradientTransform="matrix(1 0 0 -1 0 485.2756)">
		<stop  offset="0" style="stop-color:#A92CC7"/>
		<stop  offset="1" style="stop-color:#FF77D8"/>
	</linearGradient>
	<path style="fill:url(#SVGID_00000144323855166291430600000010202473413881791143_);" d="M218,376.1c-55.1,0-83.1-7.3-103.2-14.5
		c-18.8-6.8-27.6-13.9-28.3-23.1c-0.5-6,3-10.8,3.6-11.6c0.4-0.6,2.5-3.3,7.4-7c1.8-1.4,3.9-2.8,5.7-3.8c-1.4-2.6-2.3-6.1-2.4-9.4
		c-0.2-7.2,3.1-13,3.7-14.1c0.7-1.4,5.5-10.2,14.7-17.6c2.9-2.4,7.3-5.5,12.9-9.2c-0.4-1-0.6-2.2-0.7-3.7V262c0-3.1,1.6-5.8,1.9-6.3
		l0.1-0.1l0.1-0.1c0.4-0.5,4.2-5.2,9.7-6.5c0.4-0.1,4.1-1,6.8-1h0.1c6.4-7.7,20.3-25.1,23.1-30.2c3.1-5.9,5.6-17.4,6.1-19.5V189
		c-4.2-0.3-11.7-1.4-19.3-4.4c-13-5.2-14.3-14.1-14.3-17.2c-0.5-3.6,0.5-12.6,10.7-17.2c3-1.4,6.3-2.2,9.2-2.7
		c-1.4-1.2-3-2.8-4.3-4.1l-1-1c-0.7-0.7-17.7-17.3-10.3-43.6c3.2-11.5,12.2-21.8,25.2-29.2c12.3-6.9,27.5-10.8,42.7-10.8
		c3.2,0,6.4,0.2,9.5,0.5c31.9,3.5,45.9,25.3,47.9,28.6l0.2,0.3c3.8,5.9,11.4,22,0.2,44c-3.5,6.8-8.2,11.7-12.3,15
		c3.4,0.5,7.1,1.3,10.4,2.6c5.2,2.1,9.2,6.1,11.3,11.3c0.4,0.8,0.8,2.5,0.7,6.2c-0.2,6.8-4.4,12.7-11.7,16.1
		c-6.6,3-13.3,4.3-17.2,4.9l-0.2,8.2c0,0,0.4,5.9,9.7,23.4c7.4,14,13.3,22.6,15.9,26c0.4,0,0.9,0,1.3,0c1.5,0,3,0.2,4.4,0.5h0.1
		c3.6,1,5.7,3,6.4,3.9c3.1,2.8,4.7,7.9,5,8.9c0.5,1.5,0.7,2.9,0.8,3.9c3.7,2.6,12.6,9,16.9,12.5c5.4,4.4,11.7,12,12.5,12.8
		c0.7,0.8,6,7.1,6.5,15.9c0.3,4.6-1,8.9-2,11.5l11.3,9.5l0.2,0.3c0.2,0.3,0.4,0.6,0.6,0.9c1.8,2.8,2.7,6,2.4,9.3
		c-0.3,3.1-1.1,12.6-19.9,22.9C313.9,366.7,275.9,376.1,218,376.1z"/>
	<path d="M217.9,62.4c3,0,6.1,0.2,9.1,0.5c30.4,3.3,43.8,24.4,45.3,27c0.1,0.2,0.2,0.3,0.2,0.3c3.6,5.6,10.3,20.3,0,40.5
		c-7.1,13.9-19.9,19.2-19.9,19.2s11.4,0,19.8,3.3c6.9,2.8,9.1,8.8,9.4,9.5c0,0,0.5,0.8,0.4,4.6c-0.1,4.5-2.6,9.7-9.7,13
		c-9.3,4.2-19.1,5-19.1,5l-0.3,11.2c0,0,0,0,0,0.1c0,0.6,0.5,6.9,10.1,25c9.2,17.3,16.1,26.5,17.4,28c1-0.1,1.9-0.2,2.8-0.2
		c1.2,0,2.4,0.1,3.7,0.4c3.4,0.9,4.8,2.9,4.8,2.9c2.7,2.3,4.2,7.5,4.2,7.5c1,2.9,0.5,4.6,0.5,4.6s13,9.2,18.3,13.5
		c5.2,4.2,11.6,11.9,12,12.4c0,0,5.2,5.8,5.7,13.8c0.4,6.4-2.7,12.3-2.7,12.3l0.1,0.1l12.9,10.8c0,0,0.3,0.4,0.4,0.6
		c1.5,2.2,2.1,4.7,1.9,7.2c-0.3,3.4-1.6,11.1-18.1,20.1c-16.5,8.9-56.4,17-109.1,17s-81-6.8-102-14.3c-20.3-7.3-25.5-13.9-26-20.1
		c-0.4-5,2.9-9.2,2.9-9.2s1.8-2.6,6.7-6.3c3.6-2.8,8.3-5.2,8.8-5.5c-0.6-0.1-4-4.1-4.1-10.5c-0.2-6.9,3.3-12.3,3.3-12.3
		s4.5-9.1,13.8-16.6c5.5-4.5,15-10.6,15.6-11c-0.3-0.1-2-1.2-2.1-4.7c0-2.2,1.4-4.4,1.4-4.4s3.3-4.2,7.8-5.3c0,0,3.6-0.9,6-0.9
		c1.1,0,1.7,0,1.7,0s20.8-25.1,24.5-32.1c3.7-7,6.5-20.8,6.5-20.8v-13c0,0-10.7,0-21.5-4.3c-12.6-5-12.1-13.7-12.1-14.2
		c-0.1-0.5-1.2-9.3,8.6-13.7c6.2-2.8,13.4-3.2,16.9-3.2c1.3,0,2,0.1,2,0.1s-3.2-1.2-8.1-4.9c-2.2-1.6-5.5-5.2-5.8-5.5
		c-0.1,0-0.1,0-0.1,0s-16.3-15.5-9.3-40.1C159.7,77.5,188.4,62.4,217.9,62.4 M217.9,55.4c-15.8,0-31.6,4-44.4,11.2
		c-13.8,7.8-23.4,18.9-26.8,31.3c-8.1,28.3,10.4,46.3,11.2,47.1l0.7,0.7c-1.2,0.4-2.4,0.9-3.6,1.4c-11.9,5.3-13.3,15.9-12.7,20.6
		c0.1,2.8,0.8,5.8,2.3,8.4c2.7,5.2,7.5,9.1,14.3,11.8c6.3,2.5,12.5,3.7,17.1,4.3v5.8c-0.9,4.1-3.2,13.5-5.7,18.3
		c-2.2,4.3-13.7,18.8-21.7,28.4c-2.7,0.2-5.4,0.9-6,1c-6.5,1.6-10.8,6.7-11.6,7.8l-0.2,0.3l-0.2,0.3c-0.6,0.9-2.5,4.2-2.5,8.2v0.1
		v0.1c0,0.7,0.1,1.4,0.2,2c-4.7,3.2-8.5,5.9-11.1,8.1c-9.4,7.6-14.5,16.7-15.5,18.6c-1,1.6-4.4,7.9-4.2,15.9c0,2.6,0.6,5.4,1.4,7.9
		c-1.1,0.7-2.3,1.5-3.4,2.4c-5.1,3.8-7.4,6.8-8.1,7.7c-0.9,1.2-4.8,6.8-4.2,13.9c0.9,10.8,10.3,18.8,30.6,26.1
		c13.1,4.7,25.9,7.9,40.4,10.3c18.4,3,39.3,4.4,64,4.4c48.2,0,92.3-7,112.4-17.8c20.5-11.2,21.4-22.1,21.7-25.6l0,0l0,0
		c0.3-4.1-0.7-8-2.9-11.4c-0.2-0.3-0.4-0.7-0.8-1.1l-0.5-0.6l-0.6-0.5l-9.2-7.7c0.9-2.9,1.6-6.6,1.4-10.6
		c-0.6-9.7-6.3-16.7-7.4-17.9c-1.1-1.3-7.4-8.8-12.9-13.3c-3.9-3.2-11.6-8.7-15.8-11.7c-0.1-0.9-0.4-2-0.8-3.1
		c-0.4-1.5-2.2-6.8-5.8-10.2c-1.6-1.8-4.4-3.9-8.1-4.9h-0.1h-0.1c-1.6-0.4-3.1-0.5-4.7-0.6c-2.8-3.9-8.1-12-14.5-24.1
		c-7.9-14.9-9.1-21-9.3-21.9l0.1-5c4.1-0.8,9.7-2.2,15.1-4.7l0,0l0,0c8.6-4,13.6-11,13.7-19.2c0.1-3.5-0.2-5.9-1-7.6
		c-2.5-6-7.2-10.7-13.2-13.1l0,0l0,0c-1.4-0.5-2.9-1-4.3-1.4c2.9-3.1,5.8-6.8,8.1-11.4c12-23.6,3.8-41.1-0.3-47.5l-0.2-0.3
		c-2.3-3.9-17.2-26.5-50.4-30.2C224.5,55.6,221.2,55.4,217.9,55.4L217.9,55.4z"/>
</g>
<path class="st3" d="M294.7,258.3"/>
<path class="st3" d="M141.9,254.4"/>
<path class="st3" d="M140.6,255.1"/>
<path class="st4" d="M269.4,131.1c-6.7,12.3-20.2,17.9-20.2,17.9h0.1c-1.3,0.6-16.3,7.3-38.6,7.1c-16.5-0.2-31.9-7.6-31.9-7.6
	s-0.2,0-0.5,0l0,0c-0.9-0.4-3.5-1.6-7.3-4.2c-2.1-1.5-5.2-4.7-5.4-4.9c-5.6-1.1,40.2,6,69.1-5.2c31.6-12.2,37.5-36.7,37.6-38.7
	C275.7,100.5,279.2,113.3,269.4,131.1z"/>
<path class="st5" d="M185.4,199.5c13.6,2.9,25,3.5,33.1,3.5c18.1-0.1,27-3.6,32-6c0.1,0,0.1-0.1,0.2-0.1l1.2-10.9
	c0,0,9.5-0.8,18.5-4.8c6.9-3.1,9.3-8.2,9.4-12.6c0.1-2.8-0.1-3.7-0.5-4.2c-12.4,5.8-33.4,13.6-60.5,15c-30.3,1.5-54.1-5.8-67.4-11
	l-0.2,0.1c0,0-0.9,8.7,11.7,13.7c10.5,4.2,22.4,3.9,22.4,3.9L185.4,199.5z"/>
<path class="st6" d="M145.1,254.6c6.3-0.2,12.6-0.3,18.9-0.5c1.5,0.3,3.2,0.6,5.2,0.9c11.7,2.1,30.8,3.9,51.1,3.9
	c20.9,0,39-3.2,46.7-5c2.3-0.5,4.4-1.1,6.3-1.7l0,0l15,1.7c0,0,0.8-0.1,1.9,0.3c0.8,0.3,1.8,0.8,2.7,1.8l0,0l0.1,0.1
	c0.7,0.9,1.4,2.2,2.2,4.6c1,2.8,0.5,4.5,0.5,4.5v0.3c-1.7,1-23.4,13.3-75.5,12.7c-40.6-0.4-80.4-11-80.4-11
	c-0.2-0.1-2.9-2.1-2.7-5.3c0.1-1.9,1.1-3.1,1.5-3.5c0.5-0.7,1.5-1.7,2.9-2.6C143.1,255.1,144.3,254.8,145.1,254.6z"/>
<path class="st7" d="M106.4,308c-0.1-6.5,2.9-11.6,3.3-12.2c1.4,1.3,28.5,24.8,111.1,25.3c83.9,0.6,107.6-28.2,108.2-29
	c0.7,0.8,5.1,6.3,5.6,13.7c0.4,6.3-2.7,12.3-2.7,12.3l0.4,0.4c-0.3-0.2-0.4-0.3-0.4-0.3s-36.2,26.7-118.7,26
	c-78.5-0.6-102.6-25.8-102.6-25.8s0,0-0.1,0.1C109.7,318.1,106.6,314.2,106.4,308z"/>
<path class="st8" d="M343.6,333.7c-0.3,3.5-1.6,11.4-18,20.4c-16.4,9.1-56,17.3-108.2,17.3s-80.4-6.9-101.2-14.5
	c-20.2-7.4-24.5-12.8-25-19.1c-0.4-5.2,4.4-10.4,4.4-10.4l0,0l0,0c0,0,8.8,31.4,115.8,32c102.2,0.7,128.7-32,129.9-33.6
	c0.1,0.1,0.4,0.4,0.4,0.5C343.2,328.6,343.8,331.2,343.6,333.7z"/>
<path class="st6" d="M294.3,258.5c-0.8,0.9-18.4,13.4-71.2,12.5c-53.5-0.9-79.7-11.2-82.3-12.3l7.2-1.3c-3-0.8-4.5-1.4-4.5-1.4
	s3.4-3.7,11-3.4c1.7,0.1,3.2,0.4,10.3,1.7c1.5,0.3,3.2,0.6,5.2,0.9c11.7,2,30.6,3.9,50.8,3.9c20.8,0,38.8-3.2,46.4-5
	c2.2-0.5,4.3-1.1,6.3-1.7l0,0c2.4-0.7,4.6-1.3,6.8-1.6c0.1,0.1,0.1,0.2,0.1,0.2s6.4-0.3,8.9,1.2c0.6,0.4,1.3,1,1.9,1.7
	c0.7,0.8,1.2,1.6,1.7,2.4l0,0C293.8,257.5,294.3,258.5,294.3,258.5z"/>
<path class="st9" d="M342.4,328.3L342.4,328.3c-0.1,0-0.1,0-0.1,0l-12.6-10.5c0.9,0.5,2.9,1.8,5.6,3.9
	C339,324.5,342.4,328.3,342.4,328.3z"/>
<g>
	<path class="st10" d="M199.6,84.6c-10.8,5.4-23.7,21.2-27.2,25.3c-3.5,4-5.8,4.5-7.5,3.6s-7.2-3.1-2.3-15.9
		c4.9-12.7,18-20.8,24.3-23.7c6.3-3,14.7-5,20.8-2.3C215.4,75,211.2,78.8,199.6,84.6z"/>
	<path class="st10" d="M199.9,167.6c0.3,5.9-12.7,5-20.8,4.7c-7.1-0.3-21-2.3-24.9-6.7c-0.5-0.6-0.9-1.2-1-1.9
		c-1-5.7,7.3-8.3,12.7-7.9c5.5,0.4,2.7,1.5,3.2,3.2c0.2,0.7,1,1.6,3.3,2.5C180.1,164.7,199.7,161.7,199.9,167.6z"/>
	<path class="st10" d="M290.5,253.1C290.5,253.1,290.4,253.1,290.5,253.1c-0.2,0.1-0.5,0.3-1,0.6c-4.8,2.6-26.5,13.2-68.2,11.9
		c-38.4-1.1-61.9-6.5-71.1-9.1c-2.9-0.8-4.4-1.3-4.4-1.3s3.3-3.6,10.7-3.3c1.7,0.1,3.2,0.4,10.1,1.7c1.4,0.3,3.1,0.6,5.1,0.9
		c11.4,2,29.9,3.8,49.7,3.8c20.3,0,37.9-3.1,45.4-4.8c2.2-0.5,4.2-1.1,6.2-1.6l0,0c2.3-0.7,4.5-1.3,6.6-1.6s4.2-0.3,6.2,0.2
		C289.1,251.1,290.5,253.1,290.5,253.1z"/>
	<path class="st10" d="M162.3,301.9c0,5.2-17.3,5.3-28.5,2.2c-12.2-3.4-14.4-6.9-15.2-10c-1.5-6.1,11-15.8,17.3-14.5
		c6.6,1.4,4.5,5.7,7.6,10.3C147.3,295.8,162.3,295.2,162.3,301.9z"/>
	<path class="st10" d="M153.1,351.5c-21-3-35.7-9.6-44.8-14.2c-8.5-4.3-8.6-9.5-5.7-12c4.2-3.6,8.7,0.5,11.2,1.9
		c3.9,2.2,9.9,5.4,29.2,11.3c32.9,10.1,51.5,5.8,52.4,9.6C196.8,353.6,174.5,354.6,153.1,351.5z"/>
</g>
<g>
	<path class="st11" d="M372.8,423.1H63.7c-27.5,0-49.9-22.3-49.9-49.9V64.1c0-27.5,22.3-49.9,49.9-49.9h309.1
		c27.5,0,49.9,22.3,49.9,49.9v309.1C422.7,400.8,400.3,423.1,372.8,423.1z"/>
	
		<linearGradient id="SVGID_00000148624154152011001670000001697651276007490481_" gradientUnits="userSpaceOnUse" x1="415.125" y1="-3.775" x2="21.375" y2="-397.525" gradientTransform="matrix(1 0 0 -1 0 18)">
		<stop  offset="0" style="stop-color:#0000E6"/>
		<stop  offset="1" style="stop-color:#FF7FFF"/>
	</linearGradient>
	
		<path style="fill:url(#SVGID_00000148624154152011001670000001697651276007490481_);stroke:#000000;stroke-width:5;stroke-miterlimit:10;" d="
		M372.8,433.1H63.7c-33,0-59.9-26.9-59.9-59.9V64.1c0-33,26.9-59.9,59.9-59.9h309.1c33,0,59.9,26.9,59.9,59.9v309.1
		C432.7,406.2,405.8,433.1,372.8,433.1z M63.7,24.2c-22,0-39.9,17.9-39.9,39.9v309.1c0,22,17.9,39.9,39.9,39.9h309.1
		c22,0,39.9-17.9,39.9-39.9V64.1c0-22-17.9-39.9-39.9-39.9L63.7,24.2L63.7,24.2z"/>
</g>
<g>
	<g>
		<g class="st13">
			<g>
				<g>
					<path class="st14" d="M476,399.1l-2.4,7.4c-4.8,15-12.9,29-23.5,40.5l-5.2,5.7c-0.9,1-2.4,1.1-3.4,0.3l-6-4.8
						c-4.5-3.5-10.3-5.1-16-4.3c-5.6,0.8-10.6,3.7-14,8.2s-4.9,10.1-4.1,15.7l1.1,7.6c0.2,1.3-0.6,2.5-1.9,2.8l-7.5,1.7
						c-7.5,1.6-15.3,2.5-22.9,2.5c-8,0-16.1-0.9-23.9-2.7l-7.5-1.7c-1.3-0.3-2.1-1.5-1.9-2.8l1.1-7.6c1.3-8.5-2.7-16.8-10.1-21
						c-7.5-4.3-16.7-3.7-23.5,1.7l-6.1,4.7c-1,0.8-2.5,0.7-3.4-0.3l-5.2-5.7c-10.5-11.5-18.5-25.5-23-40.4l-2.2-7.3
						c-0.4-1.2,0.2-2.5,1.4-3l7-2.9c8-3.2,13.2-10.9,13.2-19.5c0.1-8.5-5-16.1-12.8-19.3l-7.1-3c-1.2-0.5-1.8-1.8-1.4-3.1l2.4-7.3
						c4.8-14.9,12.9-28.8,23.5-40.2l5.1-5.6c0.9-1,2.3-1.1,3.4-0.3l6,4.6c4.4,3.4,9.9,4.8,15.4,4.2c5.6-0.7,10.7-3.5,14.1-8
						c3.5-4.5,5-10,4.4-15.7l-1-7.5c-0.2-1.3,0.7-2.5,2-2.8l7.4-1.6c15.2-3.4,31.4-3.4,46.6,0l7.5,1.7c1.3,0.3,2.1,1.5,1.9,2.8
						l-1,7.6c-1.2,8.4,2.8,16.6,10.2,20.8c7.5,4.3,16.7,3.7,23.5-1.6l6-4.7c1-0.8,2.5-0.7,3.4,0.3l5.2,5.6
						c10.6,11.5,18.6,25.4,23.3,40.3l2.3,7.3c0.4,1.2-0.2,2.6-1.5,3.1l-7.1,2.9c-8.1,3.2-13.3,10.9-13.4,19.5
						c-0.1,8.5,5.1,16.3,13,19.4l0,0l7.2,2.9C475.7,396.5,476.4,397.8,476,399.1z"/>
				</g>
			</g>
		</g>
	</g>
	<g class="st15">
		<g>
			<g>
				<path class="st16" d="M466,393.5l-2.4,7.4c-4.8,15-12.9,29-23.5,40.5l-5.2,5.7c-0.9,1-2.4,1.1-3.4,0.3l-6-4.8
					c-4.5-3.5-10.3-5.1-16-4.3c-5.6,0.8-10.6,3.7-14,8.2s-4.9,10.1-4.1,15.7l1.1,7.6c0.2,1.3-0.6,2.5-1.9,2.8l-7.5,1.7
					c-7.5,1.6-15.3,2.5-22.9,2.5c-8,0-16.1-0.9-23.9-2.7l-7.5-1.7c-1.3-0.3-2.1-1.5-1.9-2.8l1.1-7.6c1.3-8.5-2.7-16.8-10.1-21
					c-7.5-4.3-16.7-3.7-23.5,1.7l-6.1,4.7c-1,0.8-2.5,0.7-3.4-0.3l-5.2-5.7c-10.5-11.5-18.5-25.5-23-40.4l-2.2-7.3
					c-0.4-1.2,0.2-2.5,1.4-3l7.1-2.9c8-3.2,13.2-10.9,13.2-19.5c0.1-8.5-5-16.1-12.8-19.3l-7.1-3c-1.2-0.5-1.8-1.8-1.4-3.1l2.4-7.3
					c4.8-14.9,12.9-28.8,23.5-40.2l5.1-5.6c0.9-1,2.3-1.1,3.4-0.3l6,4.6c4.4,3.4,9.9,4.8,15.4,4.2c5.6-0.7,10.7-3.5,14.1-8
					c3.5-4.5,5-10,4.4-15.7l-1-7.5c-0.2-1.3,0.7-2.5,2-2.8l7.4-1.6c15.2-3.4,31.4-3.4,46.6,0l7.5,1.7c1.3,0.3,2.1,1.5,1.9,2.8
					l-1,7.6c-1.2,8.4,2.8,16.6,10.2,20.8c7.5,4.3,16.7,3.7,23.5-1.6l6-4.7c1-0.8,2.5-0.7,3.4,0.3l5.2,5.6
					c10.6,11.5,18.6,25.4,23.3,40.3l2.3,7.3c0.4,1.2-0.2,2.6-1.5,3.1l-7.1,2.9c-8.1,3.2-13.3,10.9-13.4,19.5
					c-0.1,8.5,5.1,16.3,13,19.4l0,0l7.2,2.9C465.8,390.9,466.4,392.3,466,393.5z"/>
			</g>
		</g>
	</g>
	<g>
		
			<linearGradient id="SVGID_00000072988377306750009650000007400262637724969099_" gradientUnits="userSpaceOnUse" x1="294.175" y1="410.725" x2="431.275" y2="547.825" gradientTransform="matrix(1 0 0 1 0 -110)">
			<stop  offset="0" style="stop-color:#4E299D"/>
			<stop  offset="1" style="stop-color:#9C6B9C"/>
		</linearGradient>
		
			<polygon style="display:none;fill:url(#SVGID_00000072988377306750009650000007400262637724969099_);stroke:#000000;stroke-width:5;stroke-miterlimit:10;" points="
			268.1,336 289.7,364.7 272.8,394.4 277.1,421.6 289.7,434.6 331,436.4 340.6,467.2 379.2,467.2 394,431.6 424.9,433.8 
			437.9,431.2 453.1,401.6 434,375.1 443.5,342.3 453.1,336 434.8,303 397.1,306.5 379.7,281.3 377.1,268.2 341.5,271.5 328,295.2 
			308.5,309.5 289.7,305.2 		"/>
		<g>
			
				<linearGradient id="SVGID_00000157274347048167068370000013525743112207180943_" gradientUnits="userSpaceOnUse" x1="328.8992" y1="-318.9028" x2="391.8336" y2="-381.8372" gradientTransform="matrix(1 0 0 -1 0 18)">
				<stop  offset="0" style="stop-color:#7500FF"/>
				<stop  offset="1" style="stop-color:#FF84FF"/>
			</linearGradient>
			
				<path style="fill:url(#SVGID_00000157274347048167068370000013525743112207180943_);stroke:#000000;stroke-width:5;stroke-miterlimit:10;" d="
				M399,346.2c-12.2-21.3-39.5-28.6-60.8-16.4s-28.6,39.5-16.4,60.8s39.4,28.6,60.7,16.4C403.8,394.7,411.2,367.5,399,346.2z
				 M373.3,390.9c-12.5,7.2-28.4,2.9-35.6-9.6s-2.9-28.4,9.6-35.6s28.4-2.9,35.6,9.6c7.2,12.3,3,28.2-9.3,35.4
				C373.5,390.8,373.4,390.9,373.3,390.9z"/>
			
				<linearGradient id="SVGID_00000142145120113836708030000005419409079660523445_" gradientUnits="userSpaceOnUse" x1="285.4" y1="-275.6001" x2="435.3" y2="-425.5" gradientTransform="matrix(1 0 0 -1 0 18)">
				<stop  offset="0" style="stop-color:#7500FF"/>
				<stop  offset="1" style="stop-color:#FF84FF"/>
			</linearGradient>
			
				<path style="fill:url(#SVGID_00000142145120113836708030000005419409079660523445_);stroke:#000000;stroke-width:5;stroke-miterlimit:10;" d="
				M441.9,368.2c0.1-9.6,6-18.3,14.9-21.8l7.1-2.9l-2.3-7.3c-4.6-14.6-12.3-28.1-22.8-39.4l-5.2-5.6l-6,4.6
				c-7.6,5.9-18,6.6-26.3,1.8c-8.2-4.7-12.8-14-11.4-23.3l1-7.6l-7.5-1.6c-15-3.3-30.5-3.3-45.5,0l-7.4,1.6l1,7.5
				c1.6,13-7.7,24.9-20.7,26.5c-6.1,0.8-12.3-0.9-17.2-4.7l-6-4.6l-5.1,5.6c-10.4,11.3-18.2,24.7-22.9,39.3l-2.4,7.3l7.1,3
				c8.7,3.6,14.4,12.2,14.3,21.6c-0.1,9.6-5.9,18.2-14.8,21.8l-7.1,2.9l2.2,7.3c4.5,14.7,12.2,28.1,22.5,39.5l5.2,5.7l6.1-4.7
				c7.6-5.9,18-6.7,26.3-1.9c8.3,4.8,12.8,14.1,11.4,23.6l-1.1,7.6l7.5,1.7c7.7,1.7,15.5,2.6,23.4,2.6c7.5,0,15-0.8,22.4-2.4
				l7.5-1.6l-1.1-7.6c-1.8-13,7.2-24.9,20.2-26.7c6.4-0.9,12.9,0.9,17.9,4.9l6,4.8l5.2-5.7c10.5-11.4,18.3-24.9,23-39.5l2.4-7.4
				l-7.2-2.9C447.6,386.4,441.8,377.7,441.9,368.2z M430.7,423.2c-19.9-10-44.2-2-54.2,17.9c-2.5,4.9-3.9,10.2-4.2,15.6
				c-8.3,1.1-16.7,1.1-25-0.1c-0.7-13.5-8.2-25.6-19.9-32.3c-11.7-6.7-25.9-7.2-38-1.2c-5.1-6.5-9.2-13.8-12.3-21.5
				c11.2-7.4,18-19.9,18.1-33.4c0.1-13.3-6.5-25.8-17.5-33.3c3.1-7.8,7.4-15,12.5-21.6c20.1,9.8,44.3,1.4,54-18.6
				c2.2-4.6,3.6-9.6,4-14.7c8.3-1.2,16.7-1.2,25,0c1.5,22.1,20.6,38.8,42.7,37.3c5.3-0.4,10.5-1.8,15.2-4.1c2.6,3.3,5,6.8,7.1,10.5
				c2,3.5,3.8,7.2,5.3,11c-11.3,7.4-18.1,19.9-18.2,33.4s6.6,26.1,17.9,33.5C440,409.3,435.8,416.6,430.7,423.2L430.7,423.2z"/>
		</g>
	</g>
</g>
</svg>
