<?xml version="1.0" encoding="utf-8"?>
<!-- Generator: Adobe Illustrator 26.4.1, SVG Export Plug-In . SVG Version: 6.00 Build 0)  -->
<svg version="1.1" id="Layer_1" xmlns="http://www.w3.org/2000/svg" xmlns:xlink="http://www.w3.org/1999/xlink" x="0px" y="0px"
	 viewBox="0 0 480.2 484.4" style="enable-background:new 0 0 480.2 484.4;" xml:space="preserve">
<style type="text/css">
	.st0{display:none;opacity:0.2;fill:#2B2B2B;stroke:#000000;stroke-miterlimit:10;enable-background:new    ;}
	.st1{fill:#FFFFFF;stroke:#000000;stroke-width:21;stroke-miterlimit:10;}
	.st2{fill:#FFFFFF;stroke:#000000;stroke-width:10;stroke-miterlimit:10;}
	.st3{fill:#474C50;}
	.st4{fill:#5E6367;}
	.st5{fill:#FFFFFE;}
	.st6{fill:#AEAEAF;}
	.st7{fill:#B0B0AF;}
	.st8{display:none;fill:#FFFFFF;stroke:#000000;stroke-width:5;stroke-miterlimit:10;}
	.st9{fill:url(#SVGID_1_);}
	.st10{opacity:0.2;fill:#2E3192;}
	
		.st11{display:none;fill:url(#SVGID_00000070077297899996199700000001932256290803485059_);stroke:#000000;stroke-width:5;stroke-miterlimit:10;}
	.st12{display:none;}
	.st13{display:inline;}
	.st14{fill:url(#SVGID_00000049220044759474708720000015240910906906631057_);stroke:#000000;stroke-width:5;stroke-miterlimit:10;}
	.st15{fill:#FFFFFF;}
	.st16{fill-rule:evenodd;clip-rule:evenodd;fill:#666666;}
	.st17{fill:#EDF0F2;}
	.st18{fill:url(#SVGID_00000169557772569182405910000007773442962425664442_);stroke:#000000;stroke-width:7;stroke-miterlimit:10;}
	.st19{fill:url(#SVGID_00000123417921952337128260000014747694315395641780_);}
</style>
<path class="st0" d="M354.8,424.5H78.3c-40.3,0-72.9-32.6-72.9-72.9v-268c0-40.3,32.7-72.9,72.9-72.9h276.5
	c40.3,0,72.9,32.7,72.9,72.9v268C427.7,391.8,395,424.5,354.8,424.5z"/>
<path class="st1" d="M189.1,205.8v-12.7c0,0-10.5,0-21-4.2c-12.3-4.9-11.8-13.4-11.8-13.9l0,0c-0.1-0.5-1.2-9.1,8.4-13.4
	c8.3-3.7,18.5-3,18.5-3s-3.1-1.2-7.9-4.8c-2.2-1.6-5.4-5.1-5.7-5.4c-0.1,0-0.1,0-0.1,0s-16-15.2-9.1-39.2
	c6.8-24.1,40.2-39.5,72-36.1c29.7,3.2,42.9,23.9,44.3,26.4c0.1,0.2,0.2,0.3,0.2,0.3c3.5,5.5,10.1,19.9,0,39.6
	C270,153,257,159,257,159s11.5-0.9,19.8,2.3c6.8,2.7,8.9,8.6,9.2,9.3l0,0c0,0,0.5,0.8,0.4,4.5c-0.1,4.4-2.5,9.5-9.5,12.7
	c-9.1,4.1-18.7,4.9-18.7,4.9l-0.3,11c0,0,0,0,0,0.1c0,0.6,0.5,6.8,9.9,24.5c9,16.9,15.8,25.9,17,27.4c2.2-0.3,4.2-0.3,6.4,0.2
	c3.3,0.9,4.7,2.8,4.7,2.8c2.6,2.3,4.1,7.3,4.1,7.3c1,2.8,0.5,4.5,0.5,4.5l0,0l0,0c0,0,12.7,9,17.9,13.2c5.1,4.1,11.4,11.6,11.7,12.1
	l0,0c0,0,5.1,5.7,5.6,13.5c0.4,6.3-2.6,12-2.6,12l0.1,0.1l0,0l12.6,10.6l0,0c0,0,0.3,0.4,0.4,0.6c1.5,2.2,2.1,4.6,1.9,7
	c-0.3,3.3-1.6,10.9-17.7,19.7c-16.1,8.7-55.2,16.6-106.8,16.6s-79.3-6.7-99.8-14c-19.9-7.1-25-13.6-25.4-19.7c-0.4-4.9,2.8-9,2.8-9
	l0,0l0,0c0,0,1.8-2.5,6.6-6.2c3.5-2.7,8.1-5.1,8.6-5.4c-0.6-0.1-3.9-4-4-10.3c-0.2-6.8,3.2-12,3.2-12s4.4-8.9,13.5-16.2
	c5.4-4.4,14.7-10.4,15.3-10.8c-0.3-0.1-2-1.2-2.1-4.6c0-2.2,1.4-4.3,1.4-4.3s3.2-4.1,7.6-5.2c0,0,3.5-0.9,5.9-0.9c1.1,0,1.7,0,1.7,0
	s20.4-24.6,24-31.4C186.4,219.3,189.1,205.8,189.1,205.8z"/>
<path class="st2" d="M298.5,263"/>
<path class="st2" d="M149,259.2"/>
<path class="st2" d="M147.7,259.9"/>
<path class="st3" d="M274.5,96.9L169,148.1c0,0,3.4,3.7,5.7,5.5c4.8,3.5,7.9,4.8,7.9,4.8l-2,5.3l-25,11.2c0,0-0.9,8.8,11.8,13.9
	c10.6,4.2,21,4.2,21,4.2v12.7c0,0,16,15.8,37.2,15.8s31.4-17.9,31.4-17.9l0.3-11c0,0,9.6-0.8,18.7-4.9c6.9-3.1,9.4-8.3,9.5-12.7
	c0.1-3.7-0.4-4.5-0.4-4.5l-29-11.6c0,0,12.9-6.1,19.9-19.7C289.3,113.4,274.5,96.9,274.5,96.9L274.5,96.9z"/>
<path class="st3" d="M215.6,249.9l-72.1,13.2c0,0-1.9,2.1-1.9,4.2c0.1,3.7,2.2,4.6,2.2,4.6L115,299c0,0-3.3,5.3-3.2,12
	c0.2,6.5,3.6,10.4,4.1,10.3l-9.4,9.6l-6,2c0,0-3.2,4-2.8,9c0.5,6.1,5.6,12.5,25.5,19.7c20.5,7.3,48.2,14,99.8,14
	s90.6-7.8,106.8-16.6c16.1-8.7,17.4-16.3,17.7-19.7c0.2-2.4-0.4-4.9-1.9-7c-0.1-0.2-0.5-0.6-0.5-0.6l-12.7-10.7c0,0,3-5.9,2.6-12
	c-0.5-7.8-5.6-13.5-5.6-13.5l-30-20.2l0.3-5.3c0,0,0.5-1.7-0.5-4.5c-0.9-2.4-1.6-3.7-2.3-4.6c-2.2-2.4-4.7-2.3-4.7-2.3L215.6,249.9
	L215.6,249.9z"/>
<path class="st4" d="M169,148.1c0,0-16-15.2-9.1-39.2c6.8-24.1,40.2-39.5,72-36.1s44.4,26.6,44.4,26.6s-0.9,28.9-35.2,43
	S169,148.1,169,148.1z"/>
<path class="st5" d="M213.4,80.3c7.5,3.3,3.4,7-7.9,12.7c-10.6,5.3-23.2,20.7-26.6,24.8c-3.4,3.9-5.7,4.4-7.3,3.5
	c-1.7-0.9-7-3-2.3-15.6c4.8-12.4,17.6-20.4,23.8-23.2C199.2,79.7,207.4,77.7,213.4,80.3L213.4,80.3z"/>
<path class="st4" d="M182.8,158.2c0,0,16,8.2,33.3,8.4c24.4,0.2,40.4-7.9,40.4-7.9s11.5-0.9,19.8,2.3c7.2,2.8,9.2,9.3,9.2,9.3
	s-13,15.3-68.5,14.2c-55.5-1.2-61.1-9.9-61.1-9.9s-1.5-9,8.4-13.4C172.6,157.5,182.8,158.2,182.8,158.2L182.8,158.2z"/>
<path class="st6" d="M172.5,162.7c-5.3-0.4-13.4,2.2-12.4,7.7c1,5.6,17.4,8.1,25.3,8.4c7.9,0.3,20.6,1.2,20.4-4.6
	c-0.2-5.8-19.4-2.8-26.9-6C171.4,165.2,180.1,163.3,172.5,162.7L172.5,162.7z"/>
<path class="st4" d="M188.6,205.4c0,0,15.6,3.4,36.7,3.4s31.9-5.6,31.9-5.6s0,5.9,9.9,24.5c10,18.6,17.1,27.7,17.1,27.7
	s6.5-0.3,9,1.2c2.4,1.6,4.9,6.3,4.9,6.3c-0.8,0.9-18.5,13.5-71.7,12.6c-56.8-1-83.1-12.4-83.1-12.4s3.3-4.3,7.1-5.3
	c4.6-1.2,7.5-0.9,7.5-0.9s17-15.9,24-31.4C189.1,210.1,188.6,205.4,188.6,205.4L188.6,205.4z"/>
<path class="st7" d="M224.2,263.5c20.9,0,39-3.2,46.8-5c7.7-1.8,13.6-4.6,19.6-3.1c3.3,0.9,4.7,2.8,4.7,2.8S273,272.6,224,271.2
	c-52.3-1.6-77.7-10.8-77.7-10.8s3.4-3.7,11.1-3.4c2.1,0.1,3.9,0.6,15.7,2.6S203.8,263.5,224.2,263.5L224.2,263.5z"/>
<path class="st4" d="M143.7,271.9c0,0,39.8,10.6,80.4,11c54.3,0.6,75.6-12.8,75.6-12.8s12.7,9,17.9,13.2s11.8,12.1,11.8,12.1
	s-22.7,29-105.9,28.4c-83.2-0.6-108.8-24.9-108.8-24.9s4.4-8.9,13.5-16.2C133.9,278.2,143.7,271.9,143.7,271.9L143.7,271.9z"/>
<path class="st7" d="M143.1,283.9c-6.2-1.3-18.4,8.2-16.9,14.2c0.8,3,2.9,6.5,14.9,9.8c11,3,27.9,2.9,27.9-2.2
	c0-6.6-14.7-6-18.4-11.7C147.5,289.5,149.6,285.3,143.1,283.9z"/>
<path class="st4" d="M115.8,321.2c0,0-4.9,2.5-8.7,5.5c-4.8,3.6-6.6,6.2-6.6,6.2s11,30.5,116.4,31.1
	c103.3,0.7,128.2-32.4,128.2-32.4s-3.3-3.7-6.9-6.5c-3.5-2.7-5.9-4.1-5.9-4.1s-35.4,26.1-116.2,25.4
	C139.4,345.8,115.8,321.2,115.8,321.2L115.8,321.2z"/>
<path class="st7" d="M110.6,329.6c-2.8,2.4-2.7,7.5,5.6,11.7c8.9,4.5,23.3,11,43.8,13.9c20.9,3,42.8,2.1,41.4-3.3
	c-0.9-3.7-19.1,0.5-51.3-9.4c-18.9-5.8-24.8-8.9-28.6-11.1C119.1,330.1,114.7,326.1,110.6,329.6z"/>
<path class="st7" d="M134.9,301.8c6.6,0,6.6-7.8,0-7.8C128.4,294,128.4,301.8,134.9,301.8z"/>
<path class="st8" d="M372.8,423.1H63.7c-27.5,0-49.9-22.3-49.9-49.9V64.1c0-27.5,22.3-49.9,49.9-49.9h309.1
	c27.5,0,49.9,22.3,49.9,49.9v309.1C422.7,400.8,400.3,423.1,372.8,423.1z"/>
<g>
	
		<linearGradient id="SVGID_1_" gradientUnits="userSpaceOnUse" x1="8.8711" y1="691.5165" x2="438.5752" y2="691.5165" gradientTransform="matrix(1 0 0 1 0 -467.2756)">
		<stop  offset="0" style="stop-color:#818E70"/>
		<stop  offset="1" style="stop-color:#434A3A"/>
	</linearGradient>
	<path class="st9" d="M72.5,439.1c-35.1,0-63.6-28.5-63.6-63.6V73c0-35.1,28.5-63.6,63.6-63.6H375c35.1,0,63.6,28.5,63.6,63.6v302.5
		c0,35.1-28.5,63.6-63.6,63.6H72.5z M72.5,39c-18.8,0-34,15.3-34,34v302.5c0,18.8,15.3,34,34,34H375c18.8,0,34-15.3,34-34V73
		c0-18.8-15.3-34-34-34H72.5z"/>
	<path d="M375,14.4c32.3,0,58.6,26.3,58.6,58.6v302.5c0,32.3-26.3,58.6-58.6,58.6H72.5c-32.3,0-58.6-26.3-58.6-58.6V73
		c0-32.3,26.3-58.6,58.6-58.6H375 M72.5,414.5H375c21.5,0,39-17.5,39-39V73c0-21.5-17.5-39-39-39H72.5c-21.5,0-39,17.5-39,39v302.5
		C33.4,397,51,414.5,72.5,414.5 M375,4.4H72.5C34.7,4.4,3.9,35.2,3.9,73v302.5c0,37.8,30.8,68.6,68.6,68.6H375
		c37.8,0,68.6-30.8,68.6-68.6V73C443.6,35.2,412.8,4.4,375,4.4L375,4.4z M72.5,404.5c-16,0-29-13-29-29V73c0-16,13-29,29-29H375
		c16,0,29,13,29,29v302.5c0,16-13,29-29,29H72.5L72.5,404.5z"/>
</g>
<path class="st10" d="M473,397.9l-2.3,7.2c-4.7,14.7-12.6,28.4-23,39.6l-5.1,5.6c-0.9,1-2.3,1.1-3.3,0.3l-5.9-4.7
	c-4.4-3.4-10.1-5-15.7-4.2c-5.5,0.8-10.4,3.6-13.7,8c-3.3,4.4-4.8,9.9-4,15.4l1.1,7.4c0.2,1.3-0.6,2.4-1.9,2.7l-7.3,1.7
	c-7.3,1.6-15,2.4-22.4,2.4c-7.8,0-15.8-0.9-23.4-2.6l-7.3-1.7c-1.3-0.3-2.1-1.5-1.9-2.7l1.1-7.4c1.3-8.3-2.6-16.4-9.9-20.5
	c-7.3-4.2-16.3-3.6-23,1.7l-6,4.6c-1,0.8-2.4,0.7-3.3-0.3l-5.1-5.6c-10.3-11.3-18.1-25-22.5-39.5l-2.2-7.1c-0.4-1.2,0.2-2.4,1.4-2.9
	l6.8-2.8c7.8-3.1,12.9-10.7,12.9-19.1c0.1-8.3-4.9-15.8-12.5-18.9l-6.9-2.9c-1.2-0.5-1.8-1.8-1.4-3l2.3-7.1
	c4.7-14.6,12.6-28.2,23-39.3l5-5.5c0.9-1,2.3-1.1,3.3-0.3l5.9,4.5c4.3,3.3,9.7,4.7,15.1,4.1c5.5-0.7,10.5-3.4,13.8-7.8
	c3.4-4.4,4.9-9.8,4.3-15.4l-1-7.3c-0.2-1.3,0.7-2.4,2-2.7l7.2-1.6c14.9-3.3,30.7-3.3,45.6,0l7.3,1.7c1.3,0.3,2.1,1.5,1.9,2.7l-1,7.4
	c-1.2,8.2,2.7,16.2,10,20.4c7.3,4.2,16.3,3.6,23-1.6l5.9-4.6c1-0.8,2.4-0.7,3.3,0.3l5.1,5.5c10.4,11.3,18.2,24.9,22.8,39.4l2.3,7.1
	c0.4,1.2-0.2,2.5-1.5,3l-6.9,2.8c-7.9,3.1-13,10.7-13.1,19.1c-0.1,8.3,5,16,12.7,19l0,0l7,2.8C472.7,395.3,473.4,396.6,473,397.9z"
	/>
<linearGradient id="SVGID_00000103965799950218880140000015112788934162092951_" gradientUnits="userSpaceOnUse" x1="268.1" y1="117.5756" x2="453.1" y2="117.5756" gradientTransform="matrix(1 0 0 -1 0 485.2756)">
	<stop  offset="0" style="stop-color:#818E70"/>
	<stop  offset="1" style="stop-color:#434A3A"/>
</linearGradient>
<polygon style="display:none;fill:url(#SVGID_00000103965799950218880140000015112788934162092951_);stroke:#000000;stroke-width:5;stroke-miterlimit:10;" points="
	268.1,336 289.7,364.7 272.8,394.4 277.1,421.6 289.7,434.6 331,436.4 340.6,467.2 379.2,467.2 394,431.6 424.9,433.8 437.9,431.2 
	453.1,401.6 434,375.1 443.5,342.3 453.1,336 434.8,303 397.1,306.5 379.7,281.3 377.1,268.2 341.5,271.5 328,295.2 308.5,309.5 
	289.7,305.2 "/>
<g class="st12">
	<g class="st13">
		<g id="Body_14_">
			<g>
				
					<linearGradient id="SVGID_00000120524511964888024470000007630569790044671152_" gradientUnits="userSpaceOnUse" x1="12.8" y1="221.5" x2="443.5" y2="221.5">
					<stop  offset="0" style="stop-color:#818E70"/>
					<stop  offset="1" style="stop-color:#434A3A"/>
				</linearGradient>
				
					<path style="fill:url(#SVGID_00000120524511964888024470000007630569790044671152_);stroke:#000000;stroke-width:5;stroke-miterlimit:10;" d="
					M416.6,9.9H39.7c-14.9,0-26.9,11.8-26.9,26.5v370.3c0,14.6,12.1,26.5,26.9,26.5h376.9c14.9,0,26.9-11.8,26.9-26.5V36.3
					C443.5,21.7,431.4,9.9,416.6,9.9z"/>
			</g>
		</g>
		<g id="Shape_32_">
			<g>
				<rect x="39.7" y="36.3" class="st15" width="376.9" height="370.3"/>
			</g>
		</g>
	</g>
	<g id="Board" class="st13">
		<g>
			<path class="st16" d="M147.4,36.3H93.6v52.9h53.8V36.3z M255.1,36.3h-53.8v52.9h53.8V36.3z M362.7,36.3h-53.8v52.9h53.8V36.3z
				 M39.7,89.2v52.9h53.8V89.2H39.7z M201.2,142.1V89.2h-53.8v52.9H201.2z M308.9,142.1V89.2h-53.8v52.9H308.9z M416.6,142.1V89.2
				h-53.8v52.9H416.6z M147.4,142.1H93.6v52.9h53.8V142.1z M255.1,195.1v-52.9h-53.8v52.9H255.1z M308.9,142.1v52.9h53.8v-52.9
				H308.9z M39.7,195.1v52.9h53.8v-52.9H39.7z M201.2,195.1h-53.8v52.9h53.8V195.1z M255.1,247.9h53.8v-52.9h-53.8V247.9z
				 M416.6,247.9v-52.9h-53.8v52.9H416.6z M147.4,247.9H93.6v52.9h53.8V247.9z M201.2,247.9v52.9h53.8v-52.9H201.2z M308.9,300.9
				h53.8v-52.9h-53.8V300.9z M39.7,300.9v52.9h53.8v-52.9H39.7z M147.4,300.9v52.9h53.8v-52.9H147.4z M255.1,300.9v52.9h53.8v-52.9
				H255.1z M416.6,353.8v-52.9h-53.8v52.9H416.6z M93.6,406.6h53.8v-52.9H93.6V406.6z M201.2,406.6h53.8v-52.9h-53.8V406.6z
				 M308.9,406.6h53.8v-52.9h-53.8V406.6z"/>
		</g>
	</g>
</g>
<path class="st17" d="M466.2,395.3l-2.3,7.2c-4.7,14.7-12.6,28.4-23,39.6l-5.1,5.6c-0.9,1-2.3,1.1-3.3,0.3l-5.9-4.7
	c-4.4-3.4-10.1-5-15.7-4.2c-5.5,0.8-10.4,3.6-13.7,8c-3.3,4.4-4.8,9.9-4,15.4l1.1,7.4c0.2,1.3-0.6,2.4-1.9,2.7l-7.3,1.7
	c-7.3,1.6-15,2.4-22.4,2.4c-7.8,0-15.8-0.9-23.4-2.6l-7.3-1.7c-1.3-0.3-2.1-1.5-1.9-2.7l1.1-7.4c1.3-8.3-2.6-16.4-9.9-20.5
	c-7.3-4.2-16.3-3.6-23,1.7l-6,4.6c-1,0.8-2.4,0.7-3.3-0.3l-5.1-5.6c-10.3-11.3-18.1-25-22.5-39.5l-2.2-7.1c-0.4-1.2,0.2-2.4,1.4-2.9
	l6.9-2.8c7.8-3.1,12.9-10.7,12.9-19.1c0.1-8.3-4.9-15.8-12.5-18.9l-6.9-2.9c-1.2-0.5-1.8-1.8-1.4-3l2.3-7.1
	c4.7-14.6,12.6-28.2,23-39.3l5-5.5c0.9-1,2.3-1.1,3.3-0.3l5.9,4.5c4.3,3.3,9.7,4.7,15.1,4.1c5.5-0.7,10.5-3.4,13.8-7.8
	c3.4-4.4,4.9-9.8,4.3-15.4l-1-7.3c-0.2-1.3,0.7-2.4,2-2.7l7.2-1.6c14.9-3.3,30.7-3.3,45.6,0l7.3,1.7c1.3,0.3,2.1,1.5,1.9,2.7l-1,7.4
	c-1.2,8.2,2.7,16.2,10,20.4c7.3,4.2,16.3,3.6,23-1.6l5.9-4.6c1-0.8,2.4-0.7,3.3,0.3l5.1,5.5c10.4,11.3,18.2,24.9,22.8,39.4l2.3,7.1
	c0.4,1.2-0.2,2.5-1.5,3l-6.9,2.8c-7.9,3.1-13,10.7-13.1,19.1c-0.1,8.3,5,16,12.7,19l0,0l7,2.8C466,392.8,466.6,394.2,466.2,395.3z"
	/>
<linearGradient id="SVGID_00000098214983441813231060000001110627950349475748_" gradientUnits="userSpaceOnUse" x1="393.5851" y1="868.8187" x2="332.0001" y2="807.2336" gradientTransform="matrix(1 0 0 1 0 -467.2756)">
	<stop  offset="0" style="stop-color:#818E70"/>
	<stop  offset="1" style="stop-color:#434A3A"/>
</linearGradient>
<path style="fill:url(#SVGID_00000098214983441813231060000001110627950349475748_);stroke:#000000;stroke-width:7;stroke-miterlimit:10;" d="
	M400.6,349.1c-11.9-20.8-38.7-28-59.5-16c-20.8,11.9-28,38.7-16,59.5c11.9,20.8,38.6,28,59.4,16
	C405.3,396.5,412.5,369.9,400.6,349.1z M375.4,392.8c-12.2,7-27.8,2.8-34.8-9.4c-7-12.2-2.8-27.8,9.4-34.8c12.2-7,27.8-2.8,34.8,9.4
	c7,12,2.9,27.6-9.1,34.6C375.6,392.7,375.5,392.8,375.4,392.8z"/>
<g>
	
		<radialGradient id="SVGID_00000183954342422992612910000016930574575788825761_" cx="362.7461" cy="838.1171" r="106.3697" gradientTransform="matrix(1 0 0 1 0 -467.2756)" gradientUnits="userSpaceOnUse">
		<stop  offset="0" style="stop-color:#818E70"/>
		<stop  offset="1" style="stop-color:#434A3A"/>
	</radialGradient>
	<path style="fill:url(#SVGID_00000183954342422992612910000016930574575788825761_);" d="M362.6,477.9c-7.8,0-15.8-0.9-23.7-2.6
		l-10.5-2.4l1.5-10.6c1.2-7.9-2.5-15.6-9.4-19.6c-2.9-1.7-6.3-2.6-9.7-2.6c-4.4,0-8.7,1.5-12.2,4.2l-8.5,6.6l-7.3-8
		c-10.6-11.7-18.2-25.2-22.8-40l-3.1-10.2l9.9-4c7.4-3,12.2-10.1,12.3-18.1c0.1-7.7-4.7-14.9-11.8-17.9l-9.9-4.2l3.4-10.2
		c4.8-14.9,12.6-28.2,23.2-39.7l7.1-7.8l8.4,6.5c3.4,2.6,7.6,4.1,11.8,4.1c0.8,0,1.6-0.1,2.5-0.2c10.8-1.3,18.6-11.2,17.2-22
		l-1.4-10.5l10.4-2.2c7.5-1.7,15.3-2.5,23-2.5s15.5,0.8,23,2.5l10.5,2.2l-1.4,10.6c-1.2,7.7,2.6,15.4,9.4,19.3
		c3,1.7,6.4,2.6,9.8,2.6c4.3,0,8.6-1.5,12-4.1l8.4-6.5l7.3,7.8c10.4,11.2,18.4,25,23.1,39.9l3.2,10.2l-9.9,4.1
		c-7.4,2.9-12.3,10.2-12.4,18.1c-0.1,7.9,4.7,15.1,12.2,18.3l10,4l-3.4,10.3c-4.8,15-12.7,28.4-23.3,39.9l-7.3,8l-8.4-6.7
		c-3.4-2.7-7.7-4.3-12.1-4.3c-0.9,0-1.8,0.1-2.7,0.2c-5.2,0.7-9.9,3.4-13,7.6c-3.2,4.2-4.5,9.4-3.8,14.6l1.5,10.7l-10.5,2.2
		C377.8,477.1,370.2,477.9,362.6,477.9z M353.2,454c3.1,0.3,6.2,0.5,9.3,0.5c2.9,0,5.8-0.1,8.7-0.4c0.6-4.8,2-9.4,4.2-13.7
		c7.3-14.6,22.1-23.6,38.4-23.6c5.8,0,11.3,1.1,16.6,3.4c3.5-4.8,6.5-10,9-15.6c-10.6-8-16.8-20.5-16.7-34
		c0.1-13.4,6.4-25.9,17-33.9c-1.1-2.6-2.5-5.2-3.9-7.8c-1.5-2.6-3.1-5.2-5-7.7c-4.3,1.7-8.9,2.8-13.5,3.2c-1,0.1-2,0.1-3,0.1
		c-21.4,0-39.4-16-42.3-37c-3-0.3-6-0.5-9-0.5c-3,0-6.1,0.2-9.1,0.5c-0.6,4.4-2,8.7-3.9,12.8c-7.1,14.7-22.3,24.2-38.7,24.2
		c-5.6,0-11-1.1-16.2-3.2c-3.7,5.1-6.7,10.3-9.1,15.6c10.4,8.1,16.4,20.6,16.3,33.8c-0.1,13.4-6.4,25.9-16.9,33.9
		c2.5,5.6,5.4,10.8,8.8,15.5c5.2-2.1,10.8-3.3,16.4-3.3c7.5,0,14.9,2,21.5,5.7C344,429.1,351.6,440.8,353.2,454z"/>
	<path d="M363.1,267.3c7.5,0,14.9,0.8,22.3,2.4l7.3,1.6l-1,7.4c-1.4,9.1,3.1,18.2,11.2,22.8c3.6,2.1,7.6,3.1,11.6,3.1
		c5,0,10-1.6,14.2-4.9l5.9-4.5l5.1,5.5c10.3,11.1,17.8,24.3,22.3,38.6l2.3,7.1l-6.9,2.8c-8.7,3.4-14.5,11.9-14.6,21.3
		c-0.1,9.3,5.6,17.8,14.3,21.5l7,2.8l-2.3,7.2c-4.6,14.3-12.2,27.5-22.5,38.7l-5.1,5.6l-5.9-4.7c-4.1-3.3-9.1-5-14.3-5
		c-1.1,0-2.1,0.1-3.2,0.2c-12.7,1.8-21.5,13.4-19.8,26.1l1.1,7.4l-7.3,1.6c-7.2,1.6-14.6,2.3-21.9,2.3c-7.7,0-15.4-0.9-22.9-2.5
		l-7.3-1.7l1.1-7.4c1.4-9.3-3-18.4-11.2-23.1c-3.6-2.1-7.5-3.1-11.4-3.1c-5.1,0-10.1,1.7-14.3,4.9l-6,4.6l-5.1-5.6
		c-10.1-11.2-17.6-24.3-22-38.7l-2.2-7.1l6.9-2.8c8.7-3.5,14.4-11.9,14.5-21.3c0.1-9.2-5.5-17.6-14-21.1l-6.9-2.9l2.3-7.1
		c4.6-14.3,12.2-27.4,22.4-38.5l5-5.5l5.9,4.5c4,3.1,8.9,4.8,13.9,4.8c1,0,1.9-0.1,2.9-0.2c12.7-1.6,21.8-13.2,20.3-25.9l-1-7.3
		l7.2-1.6C348.1,268.1,355.6,267.3,363.1,267.3 M311.4,320.9c-5.8,0-11.7-1.3-17.3-4c-5,6.5-9.2,13.5-12.2,21.1
		c10.8,7.3,17.2,19.6,17.1,32.6c-0.1,13.2-6.8,25.4-17.7,32.7c3,7.5,7,14.7,12,21c5.5-2.7,11.5-4.1,17.5-4.1
		c6.8,0,13.6,1.8,19.7,5.3c11.4,6.6,18.8,18.4,19.5,31.6c4.1,0.6,8.3,0.9,12.5,0.9c4,0,8-0.3,12-0.8c0.3-5.3,1.7-10.5,4.1-15.3
		c6.9-13.8,20.9-21.7,35.3-21.7c6,0,12,1.4,17.7,4.2c5-6.5,9.1-13.6,12.2-21.1c-11.1-7.2-17.6-19.6-17.5-32.8
		c0.1-13.2,6.8-25.4,17.8-32.7c-1.5-3.7-3.2-7.3-5.2-10.8c-2.1-3.6-4.4-7-6.9-10.3c-4.6,2.3-9.7,3.6-14.9,4
		c-0.9,0.1-1.8,0.1-2.7,0.1c-20.5,0-37.7-15.9-39.1-36.6c-4.1-0.6-8.1-0.9-12.2-0.9c-4.1,0-8.2,0.3-12.2,0.9
		c-0.4,5-1.8,9.9-3.9,14.4C340.2,312.7,326.1,320.9,311.4,320.9 M363.1,260.3c-8,0-16,0.9-23.8,2.6l-7.2,1.6l-6.3,1.4l0.9,6.4l1,7.3
		c1.1,8.9-5.3,17-14.2,18.1l0,0l0,0c-0.7,0.1-1.3,0.1-2,0.1c-3.5,0-6.9-1.2-9.6-3.3l-5.9-4.5l-5.1-3.9l-4.3,4.8l-5,5.5
		c-10.9,11.8-18.9,25.7-23.9,41l-2.3,7.1l-2,6.1l5.9,2.5l6.9,2.9l0,0l0,0c5.9,2.4,9.7,8.3,9.7,14.6c-0.1,6.6-4,12.5-10.1,14.9
		l-7,2.8l-5.9,2.4l1.8,6.1l2.2,7.1c4.7,15.4,12.6,29.2,23.5,41.3l5.1,5.6l4.3,4.8l5.1-3.9l6-4.6c2.9-2.2,6.4-3.5,10-3.5
		c2.8,0,5.5,0.7,7.9,2.1c5.7,3.3,8.7,9.6,7.7,16l-1.1,7.5l-0.9,6.4l6.3,1.4l7.3,1.7c8.2,1.8,16.4,2.7,24.4,2.7
		c7.8,0,15.7-0.8,23.4-2.5l7.3-1.6l6.4-1.4l-0.9-6.5l-1.1-7.4c-1.2-8.8,5-17,13.8-18.2c0.7-0.1,1.5-0.2,2.2-0.2
		c3.6,0,7.2,1.2,10,3.5l5.9,4.7l5.1,4.1l4.4-4.8l5.1-5.6c10.9-11.9,19-25.8,24-41.2l2.3-7.2l2-6.2l-6.1-2.4l-7-2.8
		c-6.1-2.6-10-8.5-10-15c0.1-6.5,4.1-12.5,10.1-14.9l0,0l0,0l6.9-2.8l6-2.4l-1.9-6.1l-2.3-7.1c-4.8-15.4-13.1-29.6-23.9-41.2
		l-5.1-5.5l-4.3-4.7l-5.1,3.9l-5.9,4.5c-2.8,2.2-6.4,3.4-9.9,3.4c-2.8,0-5.6-0.7-8-2.2c-5.6-3.2-8.7-9.5-7.7-15.7l0-0.1l0-0.1l1-7.4
		l0.8-6.4l-6.3-1.3l-7.3-1.6C379,261.1,371,260.3,363.1,260.3L363.1,260.3z M357,290.6c2-0.2,4.1-0.2,6.1-0.2c2,0,4,0.1,6,0.2
		c4.2,21.3,23.1,37.2,45.3,37.2c1.1,0,2.1,0,3.2-0.1l0,0l0,0c4.1-0.3,8.1-1.1,12-2.4c1.2,1.7,2.3,3.5,3.3,5.2c1,1.7,1.8,3.4,2.7,5
		c-10.1,8.7-16.1,21.3-16.2,34.9c-0.1,13.6,5.7,26.3,15.8,35c-1.8,3.6-3.7,7-6,10.3c-4.9-1.7-10-2.6-15.3-2.6
		c-17.7,0-33.6,9.8-41.6,25.6c-1.9,3.8-3.3,7.8-4.1,12c-1.9,0.1-3.8,0.2-5.7,0.2c-2.1,0-4.1-0.1-6.2-0.2
		c-2.4-13.1-10.5-24.6-22.3-31.3c-7.1-4.1-15.1-6.2-23.2-6.2c-5.1,0-10.2,0.9-15,2.5c-2.2-3.2-4.1-6.6-5.8-10.2
		c10.1-8.7,16-21.3,16.1-34.9c0.1-13.4-5.6-26-15.5-34.8c1.7-3.5,3.7-7,6.1-10.4c4.8,1.6,9.8,2.5,14.9,2.5
		c17.7,0,34.1-10.3,41.8-26.2C355,298.1,356.3,294.4,357,290.6L357,290.6z"/>
</g>
</svg>
