<?xml version="1.0" encoding="UTF-8" standalone="no"?>
<!-- Created with Inkscape (http://www.inkscape.org/) -->
<svg
   xmlns:svg="http://www.w3.org/2000/svg"
   xmlns="http://www.w3.org/2000/svg"
   version="1.0"
   width="64"
   height="64"
   viewBox="0 0 504 504"
   id="svg2">
  <path
     d="M 180.91717,459.92962 C 160.21338,458.47787 140.96995,454.45715 125.52847,448.35671 C 116.18653,444.666 104.52404,438.65693 103.50597,437.00966 C 103.18589,436.49176 107.21611,426.19992 112.46201,414.1389 C 117.7079,402.07789 122,391.68459 122,391.0427 C 122,389.78754 106.14791,353.11187 103.01481,347.11821 C 101.97455,345.1282 93.039102,333.65388 83.158254,321.61973 L 65.193076,299.73945 L 64.00872,290.11973 C 63.357324,284.82888 58.463976,245.62535 53.134612,203.00077 L 43.44486,125.50154 L 37.748646,124.79001 C 21.303394,122.73578 11.4813,108.10989 16.466872,93.099738 C 18.5858,86.720244 21.825001,82.775429 27.855397,79.230387 C 31.798999,76.912092 33.631961,76.5 40,76.5 C 46.368039,76.5 48.201001,76.912092 52.144603,79.230387 C 58.174999,82.775429 61.4142,86.720244 63.533128,93.099738 C 67.151444,103.99347 62.440062,116.17732 52.446633,121.76993 C 51.290762,122.41679 58.688312,138.4022 89.130382,201.04009 C 110.10275,244.19304 127.32264,279.58211 127.39678,279.68247 C 127.60201,279.96023 138.09834,91.882957 138.04583,88.868715 C 138.00658,86.615385 137.38228,86.081887 133.69951,85.154555 C 127.7289,83.651138 121.65079,78.963978 118.31686,73.292163 C 115.89707,69.175514 115.5,67.431729 115.5,60.92158 C 115.5,54.234742 115.85637,52.764149 118.52914,48.42158 C 128.57861,32.093754 151.42139,32.093754 161.47086,48.42158 C 164.15079,52.775787 164.5,54.225861 164.5,61 C 164.5,67.764182 164.14812,69.230613 161.48172,73.57842 C 159.68029,76.515799 156.43141,79.841627 153.42324,81.82775 L 148.38305,85.1555 L 179.93801,176.57775 C 197.29323,226.85999 211.71954,267.99972 211.99648,267.99938 C 212.34354,267.99896 245.13129,81.443028 247.37692,66.691521 C 247.44462,66.246857 245.81159,65.28707 243.74797,64.55866 C 238.23148,62.611468 233.40925,58.552564 230.2723,53.216114 C 227.90132,49.182703 227.5,47.40295 227.5,40.92158 C 227.5,34.234742 227.85637,32.764149 230.52914,28.42158 C 240.57861,12.093754 263.42139,12.093754 273.47086,28.42158 C 276.14363,32.764149 276.5,34.234742 276.5,40.92158 C 276.5,47.40295 276.09868,49.182703 273.7277,53.216114 C 270.59075,58.552564 265.76852,62.611468 260.25203,64.55866 C 258.18841,65.28707 256.55538,66.246857 256.62308,66.691521 C 258.86871,81.443028 291.65646,267.99896 292.00352,267.99938 C 292.28046,267.99972 306.70677,226.85999 324.06199,176.57775 L 355.61695,85.1555 L 350.57676,81.82775 C 347.56859,79.841627 344.31971,76.515799 342.51828,73.57842 C 339.85188,69.230613 339.5,67.764182 339.5,61 C 339.5,54.225861 339.84921,52.775787 342.52914,48.42158 C 352.57861,32.093754 375.42139,32.093754 385.47086,48.42158 C 388.14363,52.764149 388.5,54.234742 388.5,60.92158 C 388.5,67.431729 388.10293,69.175514 385.68314,73.292163 C 382.34921,78.963978 376.2711,83.651138 370.30049,85.154555 C 366.61772,86.081887 365.99342,86.615385 365.95417,88.868715 C 365.90166,91.882957 376.39799,279.96023 376.60322,279.68247 C 376.67736,279.58211 393.89725,244.19304 414.86962,201.04009 C 445.31169,138.4022 452.70924,122.41679 451.55337,121.76993 C 441.55994,116.17732 436.84856,103.99347 440.46687,93.099738 C 442.5858,86.720244 445.825,82.775429 451.8554,79.230387 C 455.799,76.912092 457.63196,76.5 464,76.5 C 470.36804,76.5 472.201,76.912092 476.1446,79.230387 C 482.175,82.775429 485.4142,86.720244 487.53313,93.099738 C 492.5187,108.10989 482.69661,122.73578 466.25135,124.79001 L 460.55514,125.50154 L 450.86539,203.00077 C 445.53602,245.62535 440.64268,284.82888 439.99128,290.11973 L 438.80692,299.73945 L 420.84175,321.61973 C 410.9609,333.65388 402.02545,345.1282 400.98519,347.11821 C 397.85209,353.11187 382,389.78754 382,391.0427 C 382,391.68459 386.2921,402.07789 391.53799,414.1389 C 396.78389,426.19992 400.81411,436.49176 400.49403,437.00966 C 398.19972,440.72193 374.15305,450.79676 358.69639,454.52162 C 336.30156,459.91848 331.82284,460.18423 259,460.43721 C 221.875,460.56618 186.73773,460.33776 180.91717,459.92962 z M 121.79966,442.60952 C 126.99236,439.93564 156.60784,430.23849 169,427.15446 C 197.6507,420.02418 219.16761,417.52883 252,417.52883 C 277.80207,417.52883 289.58408,418.4378 310.89748,422.07267 C 332.11892,425.69187 356.60402,432.55359 377.21026,440.65621 L 385.92052,444.08119 L 390.00898,441.99542 C 394.57758,439.66469 395.5051,438.1486 394.59086,434.506 C 393.77589,431.25891 388.4142,428.58401 370,422.23787 C 306.95871,400.51174 243.71829,396.32965 179.5,409.6401 C 157.43967,414.21252 126.16603,423.86794 114.76698,429.62576 C 107.3723,433.36093 106.9396,438.33867 113.69951,441.90601 C 118.30965,444.33888 118.42222,444.34866 121.79966,442.60952 z M 154.00248,391.20457 C 173.95274,382.61551 194.6101,376.75132 217,373.32091 C 233.03452,370.86422 270.86949,370.85579 287,373.30531 C 310.33802,376.84934 332.84132,383.4861 355.4091,393.48078 C 365.68268,398.03068 367.75437,398.63299 370.19918,397.78072 C 375.70506,395.86136 376.6959,389.60479 372.10567,385.74237 C 365.1866,379.92036 331.58535,367.42385 310,362.64489 C 287.37605,357.63599 277.11179,356.55896 252,356.55896 C 226.88821,356.55896 216.62395,357.63599 194,362.64489 C 172.41465,367.42385 138.8134,379.92036 131.89433,385.74237 C 127.37377,389.54617 128.10559,395.30001 133.3927,397.52307 C 135.9433,398.59552 137.0137,398.58975 139.49304,397.4902 C 141.14687,396.75676 147.67612,393.92822 154.00248,391.20457 z M 130.5036,347.99865 C 155.41459,338.66326 182.11738,332.10126 210.5,328.34017 C 228.76291,325.92008 275.23709,325.92008 293.5,328.34017 C 322.00684,332.11772 348.57695,338.66009 373.80033,348.11255 C 388.76177,353.71935 391.13188,353.80084 393.93605,348.80487 C 396.24834,344.68523 394.48783,340.9904 388.88802,338.21042 C 380.6057,334.09875 356.43256,326.15247 339.79396,322.07207 C 306.80849,313.9828 286.3299,311.52189 252,311.52189 C 236.42773,311.52189 221.17014,312.0546 215,312.81372 C 180.5561,317.05139 150.47584,324.30973 122.25662,335.19261 C 111.77743,339.23396 109,341.44963 109,345.76796 C 109,348.43427 113.12469,353 115.53343,353 C 116.42682,353 123.1634,350.74939 130.5036,347.99865 z "
     style="fill:#000000"
     id="path2161" />
</svg>
