<svg xmlns="http://www.w3.org/2000/svg" width="42" height="42" style="shape-rendering:geometricPrecision;text-rendering:geometricPrecision;image-rendering:optimizeQuality;fill-rule:evenodd;clip-rule:evenodd"><path style="opacity:1" d="M8.5-.5h12v3h-9v3h-3v-6Z"/><path style="opacity:1" fill="#444" d="M17.5 2.5v3h3v3h3v6h-3v3h-3v3h-3v-3h-3v3h-6v-6h3v-3h3v-3h3v-3h-3v-3h6Z"/><path style="opacity:1" fill="#292a29" d="M17.5 2.5h3v3h-3v-3Z"/><path style="opacity:1" fill="#050505" d="M20.5 2.5h9v3h3v3h-6v-3h-6v-3Z"/><path style="opacity:1" d="M11.5 5.5h3v3h-3v-3Z"/><path style="opacity:1" fill="#292a29" d="M20.5 5.5h6v3h3v18h-3v3h-3v3h-6v-3h3v-3h3v-18h-3v-3Z"/><path style="opacity:1" d="M11.5 8.5v3h-3v-3h3ZM14.5 8.5h3v3h-3v-3Z"/><path style="opacity:1" fill="#171817" d="M29.5 8.5h3v18h-3v-18Z"/><path style="opacity:1" d="M32.5 8.5h3v18h-3v-18ZM8.5 11.5v3h-3v-3h3ZM5.5 14.5v6h-3v-6h3ZM23.5 14.5v3h-3v-3h3ZM14.5 20.5h-3v-3h3v3ZM20.5 17.5v6h-3v-6h3Z"/><path style="opacity:1" fill="#3c3c3c" d="M20.5 17.5h3v9h-3v3h-3v3h-6v-3h3v-3h3v-3h3v-6Z"/><path style="opacity:1" d="M5.5 20.5h6v3h-6v-3ZM17.5 23.5v3h-3v-3h3ZM14.5 26.5v3h-3v-3h3Z"/><path style="opacity:1" fill="#171817" d="M29.5 26.5v6h-6v-3h3v-3h3Z"/><path style="opacity:1" d="M29.5 26.5h3v9h-24v-6h3v3h18v-6ZM8.5 35.5v3h24v-3h3v6h-30v-6h3Z"/><path style="opacity:1" fill="#3e3e3e" d="M8.5 35.5h6v3h-6v-3Z"/><path style="opacity:1" fill="#292a29" d="M14.5 35.5h9v3h-9v-3Z"/><path style="opacity:1" fill="#171817" d="M23.5 35.5h9v3h-9v-3Z"/></svg>