<svg xmlns="http://www.w3.org/2000/svg" width="42" height="42" style="shape-rendering:geometricPrecision;text-rendering:geometricPrecision;image-rendering:optimizeQuality;fill-rule:evenodd;clip-rule:evenodd"><path style="opacity:1" fill="#010101" d="M5.5-.5h9v6h3v-6h18v15h-3v3h-6v-3h-15v3h-3v-3h-3v-15Z"/><path style="opacity:1" fill="#555655" d="M11.5 8.5h-3v-6h3v6Z"/><path style="opacity:1" fill="#323332" d="M26.5 2.5v9h-6v-9h6Z"/><path style="opacity:1" fill="#232423" d="M26.5 2.5h3v9h-3v-9Z"/><path style="opacity:1" fill="#414141" d="M8.5 8.5h12v3h-12v-3Z"/><path style="opacity:1" fill="#343434" d="M26.5 17.5h-15v-3h15v3Z"/><path style="opacity:1" fill="#040404" d="M11.5 17.5h18v12h3v3h3v3h3v6h-36v-6h3v3h27v-3h-3v-3h-3v-3h-3v-9h-9v9h-3v-12Z"/><path style="opacity:1" fill="#2e2e2e" d="M23.5 38.5v-3h-3v-3h-3v-3h-3v-9h9v9h3v3h3v3h3v3h-9Z"/><path style="opacity:1" d="M11.5 29.5v3h-3v-3h3ZM8.5 32.5v3h-3v-3h3Z"/><path style="opacity:1" fill="#555655" d="M8.5 32.5h3v6h-6v-3h3v-3Z"/><path style="opacity:1" fill="#454545" d="M11.5 29.5h6v3h3v3h3v3h-12v-9Z"/></svg>