<?xml version="1.0" encoding="utf-8"?>
<!-- Generator: Adobe Illustrator 26.4.1, SVG Export Plug-In . SVG Version: 6.00 Build 0)  -->
<svg version="1.1" id="Layer_2_00000106869712020591183300000008735984416546421911_"
	 xmlns="http://www.w3.org/2000/svg" xmlns:xlink="http://www.w3.org/1999/xlink" x="0px" y="0px" viewBox="0 0 127.6 127.6"
	 style="enable-background:new 0 0 127.6 127.6;" xml:space="preserve">
<style type="text/css">
	.st0{fill:url(#SVGID_1_);stroke:#FFFFFF;stroke-width:3;stroke-linecap:round;stroke-linejoin:round;}
	.st1{fill:none;stroke:#FFFFFF;stroke-width:3;stroke-linecap:round;stroke-linejoin:round;}
</style>
<g id="Layer_1-2">
	<g id="BQ">
		
			<linearGradient id="SVGID_1_" gradientUnits="userSpaceOnUse" x1="63.7645" y1="16.3301" x2="63.7645" y2="113.4714" gradientTransform="matrix(1 0 0 -1 0 128.6846)">
			<stop  offset="0" style="stop-color:#0F0F0F"/>
			<stop  offset="1" style="stop-color:#212121"/>
		</linearGradient>
		<path class="st0" d="M100,83.9l-2.2,13.9c0,0,0,0,0,0l2.9,10.7c-0.1,0.7-0.7,1.2-1.3,1.2c0,0-15,2.7-34.2,2.7s-36.5-2.7-36.5-2.7
			c-0.7,0-1.2-0.5-1.3-1.2l3.9-10.7c0-0.2,0-0.4,0-0.5l-2.3-13.2c-0.7-2.8,0.4,1.2-0.2-0.8c-1.9-4.5-7.5-11.4-7.8-13.7
			c-0.3-2.3-0.5-2.3-0.7-4c-1.3-10-3.4-16.9-4.2-26.5c0-0.6-0.4-1.1-1-1.2c-2.2-0.5-4-2.2-4.7-4.6c-1-3.5,1.1-7.1,4.5-8
			c3.5-1,7.1,1.1,8,4.5c0.6,2.3,0,4.6-1.6,6.2c-0.4,0.4-0.5,1.1-0.2,1.6l18.8,27.8l5.9-36.4c0.1-0.6-0.3-1.1-0.8-1.4
			c-2-0.9-3.5-2.8-3.8-5.2c-0.4-3.6,2.1-6.8,5.7-7.3c3.6-0.4,6.8,2.1,7.3,5.7c0.3,2.4-0.7,4.6-2.5,6c-0.5,0.4-0.7,1-0.5,1.5
			l13.1,34.4l12.6-34.4c0.2-0.6,0-1.2-0.5-1.5c-1.8-1.4-2.8-3.6-2.5-6c0.4-3.6,3.7-6.1,7.3-5.7c3.6,0.4,6.1,3.7,5.7,7.3
			c-0.3,2.4-1.8,4.3-3.8,5.2c-0.5,0.2-0.9,0.8-0.8,1.4l4,34.7l20.2-26.2c0.3-0.5,0.2-1.2-0.2-1.6c-1.6-1.6-2.2-4-1.6-6.2
			c1-3.5,4.6-5.5,8-4.5c3.5,1,5.5,4.6,4.5,8c-0.7,2.3-2.5,4-4.7,4.6c0,0-0.5,0.4-1,1.2c-1.2,1.7-2.5,11.6-3.2,27.5
			c0,0.7-0.2,1.4-0.5,2c-2.8,5.4-7.5,14.5-7.5,14.6L100,83.9L100,83.9z"/>
		<path class="st1" d="M29.5,83.6c7.2-4.1,19.8-8.2,35.2-8.2c14.8,0.1,27,3.1,34.2,8.2"/>
		<path class="st1" d="M36,91.2c5.8-4.2,15.9-7,28.2-6.9c11.8,0.1,22,2.8,27.4,6.9"/>
		<path class="st1" d="M44.7,96.5C48.8,93.8,55.2,92,64,92c8.5,0.1,15,1.8,18.8,4.4"/>
	</g>
</g>
</svg>
