<svg xmlns="http://www.w3.org/2000/svg" version="1.0" width="64" height="64"><path d="M14.891 56.087c-3.43-8.18 1.768-17.011 8.377-21.386l1.02-.554-.605-.562c-4.415-5.308-2.994-12.318 3.048-15.437-1.11-1.827-1.467-3.68-1.057-5.805.862-3.14 3.514-4.288 6.37-4.54 2.933.12 5.213 1.634 6.229 4.54.647 2.128-.143 3.96-1.057 5.805 6.7 3.149 6.697 9.865 3.048 15.437l-.604.562c6.983 3.833 13.204 13.726 9.361 21.946-.359.142-33.79.136-34.13-.006z" style="fill:#fff;fill-opacity:1;stroke:#000;stroke-width:2;stroke-miterlimit:4;stroke-dasharray:none;stroke-opacity:1"/></svg>