<?xml version="1.0" encoding="utf-8"?>
<!-- Generator: Adobe Illustrator 26.4.1, SVG Export Plug-In . SVG Version: 6.00 Build 0)  -->
<svg version="1.1" id="Layer_1" xmlns="http://www.w3.org/2000/svg" xmlns:xlink="http://www.w3.org/1999/xlink" x="0px" y="0px"
	 viewBox="0 0 425.2 425.2" style="enable-background:new 0 0 425.2 425.2;" xml:space="preserve">
<style type="text/css">
	.st0{stroke:#E6E6E6;stroke-width:14;stroke-linecap:round;}
</style>
<g id="Layer_2_00000080180484495728998560000007491016467749172669_">
	<g id="Layer_1-2">
		<path class="st0" d="M212.6,73.5c-21.5,0-38.9,16.3-38.9,36.5c0,7.9,2.7,15.5,7.6,21.7c-19,10.2-31.9,29.3-31.9,51.3
			c0,18.5,9.1,35,23.4,45.9c-29.2,9.6-72.1,50.6-72.1,122.9h223.7c0-72.3-42.9-113.2-72.1-122.9c14.3-10.9,23.4-27.4,23.4-45.9
			c0-22-12.9-41.1-31.9-51.3c4.9-6.2,7.6-13.8,7.6-21.7C251.5,89.8,234.1,73.5,212.6,73.5z"/>
	</g>
</g>
</svg>
