<?xml version="1.0" encoding="utf-8"?>
<!-- Generator: Adobe Illustrator 26.4.1, SVG Export Plug-In . SVG Version: 6.00 Build 0)  -->
<svg version="1.1" id="Layer_1" xmlns="http://www.w3.org/2000/svg" xmlns:xlink="http://www.w3.org/1999/xlink" x="0px" y="0px"
	 viewBox="0 0 425.2 425.2" style="enable-background:new 0 0 425.2 425.2;" xml:space="preserve">
<style type="text/css">
	.st0{stroke:#E6E6E6;stroke-width:14;stroke-linecap:round;stroke-linejoin:round;}
</style>
<g id="Layer_2_00000163754222153807348300000009005091028143276967_">
	<g id="Layer_1-2">
		<path class="st0" d="M71.1,240.6c89.1-15.7,220.1-15.7,282.9,0l21-125.7l-73.4,115.3V83.4L244,224.9L212.6,67.7l-31.4,157.2
			L123.5,78.2v151.9L50.2,114.8L71.1,240.6z"/>
		<path class="st0" d="M71.1,240.6c0,21,15.7,21,26.2,41.9c10.5,15.7,10.5,10.5,5.2,36.7c-15.7,10.5-10.5,52.4-10.5,52.4
			c68.1,10.5,172.9,10.5,241,0c0,0,5.2-41.9-10.5-52.4c-5.2-26.2-5.2-21,5.2-36.7c10.5-21,26.2-21,26.2-41.9
			C265,224.9,160.2,224.9,71.1,240.6z"/>
		<path class="st0" d="M97.3,282.5c36.7-10.5,193.9-10.5,230.5,0"/>
		<path class="st0" d="M102.6,319.2c62.9-10.5,157.2-10.5,220.1,0"/>
		<path class="st0" d="M70.7,113.9c0,11.6-9.4,21-21,21s-21-9.4-21-21s9.4-21,21-21l0,0C61.3,92.9,70.7,102.3,70.7,113.9z"/>
		<path class="st0" d="M233.6,66.8c0,11.6-9.4,21-21,21s-21-9.4-21-21s9.4-21,21-21S233.6,55.2,233.6,66.8z"/>
		<path class="st0" d="M396.5,113.9c0,11.6-9.4,21-21,21s-21-9.4-21-21s9.4-21,21-21l0,0C387.1,92.9,396.5,102.3,396.5,113.9z"/>
		<path class="st0" d="M144.5,77.2c0,11.6-9.4,21-21,21s-21-9.4-21-21s9.4-21,21-21S144.5,65.6,144.5,77.2z"/>
		<path class="st0" d="M322.6,82.5c0,11.6-9.4,21-21,21s-21-9.4-21-21s9.4-21,21-21l0,0C313.2,61.5,322.6,70.9,322.6,82.5z"/>
	</g>
</g>
</svg>
