<?xml version="1.0" encoding="utf-8"?>
<!-- Generator: Adobe Illustrator 26.4.1, SVG Export Plug-In . SVG Version: 6.00 Build 0)  -->
<svg version="1.1" id="Layer_1" xmlns="http://www.w3.org/2000/svg" xmlns:xlink="http://www.w3.org/1999/xlink" x="0px" y="0px"
	 viewBox="0 0 425.2 425.2" style="enable-background:new 0 0 425.2 425.2;" xml:space="preserve">
<style type="text/css">
	.st0{fill:#E6E6E6;stroke:#000000;stroke-width:14;stroke-linecap:round;stroke-linejoin:round;}
	.st1{fill:#E6E6E6;stroke:#000000;stroke-width:13.25;stroke-linecap:round;stroke-linejoin:round;}
	.st2{stroke:#000000;stroke-width:5;stroke-linecap:round;stroke-linejoin:round;}
	.st3{stroke:#000000;stroke-width:8;stroke-linecap:round;stroke-linejoin:round;}
	.st4{fill:#E6E6E6;stroke:#000000;stroke-width:14;stroke-linecap:round;}
</style>
<g id="Layer_2_00000178192093173978172790000014792805500158777019_">
	<g id="Layer_1-2">
		<path class="st0" d="M206.5,79.2c15.3,1.5,15.6,0.1,29,4.2c83.1,25.5,129.1,106.2,124.7,295.7h-241C119.2,284.8,244,311,223,159"
			/>
		<path class="st1" d="M160.4,90.5c2.7-12.7,7.8-27.9,15-38.7c1.5-2.2,3.3-4.6,5.8-5.1c2.5-0.5,4.5,0.9,6.4,2.4
			c9.2,7.3,15.7,18.6,17.7,31.1"/>
		<path class="st0" d="M232.6,196.5c-11.8,13.1-25.3,24.6-39.6,34.8c-17.4,12.5-34.6,23.5-48.9,40.1c-4.4,5.1-9.4,9.7-14.7,13.7
			c-3.7,2.8-12.2,4.6-16.8,2.2c-3.6-1.9-9-6.6-12.1-9s-6.1-1.1-9.8-1c-7.8,0.2-7.8-0.7-13.9-6.1c-19-16.7-13-48.2,0.5-64.8
			C85.6,196,99.6,173,114,150.8c3.3-5.1,4.4-11.1,5.6-17c1.3-6.1,4.2-10.3,8.4-14.9C141.5,104,185,81,194,77.4
			c2.6-1,4.2-1.3,5.4-3.8c1.5-2.8,3.1-5.5,5-8c5.7-8,13-15.1,21.8-19.6c10.5,0.6,10.3,38.1,10.3,38.1"/>
		<path class="st0" d="M97.6,275.8c7-7.6,12.8-16.2,17.2-25.6"/>
		<path class="st2" d="M94.9,243.4c-0.2,2.9-2.6,5.1-5.5,4.9c-2.9-0.2-5.1-2.6-4.9-5.5s2.6-5.1,5.5-4.9c0,0,0,0,0,0
			C92.8,238.1,95,240.5,94.9,243.4z"/>
		<path class="st3" d="M160.6,138.1c-5.4,6.8-11.6,10.9-13.9,9.1c-2.3-1.8,0.3-8.8,5.6-15.6c5.4-6.8,11.6-10.9,13.9-9.1
			S165.9,131.3,160.6,138.1z"/>
		<path class="st4" d="M239.1,121.3c0,0-3.7-2,3.1,1.4c26.4,13.4,89.9,56.2,81.9,232.2"/>
	</g>
</g>
</svg>
