<svg version="1.1" id="Layer_1" xmlns="http://www.w3.org/2000/svg" x="0" y="0" viewBox="0 0 425.2 425.2" style="enable-background:new 0 0 425.2 425.2" xml:space="preserve"><style>.st0,.st1{stroke:#e6e6e6;stroke-width:14;stroke-linecap:round}.st1{stroke-linejoin:round}</style><g id="Layer_2_00000074427559019437783430000000412395813032462740_"><g id="Layer_1-2"><path class="st0" d="M212.9 103.6V40.9M213.6 151h-3l-13.1-5.2V89.4l-22.7-.2-7.4-7.5v-15l8.6-8.6 21.5-.2V39.6l10.1-14.1h10l11.2 14.1v18.5l21.4.5 8.6 7.8v16.2l-10.5 6.8-19.5.6v55.8l-12.2 5.2z"/><path class="st0" d="M212.9 259.5S263 176 246.3 142.6c0 0-11.1-27.8-33.4-27.8s-33.4 27.8-33.4 27.8c-16.7 33.4 33.4 116.9 33.4 116.9"/><path class="st1" d="M90.4 370.5c61.2 39 172.6 39 233.9 0v-78s100.2-50 66.8-116.9c-44.5-72.4-150.3-39-178.2 44.5h0c-39-83.5-144.8-116.9-178.2-44.5C1.4 242.5 90.4 287 90.4 287v83.5z"/><path class="st1" d="M90.4 292.5c61.2-33.4 172.6-33.4 233.9 0M90.4 331.5c61.2-33.4 172.6-33.4 233.9 0M90.4 370.5c61.2-33.4 172.6-33.4 233.9 0"/></g></g></svg>