<svg version="1.1" id="Layer_1" xmlns="http://www.w3.org/2000/svg" x="0" y="0" viewBox="0 0 425.2 425.2" style="enable-background:new 0 0 425.2 425.2" xml:space="preserve"><style>.st0{stroke:#e6e6e6;stroke-width:14;stroke-linecap:round;stroke-linejoin:round}</style><g id="Layer_2_00000072970708290293004270000000694510203514265533_"><g id="Layer_1-2"><path class="st0" d="M206.5 79.2c15.3 1.5 15.6.1 29 4.2 83.1 25.5 129.1 106.2 124.7 295.7h-241C119.2 284.8 244 311 223 159"/><path d="M160.4 90.5c2.7-12.7 7.8-27.9 15-38.7 1.5-2.2 3.3-4.6 5.8-5.1s4.5.9 6.4 2.4c9.2 7.3 15.7 18.6 17.7 31.1" style="stroke:#e6e6e6;stroke-width:13.25;stroke-linecap:round;stroke-linejoin:round"/><path class="st0" d="M232.6 196.5c-11.8 13.1-25.3 24.6-39.6 34.8-17.4 12.5-34.6 23.5-48.9 40.1-4.4 5.1-9.4 9.7-14.7 13.7-3.7 2.8-12.2 4.6-16.8 2.2-3.6-1.9-9-6.6-12.1-9s-6.1-1.1-9.8-1c-7.8.2-7.8-.7-13.9-6.1-19-16.7-13-48.2.5-64.8C85.6 196 99.6 173 114 150.8c3.3-5.1 4.4-11.1 5.6-17 1.3-6.1 4.2-10.3 8.4-14.9 13.5-14.9 57-37.9 66-41.5 2.6-1 4.2-1.3 5.4-3.8 1.5-2.8 3.1-5.5 5-8 5.7-8 13-15.1 21.8-19.6 10.5.6 10.3 38.1 10.3 38.1"/><path class="st0" d="M97.6 275.8c7-7.6 12.8-16.2 17.2-25.6"/><path d="M94.9 243.4c-.2 2.9-2.6 5.1-5.5 4.9-2.9-.2-5.1-2.6-4.9-5.5s2.6-5.1 5.5-4.9c0 0 0 0 0 0 2.8.2 5 2.6 4.9 5.5z" style="fill:#e6e6e6;stroke:#e6e6e6;stroke-width:5;stroke-linecap:round;stroke-linejoin:round"/><path d="M160.6 138.1c-5.4 6.8-11.6 10.9-13.9 9.1-2.3-1.8.3-8.8 5.6-15.6 5.4-6.8 11.6-10.9 13.9-9.1s-.3 8.8-5.6 15.6z" style="fill:#e6e6e6;stroke:#e6e6e6;stroke-width:8;stroke-linecap:round;stroke-linejoin:round"/><path d="M239.1 121.3s-3.7-2 3.1 1.4c26.4 13.4 89.9 56.2 81.9 232.2" style="stroke:#e6e6e6;stroke-width:14;stroke-linecap:round"/></g></g></svg>