<svg xmlns="http://www.w3.org/2000/svg" viewBox="0 0 425.2 425.2" style="enable-background:new 0 0 425.2 425.2" xml:space="preserve"><path d="M212.6 73.5c-21.5 0-38.9 16.3-38.9 36.5 0 7.9 2.7 15.5 7.6 21.7-19 10.2-31.9 29.3-31.9 51.3 0 18.5 9.1 35 23.4 45.9-29.2 9.6-72.1 50.6-72.1 122.9h223.7c0-72.3-42.9-113.2-72.1-122.9 14.3-10.9 23.4-27.4 23.4-45.9 0-22-12.9-41.1-31.9-51.3 4.9-6.2 7.6-13.8 7.6-21.7.1-20.2-17.3-36.5-38.8-36.5z" style="stroke:#e6e6e6;stroke-width:14;stroke-linecap:round"/></svg>