<svg version="1.1" id="Layer_1" xmlns="http://www.w3.org/2000/svg" x="0" y="0" viewBox="0 0 425.2 425.2" style="enable-background:new 0 0 425.2 425.2" xml:space="preserve"><style>.st0{fill:#e6e6e6;stroke:#000;stroke-width:14;stroke-linejoin:round}</style><g id="Layer_2_00000182500760473817008360000018179116138788142266_"><g id="Layer_1-2"><path class="st0" d="M71.1 357.7c35.5-10.2 105.9 4.5 141.5-21 35.5 25.5 105.9 10.8 141.5 21 12 4.5 22.7 11.7 31.4 21-7.1 10.2-17.3 10.4-31.4 5.2-35.5-10.2-105.9 4.8-141.5-10.5-35.5 15.3-105.9.3-141.5 10.5-14.2 5.1-24.3 4.9-31.4-5.2 14.2-20.4 31.4-21 31.4-21z"/><path class="st0" d="M134 315.7c26.2 26.2 131 26.2 157.2 0 4.8-14.3.2-33.5-8.3-45.7-4.7-6.9-10.8-12.7-17.9-17.1 57.6-15.7 62.9-120.5-52.4-162.4-115.3 41.9-110 146.7-52.4 162.4-.8-.2-3.8 2.7-4.4 3.1-3.6 2.8-7 6-10 9.5-10.9 12.7-17.2 34-11.8 50.2zM238.8 64.2c0 14.5-11.7 26.2-26.2 26.2s-26.2-11.7-26.2-26.2S198.1 38 212.6 38s26.2 11.8 26.2 26.2z"/><path d="M160.2 252.9H265m-131 41.9h157.2m-78.6-152v52.4M186.4 169h52.4" style="fill:#e6e6e6;stroke:#000;stroke-width:14;stroke-linecap:round"/></g></g></svg>