<svg version="1.1" id="Layer_1" xmlns="http://www.w3.org/2000/svg" x="0" y="0" viewBox="0 0 425.2 425.2" style="enable-background:new 0 0 425.2 425.2" xml:space="preserve"><style>.st0,.st1{fill:#e6e6e6;stroke:#000;stroke-width:14;stroke-linejoin:round}.st1{stroke-linecap:round}</style><g id="Layer_2_00000060739502867676351110000012868601765291765135_"><g id="Layer_1-2"><path class="st0" d="M71.1 240.6c89.1-15.7 220.1-15.7 282.9 0l21-125.7-73.4 115.3V83.4L244 224.9 212.6 67.7l-31.4 157.2-57.7-146.7v151.9L50.2 114.8l20.9 125.8z"/><path class="st0" d="M71.1 240.6c0 21 15.7 21 26.2 41.9 10.5 15.7 10.5 10.5 5.2 36.7C86.8 329.7 92 371.6 92 371.6c68.1 10.5 172.9 10.5 241 0 0 0 5.2-41.9-10.5-52.4-5.2-26.2-5.2-21 5.2-36.7 10.5-21 26.2-21 26.2-41.9-88.9-15.7-193.7-15.7-282.8 0z"/><path class="st1" d="M97.3 282.5c36.7-10.5 193.9-10.5 230.5 0M102.6 319.2c62.9-10.5 157.2-10.5 220.1 0M70.7 113.9c0 11.6-9.4 21-21 21s-21-9.4-21-21 9.4-21 21-21h0c11.6 0 21 9.4 21 21zM233.6 66.8c0 11.6-9.4 21-21 21s-21-9.4-21-21 9.4-21 21-21 21 9.4 21 21zM396.5 113.9c0 11.6-9.4 21-21 21s-21-9.4-21-21 9.4-21 21-21h0c11.6 0 21 9.4 21 21zM144.5 77.2c0 11.6-9.4 21-21 21s-21-9.4-21-21 9.4-21 21-21 21 9.4 21 21zM322.6 82.5c0 11.6-9.4 21-21 21s-21-9.4-21-21 9.4-21 21-21h0c11.6 0 21 9.4 21 21z"/></g></g></svg>