<svg version="1.1" id="Layer_2_00000009549383748161625330000003020068695032753794_" xmlns="http://www.w3.org/2000/svg" x="0" y="0" viewBox="0 0 127.6 127.6" style="enable-background:new 0 0 127.6 127.6" xml:space="preserve"><style>.st1,.st2,.st3,.st4{fill:url(#SVGID_00000149376026487346232780000011072203540791410305_);stroke:#fff;stroke-width:3;stroke-linecap:round;stroke-linejoin:round}.st2,.st3,.st4{fill:url(#SVGID_00000142144192042296967420000009087385245210530481_)}.st3,.st4{fill:url(#SVGID_00000041265629927297481640000005428229278703101057_)}.st4{fill:url(#SVGID_00000168836665031606060670000002593204176170842248_)}</style><g id="Layer_1-2"><g id="BB"><linearGradient id="SVGID_1_" gradientUnits="userSpaceOnUse" x1="63.779" y1="16.22" x2="63.779" y2="43.38" gradientTransform="matrix(1 0 0 -1 0 127.945)"><stop offset="0" style="stop-color:#0f0f0f"/><stop offset="1" style="stop-color:#212121"/></linearGradient><path d="M68.7 84.6c.8 7.4 3.4 9.8 5.1 10.8 2.5 1.3 3.5 1.3 16.1-.2 5.2-.6 10.9.1 21.1 6.4l-.6 10.2c-10.1-6.3-15.8-6-21.1-5.4-9.7 1.1-12 1.2-17.1.2-2-.4-5.1-1.5-8.5-4.8-.8.7-1.8 1.6-3.2 2.4 0 0-2.5 1.5-5.1 2.4-6.2 2.2-11.1.5-17.1-.2-5.2-.6-11-.9-21.1 5.4l-.6-10.2c10.1-6.3 15.8-7 21.1-6.4 12.8 1.5 13.6 1.4 16.1.2 2-.9 4.9-3.4 6.4-10.8h8.5z" style="fill:url(#SVGID_1_);stroke:#fff;stroke-width:3;stroke-linecap:round;stroke-linejoin:round"/><linearGradient id="SVGID_00000096745592337026635070000001124375789117192335_" gradientUnits="userSpaceOnUse" x1="63.775" y1="36.127" x2="63.775" y2="56.64" gradientTransform="matrix(1 0 0 -1 0 127.945)"><stop offset="0" style="stop-color:#0f0f0f"/><stop offset="1" style="stop-color:#212121"/></linearGradient><path style="fill:url(#SVGID_00000096745592337026635070000001124375789117192335_);stroke:#fff;stroke-width:3;stroke-linecap:round;stroke-linejoin:round" d="M48.3 71.5c-2.7 4.5-5.4 11.3-5.4 18.1 0 3.4 41.9 2.6 41.7-1-.4-7.3-3-13.5-5.4-17.4l-30.9.3z"/><linearGradient id="SVGID_00000088124692574383439140000002379462982729958302_" gradientUnits="userSpaceOnUse" x1="63.779" y1="50.48" x2="63.779" y2="112.11" gradientTransform="matrix(1 0 0 -1 0 127.945)"><stop offset="0" style="stop-color:#0f0f0f"/><stop offset="1" style="stop-color:#212121"/></linearGradient><path style="fill:url(#SVGID_00000088124692574383439140000002379462982729958302_);stroke:#fff;stroke-width:3;stroke-linecap:round;stroke-linejoin:round" d="M90.5 51.7c0 14.8-12 25.7-26.7 25.7S37 66.5 37 51.7c0-13.2 13.5-21.9 21.2-26.9-.7-.9-1.1-2.1-1.1-3.3 0-3.1 3.5-5.7 6.7-5.7 3.1 0 6.7 2.5 6.7 5.7 0 1.3-.4 2.4-1.1 3.3 7.6 5.1 21.1 13.1 21.1 26.9z"/><linearGradient id="SVGID_00000115498576608774069260000009622525230172232869_" gradientUnits="userSpaceOnUse" x1="63.785" y1="72.39" x2="63.785" y2="86.19" gradientTransform="matrix(1 0 0 -1 0 127.945)"><stop offset="0" style="stop-color:#0f0f0f"/><stop offset="1" style="stop-color:#212121"/></linearGradient><path style="fill:url(#SVGID_00000115498576608774069260000009622525230172232869_);stroke:#fff;stroke-width:3;stroke-linecap:round;stroke-linejoin:round" d="M63.8 41.8v13.8"/><linearGradient id="SVGID_00000042730465054972803490000003789976770564732057_" gradientUnits="userSpaceOnUse" x1="56.874" y1="79.29" x2="70.674" y2="79.29" gradientTransform="matrix(1 0 0 -1 0 127.945)"><stop offset="0" style="stop-color:#0f0f0f"/><stop offset="1" style="stop-color:#212121"/></linearGradient><path style="fill:url(#SVGID_00000042730465054972803490000003789976770564732057_);stroke:#fff;stroke-width:3;stroke-linecap:round;stroke-linejoin:round" d="M56.9 48.7h13.8"/></g></g></svg>