<svg version="1.1" id="Layer_2_00000111872773379912031420000016651082601963727755_" xmlns="http://www.w3.org/2000/svg" x="0" y="0" viewBox="0 0 127.6 127.6" style="enable-background:new 0 0 127.6 127.6" xml:space="preserve"><style>.st2{fill:#fff;stroke:#fff;stroke-miterlimit:10}</style><g id="Layer_1-2"><g id="BN"><linearGradient id="SVGID_1_" gradientUnits="userSpaceOnUse" x1="63.779" y1="17.01" x2="63.779" y2="113.71" gradientTransform="matrix(1 0 0 -1 0 129.145)"><stop offset="0" style="stop-color:#0f0f0f"/><stop offset="1" style="stop-color:#212121"/></linearGradient><path d="M38.7 112.1h71.2s1.1-16.6-4.1-35.3C102.5 65.2 95.3 43.3 75.5 32c-2.5-1.5-4.8-2.4-6.3-3-.4-2.3-1.7-6.1-4.3-10.2-1.5-2.3-2.8-3.5-3.9-3.3-2.1.4-3.2 5.6-3.1 13.5l-7.3.8c-.7-1.1-8.6-13.3-11.5-12.1-2.6 1.1.1 12.2.6 14.1 0 0-15 15.6-19.9 31.5-.9 3.3-6.1 16.2 3.6 20.6 9.7 4.5 14.3.4 14.3.4 2.5-1.3 8.7-10.2 12.1-13.2.9-.8 5.4-4.7 6.4-3.8.7.6-.8 3.5-1.2 4.3-1.3 2.7-1.8 4.1-3.2 6.2-3.4 5.2-8.6 13.8-10.4 18.7-1 3.4-2.5 8.6-2.7 15.6h0z" style="fill:url(#SVGID_1_);stroke:#fff;stroke-width:3;stroke-linecap:round;stroke-linejoin:round"/><linearGradient id="SVGID_00000031898707629723102010000016267038444184239518_" gradientUnits="userSpaceOnUse" x1="45.885" y1="81.88" x2="49.855" y2="81.88" gradientTransform="matrix(1 0 0 -1 0 129.145)"><stop offset="0" style="stop-color:#0f0f0f"/><stop offset="1" style="stop-color:#212121"/></linearGradient><circle style="fill:url(#SVGID_00000031898707629723102010000016267038444184239518_);stroke:#fff;stroke-width:1.5;stroke-linecap:round;stroke-linejoin:round" cx="47.9" cy="47.3" r="2"/><path class="st2" d="M50 43.8c-2.2.2-8 4.9-7.4 5.2.6.2 8.3-3.6 8.2-4.8 0-.3-.3-.5-.8-.4z"/><ellipse transform="rotate(-60 28.08 75.174)" class="st2" cx="28.1" cy="75.2" rx="1.7" ry=".9"/><path d="M70.1 37.3c19.6 13.3 27.7 31.8 31.1 56.8" style="fill:none;stroke:#fff;stroke-width:3;stroke-linecap:round;stroke-linejoin:round"/></g></g></svg>