<svg version="1.1" id="Layer_2_00000106869712020591183300000008735984416546421911_" xmlns="http://www.w3.org/2000/svg" x="0" y="0" viewBox="0 0 127.6 127.6" style="enable-background:new 0 0 127.6 127.6" xml:space="preserve"><style>.st1{fill:none;stroke:#fff;stroke-width:3;stroke-linecap:round;stroke-linejoin:round}</style><g id="Layer_1-2"><g id="BQ"><linearGradient id="SVGID_1_" gradientUnits="userSpaceOnUse" x1="63.764" y1="16.33" x2="63.764" y2="113.471" gradientTransform="matrix(1 0 0 -1 0 128.685)"><stop offset="0" style="stop-color:#0f0f0f"/><stop offset="1" style="stop-color:#212121"/></linearGradient><path d="m100 83.9-2.2 13.9s0 0 0 0l2.9 10.7c-.1.7-.7 1.2-1.3 1.2 0 0-15 2.7-34.2 2.7s-36.5-2.7-36.5-2.7c-.7 0-1.2-.5-1.3-1.2l3.9-10.7v-.5L29 84.1c-.7-2.8.4 1.2-.2-.8-1.9-4.5-7.5-11.4-7.8-13.7-.3-2.3-.5-2.3-.7-4-1.3-10-3.4-16.9-4.2-26.5 0-.6-.4-1.1-1-1.2-2.2-.5-4-2.2-4.7-4.6-1-3.5 1.1-7.1 4.5-8 3.5-1 7.1 1.1 8 4.5.6 2.3 0 4.6-1.6 6.2-.4.4-.5 1.1-.2 1.6l18.8 27.8L45.8 29c.1-.6-.3-1.1-.8-1.4-2-.9-3.5-2.8-3.8-5.2-.4-3.6 2.1-6.8 5.7-7.3 3.6-.4 6.8 2.1 7.3 5.7.3 2.4-.7 4.6-2.5 6-.5.4-.7 1-.5 1.5l13.1 34.4 12.6-34.4c.2-.6 0-1.2-.5-1.5-1.8-1.4-2.8-3.6-2.5-6 .4-3.6 3.7-6.1 7.3-5.7 3.6.4 6.1 3.7 5.7 7.3-.3 2.4-1.8 4.3-3.8 5.2-.5.2-.9.8-.8 1.4l4 34.7 20.2-26.2c.3-.5.2-1.2-.2-1.6-1.6-1.6-2.2-4-1.6-6.2 1-3.5 4.6-5.5 8-4.5 3.5 1 5.5 4.6 4.5 8-.7 2.3-2.5 4-4.7 4.6 0 0-.5.4-1 1.2-1.2 1.7-2.5 11.6-3.2 27.5 0 .7-.2 1.4-.5 2-2.8 5.4-7.5 14.5-7.5 14.6l-.3.8h0z" style="fill:url(#SVGID_1_);stroke:#fff;stroke-width:3;stroke-linecap:round;stroke-linejoin:round"/><path class="st1" d="M29.5 83.6c7.2-4.1 19.8-8.2 35.2-8.2 14.8.1 27 3.1 34.2 8.2M36 91.2c5.8-4.2 15.9-7 28.2-6.9 11.8.1 22 2.8 27.4 6.9M44.7 96.5C48.8 93.8 55.2 92 64 92c8.5.1 15 1.8 18.8 4.4"/></g></g></svg>