<svg version="1.1" id="Layer_2_00000114751823799952283060000013977110134982652341_" xmlns="http://www.w3.org/2000/svg" x="0" y="0" viewBox="0 0 127.6 127.6" style="enable-background:new 0 0 127.6 127.6" xml:space="preserve"><style>.st1,.st2{fill:url(#SVGID_00000147934675940179124310000013339043321177803176_);stroke:#fff;stroke-width:3;stroke-miterlimit:10}.st2{fill:url(#SVGID_00000156562328411634612820000015494948632319585428_)}</style><g id="Layer_1-2"><g id="BR"><linearGradient id="SVGID_1_" gradientUnits="userSpaceOnUse" x1="63.779" y1="18.805" x2="63.779" y2="110.305" gradientTransform="matrix(1 0 0 -1 0 128.335)"><stop offset="0" style="stop-color:#0f0f0f"/><stop offset="1" style="stop-color:#212121"/></linearGradient><path d="M104.8 96.1v13.4h-82v-13c.9-.1 3.9-.8 6.8-4.3 2.6-3.1 2.8-4.4 2.8-5.5h4.2L36.2 44l-9.1-8.6V18h19.3v12.1h6.7V18h22.7v11.8H82V18h19.2v17.6L91.9 44l.8 42.7h3.4c0 1.1.2 1.9 2.2 4.6 2.7 3.7 5.6 4.6 6.5 4.8z" style="fill:url(#SVGID_1_);stroke:#fff;stroke-width:3;stroke-linecap:round;stroke-linejoin:round"/><linearGradient id="SVGID_00000095300052018020247550000005371443270848182680_" gradientUnits="userSpaceOnUse" x1="46.109" y1="77.355" x2="81.45" y2="77.355" gradientTransform="matrix(1 0 0 -1 0 128.335)"><stop offset="0" style="stop-color:#fff"/><stop offset=".03" style="stop-color:#f5f5f6"/><stop offset="1" style="stop-color:#000"/></linearGradient><path style="fill:url(#SVGID_00000095300052018020247550000005371443270848182680_);stroke:#fff;stroke-width:3;stroke-miterlimit:10" d="M46.1 51h35.3"/><linearGradient id="SVGID_00000150075465071092944300000003094143461328864658_" gradientUnits="userSpaceOnUse" x1="46.109" y1="46.965" x2="81.45" y2="46.965" gradientTransform="matrix(1 0 0 -1 0 128.335)"><stop offset="0" style="stop-color:#fff"/><stop offset=".03" style="stop-color:#f5f5f6"/><stop offset="1" style="stop-color:#000"/></linearGradient><path style="fill:url(#SVGID_00000150075465071092944300000003094143461328864658_);stroke:#fff;stroke-width:3;stroke-miterlimit:10" d="M46.1 81.4h35.3"/></g></g></svg>