<svg version="1.1" id="Layer_2_00000151515421187084514450000014930138849934635410_" xmlns="http://www.w3.org/2000/svg" x="0" y="0" viewBox="0 0 127.6 127.6" style="enable-background:new 0 0 127.6 127.6" xml:space="preserve"><style>.st2{fill:none;stroke:#231f20;stroke-width:3;stroke-linecap:round;stroke-linejoin:round}</style><g id="Layer_1-2"><g id="BK"><linearGradient id="SVGID_1_" gradientUnits="userSpaceOnUse" x1="63.785" y1="39.115" x2="63.785" y2="116.765" gradientTransform="matrix(1 0 0 -1 0 129.255)"><stop offset="0" style="stop-color:#cfcfcf"/><stop offset=".05" style="stop-color:#d9d9d9"/><stop offset=".16" style="stop-color:#eaeaea"/><stop offset=".29" style="stop-color:#f6f6f6"/><stop offset=".48" style="stop-color:#fdfdfd"/><stop offset="1" style="stop-color:#fff"/></linearGradient><path d="M80.1 62.3c0 15.4-8.1 27.9-16.8 27.9S47.5 77.7 47.5 62.3c0-13.2 5.1-23.4 12.1-26.1V28h-7.2v-8.2h7.2v-7.2h8.2v7.2h7V28h-7v8.1c7 2.5 12.3 12.9 12.3 26.2h0z" style="fill:url(#SVGID_1_);stroke:#231f20;stroke-width:3;stroke-linecap:round;stroke-linejoin:round"/><linearGradient id="SVGID_00000044174369730461599080000017077956732788993709_" gradientUnits="userSpaceOnUse" x1="63.788" y1="14.185" x2="63.788" y2="90.53" gradientTransform="matrix(1 0 0 -1 0 129.255)"><stop offset="0" style="stop-color:#cfcfcf"/><stop offset=".05" style="stop-color:#d9d9d9"/><stop offset=".16" style="stop-color:#eaeaea"/><stop offset=".29" style="stop-color:#f6f6f6"/><stop offset=".48" style="stop-color:#fdfdfd"/><stop offset="1" style="stop-color:#fff"/></linearGradient><path style="fill:url(#SVGID_00000044174369730461599080000017077956732788993709_);stroke:#231f20;stroke-width:3;stroke-linecap:round;stroke-linejoin:round" d="M64.8 115.1c26.2-.4 31.3-7.1 31.3-7.1V88.9c1.8-.4 11.5-2.8 16.5-11.9 5.7-10.3 1.6-21.8-2.5-27.4-3-4.1-7.3-7-7.3-7-2.6-1.7-5.1-2.7-6.4-3.1-7.2-2.2-16.8.9-22.3 5.9-12.1 11-7.7 33.8-9.2 33.9-1.6.1 1.3-24.8-12-35.1-5-3.9-14.1-7-21.5-4.6-2.9.9-5.8 2.7-6.1 2.9-.6.3-5.4 3.4-8.5 7.9-4.3 6.2-6.8 17.2-1.5 26.6 5.2 9.2 14.8 11.6 16.5 11.9V108c-.1 0 6.8 6.7 33 7.1h0z"/><path class="st2" d="M32 88.5c6.7-3.8 18.3-7.6 32.5-7.5 13.6.1 24.9 2.9 31.6 7.5M38 95.5c5.3-3.8 14.6-6.4 26-6.4 10.9.1 20.3 2.6 25.3 6.4M46.1 100.4c3.8-2.5 9.6-4.1 17.8-4.1 7.8 0 13.8 1.6 17.4 4.1"/></g></g></svg>