<?xml version="1.0" encoding="UTF-8" standalone="no"?>
<svg
   xmlns:svg="http://www.w3.org/2000/svg"
   xmlns="http://www.w3.org/2000/svg"
   version="1.0"
   width="64"
   height="64"
   id="svg2274">
  <defs
     id="defs2277" />
  <path
     d="M 31.40625,8 C 26.987315,8 23.405322,11.672314 23.40625,16.21875 C 23.405849,18.18281 24.103218,19.991122 25.21875,21.40625 C 22.488467,23.72952 20.71875,27.382159 20.71875,31.125 C 20.71875,33.008773 21.143326,34.782099 21.9375,36.34375 C 16.64628,40.579951 13.109335,47.864331 15.03125,56 L 48.96875,56 C 50.984364,48.078316 47.103745,40.451499 41.5625,36.125 C 42.290036,34.616255 42.71875,32.922639 42.71875,31.125 C 42.71875,27.225949 40.769769,23.427407 37.84375,21.125 C 38.829666,19.756294 39.406625,18.053237 39.40625,16.21875 C 39.407178,11.672314 35.825185,8.0000002 31.40625,8 z"
     id="path2288"
     style="fill:#000000;fill-opacity:1" />
</svg>
