<svg id="Layer_2" data-name="Layer 2" xmlns="http://www.w3.org/2000/svg" viewBox="0 0 355.04 29.95"><defs><style>.cls-1{fill:#231f20}</style></defs><g id="Layer_1-2" data-name="Layer 1"><path class="cls-1" d="M11.97 24.06c-1.73 0-3.32-.28-4.77-.85s-2.71-1.37-3.79-2.42A10.977 10.977 0 0 1 .9 17.14c-.6-1.39-.9-2.92-.9-4.61s.3-3.22.9-4.61c.6-1.39 1.44-2.6 2.53-3.65 1.09-1.04 2.36-1.85 3.81-2.42C8.69 1.29 10.28 1 12.01 1c1.83 0 3.51.32 5.02.94 1.51.63 2.79 1.56 3.84 2.8l-2.69 2.53c-.83-.87-1.75-1.53-2.75-1.97-1-.44-2.08-.66-3.23-.66s-2.25.19-3.22.58c-.97.38-1.81.93-2.53 1.63-.71.7-1.27 1.54-1.68 2.5s-.61 2.02-.61 3.17.2 2.21.61 3.17.97 1.79 1.68 2.5c.71.7 1.56 1.25 2.53 1.63.97.38 2.04.58 3.22.58s2.23-.22 3.23-.66c1-.44 1.92-1.1 2.75-2l2.69 2.53a10.151 10.151 0 0 1-3.84 2.82c-1.52.64-3.2.96-5.06.96ZM33.5 6.43c1.39 0 2.61.27 3.66.8 1.06.53 1.9 1.35 2.53 2.46.63 1.11.94 2.53.94 4.26v9.79h-4v-9.28c0-1.51-.35-2.65-1.06-3.39-.7-.75-1.71-1.12-3.01-1.12-.94 0-1.77.19-2.5.58-.73.38-1.29.95-1.68 1.71-.4.76-.59 1.71-.59 2.86v8.64h-3.97V0h3.97v11.3l-.83-1.44c.58-1.09 1.43-1.93 2.58-2.53 1.14-.6 2.46-.9 3.95-.9ZM53.09 23.97c-1.9 0-3.56-.38-4.98-1.14-1.42-.76-2.52-1.79-3.3-3.1s-1.17-2.82-1.17-4.53.38-3.22 1.14-4.53c.76-1.31 1.8-2.35 3.14-3.1 1.33-.76 2.85-1.14 4.56-1.14s3.15.37 4.45 1.1c1.3.74 2.32 1.77 3.07 3.09.75 1.32 1.12 2.89 1.12 4.7 0 .15 0 .34-.02.56s-.03.42-.05.59H46.81v-2.66h12.13l-1.6.83c.02-.96-.18-1.82-.59-2.58-.42-.76-.99-1.34-1.71-1.76-.73-.42-1.58-.62-2.56-.62s-1.82.21-2.58.62c-.76.42-1.34 1.01-1.74 1.78-.41.77-.61 1.65-.61 2.66v.64c0 1.02.23 1.93.69 2.72.46.79 1.11 1.4 1.97 1.84.85.44 1.85.66 2.98.66.96 0 1.82-.16 2.59-.48.77-.32 1.45-.79 2.05-1.41l2.18 2.5c-.79.9-1.77 1.58-2.93 2.05-1.16.47-2.49.7-3.98.7ZM69.6 23.97c-1.45 0-2.83-.19-4.13-.56-1.3-.37-2.35-.83-3.14-1.36l1.54-3.04c.77.49 1.69.89 2.75 1.2 1.07.31 2.14.46 3.23.46 1.24 0 2.14-.17 2.7-.5.56-.33.85-.78.85-1.36 0-.47-.19-.83-.58-1.07-.38-.25-.89-.43-1.5-.56-.62-.13-1.31-.25-2.06-.35-.76-.11-1.52-.25-2.27-.43-.76-.18-1.45-.45-2.06-.8-.62-.35-1.12-.83-1.5-1.42-.38-.6-.58-1.4-.58-2.4 0-1.07.31-2 .93-2.8.62-.8 1.49-1.42 2.61-1.87 1.12-.45 2.45-.67 3.98-.67 1.13 0 2.29.13 3.47.4 1.18.27 2.17.64 2.96 1.1l-1.57 3.04A8.38 8.38 0 0 0 72.8 10c-.83-.18-1.65-.27-2.46-.27-1.19 0-2.09.18-2.69.53-.6.35-.9.81-.9 1.36 0 .51.19.9.58 1.15.38.26.88.45 1.5.59.62.14 1.31.27 2.06.38.76.12 1.51.27 2.26.45s1.43.44 2.06.77c.63.33 1.14.8 1.52 1.39.38.6.58 1.38.58 2.34 0 1.09-.31 2.02-.94 2.8-.63.78-1.52 1.39-2.66 1.82s-2.51.66-4.11.66ZM85.41 23.97c-1.45 0-2.83-.19-4.13-.56-1.3-.37-2.35-.83-3.14-1.36l1.54-3.04c.77.49 1.69.89 2.75 1.2 1.07.31 2.14.46 3.23.46 1.24 0 2.14-.17 2.7-.5.56-.33.85-.78.85-1.36 0-.47-.19-.83-.58-1.07-.38-.25-.89-.43-1.5-.56-.62-.13-1.31-.25-2.06-.35-.76-.11-1.52-.25-2.27-.43-.76-.18-1.45-.45-2.06-.8-.62-.35-1.12-.83-1.5-1.42-.38-.6-.58-1.4-.58-2.4 0-1.07.31-2 .93-2.8.62-.8 1.49-1.42 2.61-1.87 1.12-.45 2.45-.67 3.98-.67 1.13 0 2.29.13 3.47.4 1.18.27 2.17.64 2.96 1.1l-1.57 3.04a8.38 8.38 0 0 0-2.43-.98c-.83-.18-1.65-.27-2.46-.27-1.19 0-2.09.18-2.69.53-.6.35-.9.81-.9 1.36 0 .51.19.9.58 1.15.38.26.88.45 1.5.59.62.14 1.31.27 2.06.38.76.12 1.51.27 2.26.45s1.43.44 2.06.77c.63.33 1.14.8 1.52 1.39.38.6.58 1.38.58 2.34 0 1.09-.31 2.02-.94 2.8-.63.78-1.52 1.39-2.66 1.82s-2.51.66-4.11.66ZM100.45 23.74h-4.16V1.34h4.16v22.4Zm11.9-9.6h-12.22v-3.55h12.22v3.55Zm-.32-12.8h4.13v22.4h-4.13V1.34ZM129.18 23.97c-1.9 0-3.56-.38-4.98-1.14-1.42-.76-2.52-1.79-3.3-3.1s-1.17-2.82-1.17-4.53.38-3.22 1.14-4.53c.76-1.31 1.8-2.35 3.14-3.1 1.33-.76 2.85-1.14 4.56-1.14s3.15.37 4.45 1.1c1.3.74 2.32 1.77 3.07 3.09.75 1.32 1.12 2.89 1.12 4.7 0 .15 0 .34-.02.56s-.03.42-.05.59H122.9v-2.66h12.13l-1.6.83c.02-.96-.18-1.82-.59-2.58-.42-.76-.99-1.34-1.71-1.76-.73-.42-1.58-.62-2.56-.62s-1.82.21-2.58.62c-.76.42-1.34 1.01-1.74 1.78-.41.77-.61 1.65-.61 2.66v.64c0 1.02.23 1.93.69 2.72.46.79 1.11 1.4 1.97 1.84.85.44 1.85.66 2.98.66.96 0 1.82-.16 2.59-.48.77-.32 1.45-.79 2.05-1.41l2.18 2.5c-.79.9-1.77 1.58-2.93 2.05-1.16.47-2.49.7-3.98.7ZM140.41 23.74V0h3.97v23.74h-3.97ZM149.02 29.95V6.66h3.81v4.03l-.16 4.54.32 4.54v10.18h-3.97Zm9.44-5.98c-1.41 0-2.68-.31-3.81-.94-1.13-.63-2.03-1.59-2.69-2.9-.66-1.3-.99-2.94-.99-4.93s.31-3.65.94-4.94c.63-1.29 1.52-2.25 2.67-2.88 1.15-.63 2.44-.94 3.87-.94 1.66 0 3.15.36 4.45 1.09 1.3.73 2.33 1.75 3.09 3.07s1.14 2.86 1.14 4.61-.38 3.31-1.14 4.62-1.79 2.33-3.09 3.06-2.78 1.09-4.45 1.09Zm-.48-3.39c.98 0 1.85-.22 2.61-.67.76-.45 1.36-1.08 1.81-1.89.45-.81.67-1.75.67-2.82s-.22-2.03-.67-2.83c-.45-.8-1.05-1.42-1.81-1.86-.76-.44-1.63-.66-2.61-.66s-1.79.22-2.56.66a4.72 4.72 0 0 0-1.82 1.86c-.45.8-.67 1.74-.67 2.83s.22 2.01.67 2.82a4.94 4.94 0 0 0 1.82 1.89c.77.45 1.62.67 2.56.67ZM178.3 23.97c-1.9 0-3.56-.38-4.98-1.14-1.42-.76-2.52-1.79-3.3-3.1s-1.17-2.82-1.17-4.53.38-3.22 1.14-4.53c.76-1.31 1.8-2.35 3.14-3.1 1.33-.76 2.85-1.14 4.56-1.14s3.15.37 4.45 1.1c1.3.74 2.33 1.77 3.07 3.09.75 1.32 1.12 2.89 1.12 4.7 0 .15 0 .34-.02.56s-.03.42-.05.59h-14.24v-2.66h12.13l-1.6.83c.02-.96-.18-1.82-.59-2.58-.42-.76-.99-1.34-1.71-1.76-.73-.42-1.58-.62-2.56-.62s-1.82.21-2.58.62-1.34 1.01-1.74 1.78-.61 1.65-.61 2.66v.64c0 1.02.23 1.93.69 2.72.46.79 1.12 1.4 1.97 1.84.85.44 1.84.66 2.98.66.96 0 1.82-.16 2.59-.48.77-.32 1.45-.79 2.05-1.41l2.18 2.5c-.79.9-1.77 1.58-2.93 2.05s-2.49.7-3.98.7ZM189.53 23.74V6.66h3.81v4.7l-.45-1.38c.49-1.15 1.29-2.03 2.4-2.64s2.46-.91 4.06-.91v3.81c-.15-.02-.3-.04-.45-.05-.15-.01-.29-.02-.42-.02-1.54 0-2.75.44-3.65 1.31-.9.88-1.34 2.21-1.34 4v8.26h-3.97ZM212.73 22.27h13.82v1.47h-15.46V1.34h14.98v1.47h-13.34v19.46Zm-.19-10.62h12.13v1.44h-12.13v-1.44ZM228.67 23.74l6.94-9.02-.03.77-6.56-8.45h1.82l5.73 7.39h-.67l5.7-7.39h1.79l-6.62 8.54.03-.86 7.04 9.02h-1.89l-6.05-7.87.61.06-6.02 7.81h-1.82ZM244.51 8.42V7.04h9.98v1.38h-9.98Zm7.62 15.46c-1.47 0-2.6-.4-3.38-1.22-.78-.81-1.17-1.92-1.17-3.33V3.39h1.6v15.78c0 1.07.27 1.89.8 2.46.53.58 1.3.86 2.3.86s1.91-.31 2.59-.93l.67 1.12c-.43.41-.94.7-1.55.9-.61.19-1.23.29-1.87.29ZM266.11 23.87c-1.69 0-3.17-.36-4.46-1.09a7.99 7.99 0 0 1-3.04-3.01c-.74-1.28-1.1-2.74-1.1-4.38s.35-3.13 1.04-4.4A7.69 7.69 0 0 1 261.41 8c1.22-.73 2.58-1.09 4.1-1.09s2.87.35 4.08 1.06c1.2.7 2.15 1.69 2.85 2.96.69 1.27 1.04 2.74 1.04 4.4 0 .06 0 .13-.02.21-.01.08-.02.15-.02.24h-14.75v-1.25h13.89l-.64.61c.02-1.3-.25-2.47-.82-3.5s-1.33-1.85-2.29-2.43c-.96-.59-2.07-.88-3.33-.88s-2.34.29-3.31.88c-.97.59-1.73 1.4-2.29 2.43s-.83 2.21-.83 3.54v.29c0 1.37.3 2.58.91 3.63a6.382 6.382 0 0 0 2.51 2.46c1.07.59 2.28.88 3.65.88 1.07 0 2.06-.19 2.99-.58.93-.38 1.71-.97 2.35-1.76l.93 1.06c-.73.9-1.64 1.57-2.74 2.03-1.1.46-2.29.69-3.57.69ZM285.92 6.91c1.37 0 2.55.26 3.57.78 1.01.52 1.8 1.31 2.37 2.37.56 1.06.85 2.36.85 3.92v9.76h-1.6v-9.63c0-1.88-.48-3.31-1.42-4.29-.95-.98-2.28-1.47-3.98-1.47-1.3 0-2.43.27-3.39.8s-1.69 1.28-2.19 2.24c-.5.96-.75 2.11-.75 3.46v8.9h-1.6V7.04h1.54v4.64l-.22-.51c.51-1.32 1.35-2.36 2.53-3.12 1.17-.76 2.61-1.14 4.32-1.14ZM302.84 23.87c-1.39 0-2.68-.2-3.89-.61-1.21-.4-2.14-.92-2.8-1.54l.74-1.28c.64.55 1.49 1.03 2.56 1.42 1.07.4 2.22.59 3.46.59 1.75 0 3.01-.29 3.78-.86s1.15-1.33 1.15-2.27c0-.68-.2-1.22-.59-1.62-.39-.39-.92-.7-1.58-.91s-1.39-.39-2.18-.53c-.79-.14-1.58-.29-2.37-.46-.79-.17-1.51-.42-2.18-.74-.66-.32-1.19-.76-1.58-1.33-.39-.56-.59-1.32-.59-2.26 0-.85.23-1.62.7-2.3.47-.68 1.17-1.23 2.11-1.65s2.11-.62 3.52-.62c1.04 0 2.1.15 3.15.45 1.06.3 1.91.69 2.58 1.18l-.74 1.28c-.7-.53-1.49-.92-2.37-1.15-.88-.23-1.76-.35-2.66-.35-1.62 0-2.81.3-3.57.9-.76.6-1.14 1.34-1.14 2.24 0 .7.2 1.26.59 1.68s.92.74 1.58.96 1.39.41 2.18.54c.79.14 1.58.29 2.37.46.79.17 1.51.41 2.18.72.66.31 1.19.74 1.58 1.28.39.54.59 1.27.59 2.19s-.25 1.72-.75 2.4c-.5.68-1.24 1.22-2.22 1.6-.98.38-2.19.58-3.62.58ZM314.04 2.98a1.3 1.3 0 0 1-.93-.38 1.21 1.21 0 0 1-.38-.9c0-.36.13-.67.38-.93s.57-.38.93-.38c.38 0 .7.12.94.37.25.25.37.55.37.91s-.12.67-.37.93-.56.38-.94.38Zm-.8 20.77V7.04h1.6v16.7h-1.6ZM327.45 23.87c-1.6 0-3.02-.36-4.27-1.09a8.12 8.12 0 0 1-2.98-3.01c-.74-1.28-1.1-2.74-1.1-4.38s.37-3.13 1.1-4.4c.74-1.27 1.73-2.27 2.98-2.99 1.25-.73 2.67-1.09 4.27-1.09s3.03.36 4.29 1.09c1.26.73 2.25 1.72 2.98 2.99.73 1.27 1.09 2.74 1.09 4.4s-.36 3.1-1.09 4.38a7.904 7.904 0 0 1-2.98 3.01c-1.26.73-2.69 1.09-4.29 1.09Zm0-1.44c1.28 0 2.43-.29 3.46-.88a6.23 6.23 0 0 0 2.4-2.48c.58-1.07.86-2.29.86-3.68s-.29-2.64-.86-3.7a6.177 6.177 0 0 0-2.4-2.46c-1.02-.59-2.18-.88-3.46-.88s-2.43.29-3.44.88a6.448 6.448 0 0 0-2.4 2.46c-.59 1.06-.88 2.29-.88 3.7s.29 2.61.88 3.68a6.365 6.365 0 0 0 2.4 2.48c1.01.59 2.16.88 3.44.88ZM348.25 6.91c1.37 0 2.55.26 3.57.78 1.01.52 1.8 1.31 2.37 2.37.56 1.06.85 2.36.85 3.92v9.76h-1.6v-9.63c0-1.88-.48-3.31-1.42-4.29-.95-.98-2.28-1.47-3.98-1.47-1.3 0-2.43.27-3.39.8s-1.69 1.28-2.19 2.24c-.5.96-.75 2.11-.75 3.46v8.9h-1.6V7.04h1.54v4.64l-.22-.51c.51-1.32 1.35-2.36 2.53-3.12 1.17-.76 2.61-1.14 4.32-1.14Z"/></g></svg>