<?xml version="1.0" encoding="utf-8"?>
<!-- Generator: Adobe Illustrator 26.4.1, SVG Export Plug-In . SVG Version: 6.00 Build 0)  -->
<svg version="1.1" id="Layer_1" xmlns="http://www.w3.org/2000/svg" xmlns:xlink="http://www.w3.org/1999/xlink" x="0px" y="0px"
	 viewBox="0 0 425.2 425.2" style="enable-background:new 0 0 425.2 425.2;" xml:space="preserve">
<style type="text/css">
	.st0{stroke:#E6E6E6;stroke-width:14;stroke-linecap:round;stroke-linejoin:round;}
	.st1{stroke:#E6E6E6;stroke-width:14;stroke-linecap:round;}
</style>
<g id="Layer_2_00000001631755891463465460000015392597659575553698_">
	<g id="Layer_1-2">
		<path class="st0" d="M71.1,357.7c35.5-10.2,105.9,4.5,141.5-21c35.5,25.5,105.9,10.8,141.5,21c12,4.5,22.7,11.7,31.4,21
			c-7.1,10.2-17.3,10.4-31.4,5.2c-35.5-10.2-105.9,4.8-141.5-10.5c-35.5,15.3-105.9,0.3-141.5,10.5c-14.2,5.1-24.3,4.9-31.4-5.2
			C53.9,358.3,71.1,357.7,71.1,357.7z"/>
		<path class="st0" d="M134,315.7c26.2,26.2,131,26.2,157.2,0c1.4-4,2.2-8.2,2.3-12.4c0-6.2-1.9-12.3-3.6-18.2
			c-1.4-4.9-3.5-9.6-6.2-13.9c-4.3-6.4-9.7-12-16-16.5c-0.3-0.2-2.2-1.9-2.7-1.8c57.6-15.7,62.9-120.5-52.4-162.4
			c-115.3,41.9-110,146.7-52.4,162.4c-0.8-0.2-4,2.8-4.5,3.2c-3.7,2.9-7.1,6.2-10.2,9.8C134.7,278.7,128.6,299.5,134,315.7z"/>
		<path class="st0" d="M238.8,64.2c0,14.5-11.7,26.2-26.2,26.2s-26.2-11.7-26.2-26.2S198.1,38,212.6,38
			C227.1,38,238.8,49.8,238.8,64.2C238.8,64.2,238.8,64.2,238.8,64.2z"/>
		<path class="st1" d="M160.2,252.9H265 M134,294.8h157.2 M212.6,142.8v52.4 M186.4,169h52.4"/>
	</g>
</g>
</svg>
