<?xml version="1.0" encoding="utf-8"?>
<!-- Generator: Adobe Illustrator 26.4.1, SVG Export Plug-In . SVG Version: 6.00 Build 0)  -->
<svg version="1.1" id="Layer_1" xmlns="http://www.w3.org/2000/svg" xmlns:xlink="http://www.w3.org/1999/xlink" x="0px" y="0px"
	 viewBox="0 0 425.2 425.2" style="enable-background:new 0 0 425.2 425.2;" xml:space="preserve">
<style type="text/css">
	.st0{fill:#E6E6E6;stroke:#000000;stroke-width:14;stroke-linejoin:round;}
	.st1{fill:#E6E6E6;stroke:#000000;stroke-width:14;stroke-linecap:round;}
</style>
<g id="Layer_2_00000182500760473817008360000018179116138788142266_">
	<g id="Layer_1-2">
		<path class="st0" d="M71.1,357.7c35.5-10.2,105.9,4.5,141.5-21c35.5,25.5,105.9,10.8,141.5,21c12,4.5,22.7,11.7,31.4,21
			c-7.1,10.2-17.3,10.4-31.4,5.2c-35.5-10.2-105.9,4.8-141.5-10.5c-35.5,15.3-105.9,0.3-141.5,10.5c-14.2,5.1-24.3,4.9-31.4-5.2
			C53.9,358.3,71.1,357.7,71.1,357.7z"/>
		<path class="st0" d="M134,315.7c26.2,26.2,131,26.2,157.2,0c4.8-14.3,0.2-33.5-8.3-45.7c-4.7-6.9-10.8-12.7-17.9-17.1
			c57.6-15.7,62.9-120.5-52.4-162.4c-115.3,41.9-110,146.7-52.4,162.4c-0.8-0.2-3.8,2.7-4.4,3.1c-3.6,2.8-7,6-10,9.5
			C134.9,278.2,128.6,299.5,134,315.7z"/>
		<path class="st0" d="M238.8,64.2c0,14.5-11.7,26.2-26.2,26.2s-26.2-11.7-26.2-26.2S198.1,38,212.6,38
			C227.1,38,238.8,49.8,238.8,64.2C238.8,64.2,238.8,64.2,238.8,64.2z"/>
		<path class="st1" d="M160.2,252.9H265 M134,294.8h157.2 M212.6,142.8v52.4 M186.4,169h52.4"/>
	</g>
</g>
</svg>
