<?xml version="1.0" encoding="utf-8"?>
<!-- Generator: Adobe Illustrator 26.4.1, SVG Export Plug-In . SVG Version: 6.00 Build 0)  -->
<svg version="1.1" id="Layer_1" xmlns="http://www.w3.org/2000/svg" xmlns:xlink="http://www.w3.org/1999/xlink" x="0px" y="0px"
	 viewBox="0 0 480.2 484.4" style="enable-background:new 0 0 480.2 484.4;" xml:space="preserve">
<style type="text/css">
	.st0{opacity:0.2;fill:#2B2B2B;stroke:#000000;stroke-miterlimit:10;enable-background:new    ;}
	.st1{display:none;fill:#FFFFFF;stroke:url(#SVGID_1_);stroke-width:18;stroke-miterlimit:10;}
	.st2{fill:#FFFFFF;stroke:#000000;stroke-width:10;stroke-miterlimit:10;}
	.st3{fill:#474C50;}
	.st4{fill:#5E6367;}
	.st5{fill:#FFFFFE;}
	.st6{fill:#AEAEAF;}
	.st7{fill:#B0B0AF;}
	.st8{display:none;fill:#FFFFFF;stroke:#000000;stroke-width:5;stroke-miterlimit:10;}
	.st9{fill:url(#SVGID_00000168795202914498998300000018328097380231575171_);stroke:#000000;stroke-width:5;stroke-miterlimit:10;}
	.st10{opacity:0.1;}
	.st11{fill:#2E3192;}
	.st12{opacity:0.5;}
	.st13{fill:#EDF0F2;}
	
		.st14{display:none;fill:url(#SVGID_00000010274892501976691300000017794067566178077574_);stroke:#000000;stroke-width:5;stroke-miterlimit:10;}
	.st15{fill:url(#SVGID_00000039103257092292739740000006663818933200166077_);stroke:#000000;stroke-width:5;stroke-miterlimit:10;}
	.st16{fill:url(#SVGID_00000029755981308840075910000004924577087996581799_);stroke:#000000;stroke-width:5;stroke-miterlimit:10;}
</style>
<path class="st0" d="M354.8,424.5H78.3c-40.3,0-72.9-32.6-72.9-72.9v-268c0-40.3,32.7-72.9,72.9-72.9h276.5
	c40.3,0,72.9,32.7,72.9,72.9v268C427.7,391.8,395,424.5,354.8,424.5z"/>
<linearGradient id="SVGID_1_" gradientUnits="userSpaceOnUse" x1="136.37" y1="-109.453" x2="322.985" y2="-109.453" gradientTransform="matrix(1 0 0 -1 0 128)">
	<stop  offset="0" style="stop-color:#9A1F24"/>
	<stop  offset="0.3248" style="stop-color:#C92222"/>
	<stop  offset="1" style="stop-color:#C42B27"/>
</linearGradient>
<path class="st1" d="M145.4,141.1v192.7c0,9.9,11,15.8,19.2,10.3l143.9-96.4c7.3-4.9,7.3-15.6,0-20.5l-143.9-96.4
	C156.4,125.3,145.4,131.2,145.4,141.1z"/>
<g>
	<path class="st2" d="M182.9,199.8v-13c0,0-10.7,0-21.5-4.3c-12.6-5-12.1-13.7-12.1-14.2c0,0,0,0,0,0c-0.1-0.5-1.2-9.3,8.6-13.7
		c8.5-3.8,18.9-3.1,18.9-3.1s-3.2-1.2-8.1-4.9c-2.2-1.6-5.5-5.2-5.8-5.5c-0.1,0-0.1,0-0.1,0s-16.3-15.5-9.3-40.1
		c6.9-24.6,41.1-40.4,73.6-36.9c30.4,3.3,43.8,24.4,45.3,27c0.1,0.2,0.2,0.3,0.2,0.3c3.6,5.6,10.3,20.3,0,40.5
		c-7.1,13.9-20.3,20.1-20.3,20.1s11.8-0.9,20.2,2.4c6.9,2.8,9.1,8.8,9.4,9.5l0,0c0,0,0.5,0.8,0.4,4.6c-0.1,4.5-2.6,9.7-9.7,13
		c-9.3,4.2-19.1,5-19.1,5l-0.3,11.2c0,0,0,0,0,0.1c0,0.6,0.5,6.9,10.1,25c9.2,17.3,16.1,26.5,17.4,28c2.2-0.3,4.3-0.3,6.5,0.2
		c3.4,0.9,4.8,2.9,4.8,2.9c2.7,2.3,4.2,7.5,4.2,7.5c1,2.9,0.5,4.6,0.5,4.6v0c0,0,0,0,0,0s13,9.2,18.3,13.5
		c5.2,4.2,11.6,11.9,12,12.4c0,0,0,0,0,0s5.2,5.8,5.7,13.8c0.4,6.4-2.7,12.3-2.7,12.3l0.1,0.1c0,0,0,0,0,0l12.9,10.8l0,0
		c0,0,0.3,0.4,0.4,0.6c1.5,2.2,2.1,4.7,1.9,7.2c-0.3,3.4-1.6,11.1-18.1,20.1c-16.5,8.9-56.4,17-109.1,17s-81-6.8-102-14.3
		c-20.3-7.3-25.5-13.9-26-20.1c-0.4-5,2.9-9.2,2.9-9.2h0c0,0,0,0,0,0s1.8-2.6,6.7-6.3c3.6-2.8,8.3-5.2,8.8-5.5
		c-0.6-0.1-4-4.1-4.1-10.5c-0.2-6.9,3.3-12.3,3.3-12.3s4.5-9.1,13.8-16.6c5.5-4.5,15-10.6,15.6-11c-0.3-0.1-2-1.2-2.1-4.7
		c0-2.2,1.4-4.4,1.4-4.4s3.3-4.2,7.8-5.3c0,0,3.6-0.9,6-0.9c1.1,0,1.7,0,1.7,0s20.8-25.1,24.5-32.1S182.9,199.8,182.9,199.8z"/>
	<path class="st2" d="M294.7,258.3"/>
	<path class="st2" d="M141.9,254.4"/>
	<path class="st2" d="M140.6,255.1"/>
	<g>
		<path class="st3" d="M270.1,88.5l-107.8,52.3c0,0,3.5,3.8,5.8,5.6c4.9,3.6,8.1,4.9,8.1,4.9l-2,5.4l-25.5,11.4c0,0-0.9,9,12.1,14.2
			c10.8,4.3,21.5,4.3,21.5,4.3v13c0,0,16.3,16.1,38,16.1s32.1-18.3,32.1-18.3l0.3-11.2c0,0,9.8-0.8,19.1-5c7.1-3.2,9.6-8.5,9.7-13
			c0.1-3.8-0.4-4.6-0.4-4.6l-29.6-11.9c0,0,13.2-6.2,20.3-20.1C285.3,105.4,270.1,88.5,270.1,88.5L270.1,88.5z"/>
		<path class="st3" d="M209.9,244.9l-73.7,13.5c0,0-1.9,2.1-1.9,4.3c0.1,3.8,2.2,4.7,2.2,4.7L107.1,295c0,0-3.4,5.4-3.3,12.3
			c0.2,6.6,3.7,10.6,4.2,10.5l-9.6,9.8l-6.1,2c0,0-3.3,4.1-2.9,9.2c0.5,6.2,5.7,12.8,26.1,20.1c21,7.5,49.3,14.3,102,14.3
			s92.6-8,109.1-17c16.5-8.9,17.8-16.7,18.1-20.1c0.2-2.5-0.4-5-1.9-7.2c-0.1-0.2-0.5-0.6-0.5-0.6l-13-10.9c0,0,3.1-6,2.7-12.3
			c-0.5-8-5.7-13.8-5.7-13.8l-30.7-20.6l0.3-5.4c0,0,0.5-1.7-0.5-4.6c-0.9-2.5-1.6-3.8-2.3-4.7c-2.2-2.5-4.8-2.3-4.8-2.3
			L209.9,244.9L209.9,244.9z"/>
		<path class="st4" d="M162.3,140.8c0,0-16.3-15.5-9.3-40.1c6.9-24.6,41.1-40.4,73.6-36.9S272,91,272,91s-0.9,29.5-36,43.9
			S162.3,140.8,162.3,140.8z"/>
		<path class="st5" d="M207.7,71.6c7.7,3.4,3.5,7.2-8.1,13c-10.8,5.4-23.7,21.2-27.2,25.3c-3.5,4-5.8,4.5-7.5,3.6s-7.2-3.1-2.3-15.9
			c4.9-12.7,18-20.8,24.3-23.7C193.2,70.9,201.6,68.9,207.7,71.6L207.7,71.6z"/>
		<path class="st4" d="M176.4,151.2c0,0,16.4,8.4,34,8.6c24.9,0.2,41.3-8.1,41.3-8.1s11.8-0.9,20.2,2.4c7.4,2.9,9.4,9.5,9.4,9.5
			s-13.3,15.6-70,14.5c-56.7-1.2-62.4-10.1-62.4-10.1s-1.5-9.2,8.6-13.7C166,150.4,176.4,151.2,176.4,151.2L176.4,151.2z"/>
		<path class="st6" d="M165.9,155.8c-5.4-0.4-13.7,2.2-12.7,7.9c1,5.7,17.8,8.3,25.9,8.6s21.1,1.2,20.8-4.7
			c-0.2-5.9-19.8-2.9-27.5-6.1C164.8,158.3,173.7,156.4,165.9,155.8L165.9,155.8z"/>
		<path class="st4" d="M182.4,199.4c0,0,15.9,3.5,37.5,3.5s32.6-5.7,32.6-5.7s0,6,10.1,25c10.2,19,17.5,28.3,17.5,28.3
			s6.6-0.3,9.2,1.2c2.5,1.6,5,6.4,5,6.4c-0.8,0.9-18.9,13.8-73.3,12.9c-58-1-84.9-12.7-84.9-12.7s3.4-4.4,7.3-5.4
			c4.7-1.2,7.7-0.9,7.7-0.9s17.4-16.2,24.5-32.1C182.9,204.2,182.4,199.4,182.4,199.4L182.4,199.4z"/>
		<path class="st7" d="M218.7,258.8c21.4,0,39.9-3.3,47.8-5.1c7.9-1.8,13.9-4.7,20-3.2c3.4,0.9,4.8,2.9,4.8,2.9
			s-22.7,14.7-72.8,13.2c-53.4-1.6-79.4-11-79.4-11s3.5-3.8,11.3-3.5c2.1,0.1,4,0.6,16,2.7S197.9,258.8,218.7,258.8L218.7,258.8z"/>
		<path class="st4" d="M136.5,267.4c0,0,40.7,10.8,82.2,11.2c55.5,0.6,77.3-13.1,77.3-13.1s13,9.2,18.3,13.5
			c5.3,4.3,12.1,12.4,12.1,12.4s-23.2,29.6-108.2,29c-85-0.6-111.2-25.4-111.2-25.4s4.5-9.1,13.8-16.6
			C126.5,273.8,136.5,267.4,136.5,267.4L136.5,267.4z"/>
		<path class="st7" d="M135.9,279.6c-6.3-1.3-18.8,8.4-17.3,14.5c0.8,3.1,3,6.6,15.2,10c11.2,3.1,28.5,3,28.5-2.2
			c0-6.7-15-6.1-18.8-12C140.4,285.3,142.5,281,135.9,279.6z"/>
		<path class="st4" d="M108,317.7c0,0-5,2.6-8.9,5.6c-4.9,3.7-6.7,6.3-6.7,6.3s11.2,31.2,119,31.8c105.6,0.7,131-33.1,131-33.1
			s-3.4-3.8-7.1-6.6c-3.6-2.8-6-4.2-6-4.2s-36.2,26.7-118.7,26C132.1,342.9,108,317.7,108,317.7L108,317.7z"/>
		<path class="st7" d="M102.6,326.3c-2.9,2.5-2.8,7.7,5.7,12c9.1,4.6,23.8,11.2,44.8,14.2c21.4,3.1,43.7,2.1,42.3-3.4
			c-0.9-3.8-19.5,0.5-52.4-9.6c-19.3-5.9-25.3-9.1-29.2-11.3C111.3,326.8,106.8,322.7,102.6,326.3z"/>
		<path class="st7" d="M127.5,297.9c6.7,0,6.7-8,0-8S120.8,297.9,127.5,297.9z"/>
	</g>
</g>
<g>
	<path class="st8" d="M372.8,423.1H63.7c-27.5,0-49.9-22.3-49.9-49.9V64.1c0-27.5,22.3-49.9,49.9-49.9h309.1
		c27.5,0,49.9,22.3,49.9,49.9v309.1C422.7,400.8,400.3,423.1,372.8,423.1z"/>
	
		<linearGradient id="SVGID_00000168109054319439665970000010276386952448157582_" gradientUnits="userSpaceOnUse" x1="3.79" y1="-90.665" x2="432.66" y2="-90.665" gradientTransform="matrix(1 0 0 -1 0 128)">
		<stop  offset="0" style="stop-color:#818E70"/>
		<stop  offset="1" style="stop-color:#0B5500"/>
	</linearGradient>
	
		<path style="fill:url(#SVGID_00000168109054319439665970000010276386952448157582_);stroke:#000000;stroke-width:5;stroke-miterlimit:10;" d="
		M372.8,433.1H63.7c-33,0-59.9-26.9-59.9-59.9V64.1c0-33,26.9-59.9,59.9-59.9h309.1c33,0,59.9,26.9,59.9,59.9v309.1
		C432.7,406.2,405.8,433.1,372.8,433.1z M63.7,24.2c-22,0-39.9,17.9-39.9,39.9v309.1c0,22,17.9,39.9,39.9,39.9h309.1
		c22,0,39.9-17.9,39.9-39.9V64.1c0-22-17.9-39.9-39.9-39.9L63.7,24.2L63.7,24.2z"/>
</g>
<g>
	<g>
		<g class="st10">
			<g>
				<g>
					<path class="st11" d="M476,399.1l-2.4,7.4c-4.8,15-12.9,29-23.5,40.5l-5.2,5.7c-0.9,1-2.4,1.1-3.4,0.3l-6-4.8
						c-4.5-3.5-10.3-5.1-16-4.3c-5.6,0.8-10.6,3.7-14,8.2c-3.4,4.5-4.9,10.1-4.1,15.7l1.1,7.6c0.2,1.3-0.6,2.5-1.9,2.8l-7.5,1.7
						c-7.5,1.6-15.3,2.5-22.9,2.5c-8,0-16.1-0.9-23.9-2.7l-7.5-1.7c-1.3-0.3-2.1-1.5-1.9-2.8l1.1-7.6c1.3-8.5-2.7-16.8-10.1-21
						c-7.5-4.3-16.7-3.7-23.5,1.7l-6.1,4.7c-1,0.8-2.5,0.7-3.4-0.3l-5.2-5.7c-10.5-11.5-18.5-25.5-23-40.4l-2.2-7.3
						c-0.4-1.2,0.2-2.5,1.4-3l7-2.9c8-3.2,13.2-10.9,13.2-19.5c0.1-8.5-5-16.1-12.8-19.3l-7.1-3c-1.2-0.5-1.8-1.8-1.4-3.1l2.4-7.3
						c4.8-14.9,12.9-28.8,23.5-40.2l5.1-5.6c0.9-1,2.3-1.1,3.4-0.3l6,4.6c4.4,3.4,9.9,4.8,15.4,4.2c5.6-0.7,10.7-3.5,14.1-8
						c3.5-4.5,5-10,4.4-15.7l-1-7.5c-0.2-1.3,0.7-2.5,2-2.8l7.4-1.6c15.2-3.4,31.4-3.4,46.6,0l7.5,1.7c1.3,0.3,2.1,1.5,1.9,2.8
						l-1,7.6c-1.2,8.4,2.8,16.6,10.2,20.8c7.5,4.3,16.7,3.7,23.5-1.6l6-4.7c1-0.8,2.5-0.7,3.4,0.3l5.2,5.6
						c10.6,11.5,18.6,25.4,23.3,40.3l2.3,7.3c0.4,1.2-0.2,2.6-1.5,3.1l-7.1,2.9c-8.1,3.2-13.3,10.9-13.4,19.5
						c-0.1,8.5,5.1,16.3,13,19.4c0,0,0,0,0,0l7.2,2.9C475.7,396.5,476.4,397.8,476,399.1z"/>
				</g>
			</g>
		</g>
	</g>
	<g class="st12">
		<g>
			<g>
				<path class="st13" d="M466,393.5l-2.4,7.4c-4.8,15-12.9,29-23.5,40.5l-5.2,5.7c-0.9,1-2.4,1.1-3.4,0.3l-6-4.8
					c-4.5-3.5-10.3-5.1-16-4.3c-5.6,0.8-10.6,3.7-14,8.2c-3.4,4.5-4.9,10.1-4.1,15.7l1.1,7.6c0.2,1.3-0.6,2.5-1.9,2.8l-7.5,1.7
					c-7.5,1.6-15.3,2.5-22.9,2.5c-8,0-16.1-0.9-23.9-2.7l-7.5-1.7c-1.3-0.3-2.1-1.5-1.9-2.8l1.1-7.6c1.3-8.5-2.7-16.8-10.1-21
					c-7.5-4.3-16.7-3.7-23.5,1.7l-6.1,4.7c-1,0.8-2.5,0.7-3.4-0.3l-5.2-5.7c-10.5-11.5-18.5-25.5-23-40.4l-2.2-7.3
					c-0.4-1.2,0.2-2.5,1.4-3l7.1-2.9c8-3.2,13.2-10.9,13.2-19.5c0.1-8.5-5-16.1-12.8-19.3l-7.1-3c-1.2-0.5-1.8-1.8-1.4-3.1l2.4-7.3
					c4.8-14.9,12.9-28.8,23.5-40.2l5.1-5.6c0.9-1,2.3-1.1,3.4-0.3l6,4.6c4.4,3.4,9.9,4.8,15.4,4.2c5.6-0.7,10.7-3.5,14.1-8
					c3.5-4.5,5-10,4.4-15.7l-1-7.5c-0.2-1.3,0.7-2.5,2-2.8l7.4-1.6c15.2-3.4,31.4-3.4,46.6,0l7.5,1.7c1.3,0.3,2.1,1.5,1.9,2.8
					l-1,7.6c-1.2,8.4,2.8,16.6,10.2,20.8c7.5,4.3,16.7,3.7,23.5-1.6l6-4.7c1-0.8,2.5-0.7,3.4,0.3l5.2,5.6
					c10.6,11.5,18.6,25.4,23.3,40.3l2.3,7.3c0.4,1.2-0.2,2.6-1.5,3.1l-7.1,2.9c-8.1,3.2-13.3,10.9-13.4,19.5
					c-0.1,8.5,5.1,16.3,13,19.4c0,0,0,0,0,0l7.2,2.9C465.8,390.9,466.4,392.3,466,393.5z"/>
			</g>
		</g>
	</g>
	<g>
		
			<linearGradient id="SVGID_00000025418008876080850040000012044797140076332958_" gradientUnits="userSpaceOnUse" x1="268.06" y1="367.69" x2="453.09" y2="367.69">
			<stop  offset="0" style="stop-color:#818E70"/>
			<stop  offset="1" style="stop-color:#434A3A"/>
		</linearGradient>
		
			<polygon style="display:none;fill:url(#SVGID_00000025418008876080850040000012044797140076332958_);stroke:#000000;stroke-width:5;stroke-miterlimit:10;" points="
			268.1,336 289.7,364.7 272.8,394.4 277.1,421.6 289.7,434.6 331,436.4 340.6,467.2 379.2,467.2 394,431.6 424.9,433.8 
			437.9,431.2 453.1,401.6 434,375.1 443.5,342.3 453.1,336 434.8,303 397.1,306.5 379.7,281.3 377.1,268.2 341.5,271.5 328,295.2 
			308.5,309.5 289.7,305.2 		"/>
		<g>
			
				<linearGradient id="SVGID_00000021102449381149589100000013177915394247844481_" gradientUnits="userSpaceOnUse" x1="391.8564" y1="-271.8055" x2="328.9149" y2="-208.864" gradientTransform="matrix(1 0 0 -1 0 128)">
				<stop  offset="0" style="stop-color:#818E70"/>
				<stop  offset="1" style="stop-color:#434A3A"/>
			</linearGradient>
			
				<path style="fill:url(#SVGID_00000021102449381149589100000013177915394247844481_);stroke:#000000;stroke-width:5;stroke-miterlimit:10;" d="
				M399,346.2c-12.2-21.3-39.5-28.6-60.8-16.4s-28.6,39.5-16.4,60.8c12.2,21.3,39.4,28.6,60.7,16.4
				C403.8,394.7,411.2,367.5,399,346.2z M373.3,390.9c-12.5,7.2-28.4,2.9-35.6-9.6c-7.2-12.5-2.9-28.4,9.6-35.6
				c12.5-7.2,28.4-2.9,35.6,9.6c7.2,12.3,3,28.2-9.3,35.4C373.5,390.8,373.4,390.9,373.3,390.9z"/>
			
				<linearGradient id="SVGID_00000176008515133633833260000001131249974590345406_" gradientUnits="userSpaceOnUse" x1="435.25" y1="-315.31" x2="285.43" y2="-165.49" gradientTransform="matrix(1 0 0 -1 0 128)">
				<stop  offset="0" style="stop-color:#818E70"/>
				<stop  offset="1" style="stop-color:#434A3A"/>
			</linearGradient>
			
				<path style="fill:url(#SVGID_00000176008515133633833260000001131249974590345406_);stroke:#000000;stroke-width:5;stroke-miterlimit:10;" d="
				M441.9,368.2c0.1-9.6,6-18.3,14.9-21.8l7.1-2.9l-2.3-7.3c-4.6-14.6-12.3-28.1-22.8-39.4l-5.2-5.6l-6,4.6
				c-7.6,5.9-18,6.6-26.3,1.8c-8.2-4.7-12.8-14-11.4-23.3l1-7.6l-7.5-1.6c-15-3.3-30.5-3.3-45.5,0l-7.4,1.6l1,7.5
				c1.6,13-7.7,24.9-20.7,26.5c-6.1,0.8-12.3-0.9-17.2-4.7l-6-4.6l-5.1,5.6c-10.4,11.3-18.2,24.7-22.9,39.3l-2.4,7.3l7.1,3
				c8.7,3.6,14.4,12.2,14.3,21.6c-0.1,9.6-5.9,18.2-14.8,21.8l-7.1,2.9l2.2,7.3c4.5,14.7,12.2,28.1,22.5,39.5l5.2,5.7l6.1-4.7
				c7.6-5.9,18-6.7,26.3-1.9c8.3,4.8,12.8,14.1,11.4,23.6l-1.1,7.6l7.5,1.7c7.7,1.7,15.5,2.6,23.4,2.6c7.5,0,15-0.8,22.4-2.4
				l7.5-1.6l-1.1-7.6c-1.8-13,7.2-24.9,20.2-26.7c6.4-0.9,12.9,0.9,17.9,4.9l6,4.8l5.2-5.7c10.5-11.4,18.3-24.9,23-39.5l2.4-7.4
				l-7.2-2.9C447.6,386.4,441.8,377.7,441.9,368.2z M430.7,423.2c-19.9-10-44.2-2-54.2,17.9c-2.5,4.9-3.9,10.2-4.2,15.6
				c-8.3,1.1-16.7,1.1-25-0.1c-0.7-13.5-8.2-25.6-19.9-32.3c-11.7-6.7-25.9-7.2-38-1.2c-5.1-6.5-9.2-13.8-12.3-21.5
				c11.2-7.4,18-19.9,18.1-33.4c0.1-13.3-6.5-25.8-17.5-33.3c3.1-7.8,7.4-15,12.5-21.6c20.1,9.8,44.3,1.4,54-18.6
				c2.2-4.6,3.6-9.6,4-14.7c8.3-1.2,16.7-1.2,25,0c1.5,22.1,20.6,38.8,42.7,37.3c5.3-0.4,10.5-1.8,15.2-4.1c2.6,3.3,5,6.8,7.1,10.5
				c2,3.5,3.8,7.2,5.3,11c-11.3,7.4-18.1,19.9-18.2,33.4c-0.1,13.5,6.6,26.1,17.9,33.5C440,409.3,435.8,416.6,430.7,423.2
				L430.7,423.2z"/>
		</g>
	</g>
</g>
</svg>
