<?xml version="1.0" encoding="UTF-8" standalone="no"?>
<!-- Created with Inkscape (http://www.inkscape.org/) -->
<svg
   xmlns:svg="http://www.w3.org/2000/svg"
   xmlns="http://www.w3.org/2000/svg"
   version="1.0"
   width="64"
   height="64"
   viewBox="-5 -10 450 450"
   id="svg2">
  <defs
     id="defs4" />
  <g
     transform="translate(0,-8.576477)"
     id="layer1">
    <path
       d="M 212.46875,0 L 211.46875,21 L 179.46875,22 L 179.46875,36 L 211.46875,37 L 211.46875,75.875 L 205.46875,78.90625 C 194.24801,84.57107 184.90405,96.105528 179.875,110.5 C 177.94073,116.03639 177.59173,119.07547 177.5625,131 C 177.52272,147.22629 178.90538,154.83367 185.65625,175.8125 C 188.10185,183.41238 189.93547,190.09984 189.75,190.65625 C 189.56453,191.21267 186.38386,188.04219 182.65625,183.625 C 156.87243,153.07124 118.37842,129.28268 84.46875,122.9375 C 51.968031,116.85596 21.10636,131.18673 7.5625,158.625 C -2.2578,178.51977 -2.5152101,197.00562 6.78125,216.84375 C 11.42655,226.75657 15.582639,233.04708 30.34375,252.5 C 42.52613,268.55454 52.84967,284.08377 60.9375,298.5 C 63.86884,303.725 67.083947,308.90001 68.0625,310 C 69.4941,311.60929 70.242389,316.34785 71.90625,334.21875 C 74.48683,361.93575 74.49423,363.09046 71.8125,384.875 C 69.66324,402.33414 69.635491,402.78449 71.46875,404.125 C 104.67473,421.48502 134.26389,430.37655 218.9375,430.3125 C 303.67424,430.24846 332.94474,421.60274 366.46875,404.125 C 368.48258,403.07509 368.3055,402.33414 366.15625,384.875 C 363.47452,363.09046 363.45068,361.93575 366.03125,334.21875 C 367.69511,316.34785 368.4434,311.6093 369.875,310 C 370.85355,308.9 374.06866,303.72501 377,298.5 C 385.08783,284.08376 395.41137,268.55454 407.59375,252.5 C 422.35486,233.04708 426.51095,226.75657 431.15625,216.84375 C 440.45271,197.00562 440.1953,178.51978 430.375,158.625 C 416.83114,131.18672 385.96947,116.85596 353.46875,122.9375 C 319.55908,129.28268 281.09632,153.07123 255.3125,183.625 C 251.58489,188.0422 248.37298,191.21267 248.1875,190.65625 C 248.00203,190.09984 249.8669,183.41238 252.3125,175.8125 C 259.06337,154.83367 260.41477,147.22629 260.375,131 C 260.34577,119.07547 259.99678,116.03639 258.0625,110.5 C 253.04785,96.14674 243.51824,84.342932 232.6875,79.0625 L 226.9375,76.25 L 227.46875,37 L 258.46875,36 L 258.46875,22 L 227.46875,21 L 226.46875,0 L 212.46875,0 z M 218.96875,83.03125 C 228.20434,83.03125 232.411,84.889652 239.75,92.1875 C 250.16002,102.53915 254.82541,117.61455 253.59375,137 C 252.62577,152.23542 250.22138,161.0878 234.25,208.625 C 226.13984,232.76406 219.26971,252.5 218.96875,252.5 C 217.98168,252.5 188.9889,164.95379 186.96875,155.875 C 180.79192,128.11555 184.76384,105.53588 198.1875,92.1875 C 205.52651,84.889653 209.73316,83.031251 218.96875,83.03125 z M 218.96875,95 C 213.36405,95 211.66133,95.451598 208.09375,97.8125 C 205.76702,99.35227 202.51486,102.72727 200.875,105.3125 C 189.0021,124.03017 192.69744,154.54611 214.1875,215.25 C 216.37797,221.4375 218.53321,226.5 218.96875,226.5 C 220.50408,226.5 233.31451,188.26417 238.0625,169.5 C 247.57917,131.88984 244.80053,107.71043 229.84375,97.8125 C 226.27617,95.4516 224.57345,94.999998 218.96875,95 z M 69.46875,129.125 C 81.326559,129.13976 84.922402,129.5388 93.03125,131.71875 C 119.1002,138.72704 144.70335,154.30284 167.4375,177 C 180.69425,190.23518 190.27386,203.01871 197.8125,217.5 C 203.51473,228.45366 205.74569,235.87114 210.9375,261.5 L 213.15625,278 L 225.53125,278 L 227,261.5 C 232.19181,235.87113 234.42277,228.45366 240.125,217.5 C 247.66364,203.01871 257.24325,190.23518 270.5,177 C 293.23415,154.30284 318.83729,138.72704 344.90625,131.71875 C 353.0151,129.5388 356.61094,129.13976 368.46875,129.125 C 381.00513,129.10938 383.3051,129.38939 390.46875,131.78125 C 424.50347,143.14509 440.41441,181.13654 425.1875,214.71875 C 421.57214,222.69225 416.94916,229.58173 402.59375,248.5 C 389.88663,265.24607 380.30759,279.72862 370.09375,297.6875 C 362.91823,310.30415 358.52402,315.50001 354.96875,315.5 C 353.94815,315.5 347.55596,313.93261 340.78125,312 C 319.12623,305.8225 292.8945,300.83035 265.96875,297.8125 C 244.28968,295.38271 193.64782,295.38272 171.96875,297.8125 C 145.043,300.83034 118.81127,305.8225 97.15625,312 C 90.38155,313.93261 83.989352,315.50001 82.96875,315.5 C 79.41349,315.5 75.019273,310.30416 67.84375,297.6875 C 57.62992,279.72861 48.050871,265.24607 35.34375,248.5 C 20.98834,229.58173 16.39661,222.69226 12.78125,214.71875 C -2.4456502,181.13653 13.434031,143.1451 47.46875,131.78125 C 54.632405,129.38938 56.932372,129.10938 69.46875,129.125 z M 68.21875,136.65625 C 44.02777,136.99926 25.000853,151.25743 19.5,174.59375 C 16.36769,187.88198 18.159229,201.73143 24.875,216.0625 C 29.20564,225.30387 33.376084,231.48867 51.1875,255.28125 C 57.48031,263.68722 66.399018,276.67587 71.03125,284.125 C 78.684049,296.43154 79.693167,297.62745 81.96875,297.21875 C 83.34615,296.97136 90.318751,295.10983 97.46875,293.09375 C 127.92967,284.50474 168.30403,278.52953 196.21875,278.5 L 206.46875,278.5 L 205.96875,273.40625 C 205.96875,260.02232 198.51569,235.93023 189.5,220.125 C 167.9388,182.32653 119.32251,145.08961 82.125,137.90625 C 77.343024,136.98279 72.698561,136.59273 68.21875,136.65625 z M 368.65625,136.65625 C 350.81048,136.82373 330.13765,144.41886 307.875,159.34375 C 281.97745,176.70548 260.91744,198.24672 248.4375,220.125 C 239.46774,235.8497 231.96875,260.01932 231.96875,273.25 L 231.96875,278.1875 L 248.71875,278.8125 C 277.8701,279.90889 305.9423,284.05878 334.46875,291.46875 C 342.71875,293.61176 350.59375,295.82155 351.96875,296.375 C 357.60504,298.64369 358.13274,298.19028 366.9375,284.03125 C 371.54324,276.62472 380.48844,263.68722 386.78125,255.28125 C 409.77826,224.56171 415.56718,214.55819 418.5,200.71875 C 422.57256,181.50118 416.9884,161.01494 404.59375,149.8125 C 394.71544,140.88438 382.53629,136.52599 368.65625,136.65625 z M 218.96875,331.03125 C 252.42676,331.03125 273.04148,333.43401 304.5625,341 C 320.44852,344.81312 348.2578,353.78585 352.875,356.59375 C 356.60074,358.85951 357.82004,362.88522 355.84375,366.40625 C 353.21144,371.09604 350.48699,371.14436 338.375,366.6875 C 314.75617,357.99647 287.64317,351.44473 260.46875,347.84375 C 242.20584,345.42366 195.73166,345.42366 177.46875,347.84375 C 150.43736,351.42578 123.18727,357.99578 99.90625,366.5625 C 94.0356,368.72273 88.481108,370.50001 87.5625,370.5 C 85.11564,370.5 80.968751,365.97086 80.96875,363.28125 C 80.96875,357.7015 86.305492,354.81698 111.1875,347.0625 C 147.50959,335.74274 179.27335,331.03124 218.96875,331.03125 z M 219.03125,368.875 C 252.48926,368.875 273.13523,371.27777 304.65625,378.84375 C 320.54227,382.65687 348.32029,391.6296 352.9375,394.4375 C 356.66324,396.70326 357.88254,400.76023 355.90625,404.28125 C 353.27394,408.97104 350.54948,409.01933 338.4375,404.5625 C 314.81867,395.87147 287.70566,389.31974 260.53125,385.71875 C 242.26834,383.29866 195.79415,383.29867 177.53125,385.71875 C 150.49986,389.30078 123.24976,395.87078 99.96875,404.4375 C 94.098101,406.59773 88.543613,408.37499 87.625,408.375 C 85.17814,408.375 81.031247,403.81461 81.03125,401.125 C 81.03125,395.54525 86.368004,392.69196 111.25,384.9375 C 147.57209,373.61774 179.33584,368.87499 219.03125,368.875 z "
       transform="translate(0,8.576477)"
       style="fill:#000000"
       id="Rey" />
  </g>
</svg>
