<?xml version="1.0" encoding="UTF-8"?>
<!DOCTYPE svg PUBLIC "-//W3C//DTD SVG 1.0//EN" "http://www.w3.org/TR/2001/REC-SVG-20010904/DTD/svg10.dtd">
<svg
   xmlns:svg="http://www.w3.org/2000/svg"
   xmlns="http://www.w3.org/2000/svg"
   version="1.0"
   width="64"
   height="64"
   viewBox="0 -3 430 430"
   id="svg2061">
  <g
     transform="translate(-132.7361,-63.84317)"
     id="layer1">
    <rect
       width="77.14286"
       height="70"
       x="72.85714"
       y="105.08702"
       transform="translate(132.7361,63.84317)"
       style="opacity:1;fill:white;fill-opacity:1;fill-rule:nonzero;stroke:none;stroke-width:0.30000001;stroke-linecap:round;stroke-miterlimit:1.39999998;stroke-dasharray:none;stroke-opacity:1"
       id="rect2107" />
    <rect
       width="37.14286"
       height="47.857143"
       x="146.30751"
       y="303.21588"
       style="opacity:1;fill:white;fill-opacity:1;fill-rule:nonzero;stroke:none;stroke-width:0.30000001;stroke-linecap:round;stroke-miterlimit:1.39999998;stroke-dasharray:none;stroke-opacity:1"
       id="rect2994" />
    <path
       d="M 237.85714,53.301304 C 286.0299,51.774447 286.19048,65.682256 310.35715,71.872732 C 310.35715,71.872732 346.34548,100.09905 363.57143,125.08702 C 374.24786,140.57425 393.46158,192.52972 405.58194,247.81572 C 422.37556,324.41837 431.57891,407.415 425.35715,408.65845 L 423.21429,419.01559 C 397.29318,434.96704 327.6538,367.3925 331.42857,307.94416 C 334.84239,254.1803 206.19148,87.81268 202.5,57.944161"
       transform="translate(132.7361,63.84317)"
       style="fill:white;fill-opacity:1;fill-rule:evenodd;stroke:none;stroke-width:1px;stroke-linecap:butt;stroke-linejoin:miter;stroke-opacity:1"
       id="path3002" />
    <g
       transform="translate(48.57143,-1.428576)"
       id="g2079">
      <path
         d="M 205.21983,487.32965 C 204.82393,486.3654 204.5145,480.17647 204.53222,473.57647 C 204.55814,463.92059 205.01603,460.11828 206.87623,454.11171 C 212.31984,436.53437 218.21257,428.54379 245.98759,401.07647 C 269.1573,378.16345 275.04961,370.83058 282.9508,355.07647 C 291.65211,337.72702 295.7804,321.91318 296.65623,302.57647 C 297.20109,290.54695 295.95365,275.63012 294.26128,273.93775 C 293.7236,273.40007 291.56545,274.33367 288.92901,276.24446 C 279.09065,283.37489 264.44754,291.98793 244.85029,302.17143 C 205.29674,322.725 198.5335,328.83253 183.57686,357.50425 C 179.86778,364.61452 175.09351,372.99364 172.96738,376.1245 C 163.52087,390.03511 150.01896,396.43414 141.31382,391.12624 C 137.64629,388.88999 135.87092,386.04023 135.05291,381.07647 C 134.5015,377.73046 134.27865,377.56566 129.98806,377.33073 C 106.71885,376.05667 90.528659,363.97017 85.410046,344.05182 C 82.044143,330.95389 85.610245,312.16069 94.786131,294.64025 C 96.820844,290.75517 104.48304,278.57647 111.81323,267.57647 C 127.91057,243.42012 132.85676,234.54015 137.15699,222.07647 C 140.37545,212.74817 140.43565,212.25115 140.48813,194.57647 C 140.55502,172.04447 140.42898,172.32533 158.43904,154.57647 C 173.575,139.66002 180.00074,130.72113 179.99861,124.58481 C 179.99784,122.38022 179.09847,109.77647 178,96.576466 C 175.68295,68.733108 175.63202,67.076466 177.09301,67.076466 C 177.69416,67.076466 191.07391,74.81449 206.82579,84.272076 C 222.57767,93.729661 236.21329,101.49216 237.12717,101.52208 C 238.04105,101.55199 246.5371,93.340756 256.0073,83.274888 C 266.16312,72.480271 273.84767,65.097011 274.74182,65.274888 C 275.64296,65.454152 280.97834,75.918719 287.89679,91.076466 L 299.53578,116.57647 L 303.51789,116.31756 C 320.03887,115.24341 342.16639,115.73724 350.18222,117.35898 C 378.20804,123.02911 401.95098,135.8889 422.5,156.52816 C 446.1434,180.2754 461.56979,207.67699 476.57272,252.57647 C 497.85439,316.26645 512.6002,403.20312 513.29448,469.07647 L 513.5,488.57647 L 359.71983,488.82965 C 213.96045,489.06962 205.90212,488.99138 205.21983,487.32965 z M 505.63844,479.52893 C 508.14632,477.02106 508.17578,476.81478 507.53093,466.27893 C 503.88612,406.7285 497.52467,360.99141 485.38788,307.07647 C 475.10657,261.40413 464.60212,229.73525 450.89145,203.07647 C 441.85938,185.51467 432.87515,172.93966 420.50816,160.54974 C 396.10139,136.0977 366.86699,123.02366 333,121.41486 C 316.98048,120.65387 298.7506,123.04024 295.20268,126.36269 C 292.10669,129.26192 292.50318,134.63697 296.005,137.23946 C 298.38578,139.00881 299.00562,139.02643 308.505,137.59469 C 345.93203,131.95374 380.54115,142.81199 408.15079,168.85753 C 435.2124,194.38608 454.19965,237.16399 470.38788,309.07647 C 482.11306,361.16295 488.55757,406.27052 492.03259,460.5761 C 492.99683,475.64477 493.36053,477.83134 495.23451,479.8261 C 498.09135,482.86706 502.42408,482.7433 505.63844,479.52893 z M 114.63315,337.1795 C 122.27122,331.86948 125.98969,327.31996 125.99626,323.27681 C 126.00206,319.70928 123.26495,315.26484 120.03273,313.5934 C 110.19981,308.50859 101.43116,318.02679 100.26425,335.05168 C 99.967713,339.37799 100.01423,343.67117 100.36762,344.59208 C 101.10654,346.51767 101.48007,346.32358 114.63315,337.1795 z M 174.1501,211.82647 C 180.18855,208.7366 184.50907,205.52919 189.97788,200.07647 C 196.88903,193.18564 205,181.44098 205,178.32447 C 205,177.61084 203.84571,176.58811 202.4349,176.05172 C 196.03338,173.61787 187.68436,176.25512 182.27049,182.42118 C 179.31055,185.79236 162,213.98986 162,215.44018 C 162,217.06801 166.55326,215.71377 174.1501,211.82647 z "
         style="fill:black;fill-opacity:1"
         id="path2087" />
    </g>
  </g>
</svg>
