<svg xmlns:xlink="http://www.w3.org/1999/xlink" xmlns="http://www.w3.org/2000/svg" id="svgImage" viewBox="0 0 16 32" width="1280"  height="2560" ><rect x="7" y="8" width="1" height="1" fill="#413A42"></rect><rect x="8" y="8" width="1" height="1" fill="#413A42"></rect><rect x="6" y="9" width="1" height="1" fill="#413A42"></rect><rect x="7" y="9" width="1" height="1" fill="#96A2B3"></rect><rect x="8" y="9" width="1" height="1" fill="#96A2B3"></rect><rect x="9" y="9" width="1" height="1" fill="#1F1F29"></rect><rect x="5" y="10" width="1" height="1" fill="#413A42"></rect><rect x="6" y="10" width="1" height="1" fill="#413A42"></rect><rect x="7" y="10" width="1" height="1" fill="#413A42"></rect><rect x="8" y="10" width="1" height="1" fill="#1F1F29"></rect><rect x="9" y="10" width="1" height="1" fill="#1F1F29"></rect><rect x="10" y="10" width="1" height="1" fill="#1F1F29"></rect><rect x="3" y="11" width="1" height="1" fill="#413A42"></rect><rect x="4" y="11" width="1" height="1" fill="#413A42"></rect><rect x="5" y="11" width="1" height="1" fill="#96A2B3"></rect><rect x="6" y="11" width="1" height="1" fill="#96A2B3"></rect><rect x="7" y="11" width="1" height="1" fill="#596070"></rect><rect x="8" y="11" width="1" height="1" fill="#596070"></rect><rect x="9" y="11" width="1" height="1" fill="#596070"></rect><rect x="10" y="11" width="1" height="1" fill="#596070"></rect><rect x="11" y="11" width="1" height="1" fill="#1F1F29"></rect><rect x="12" y="11" width="1" height="1" fill="#1F1F29"></rect><rect x="2" y="12" width="1" height="1" fill="#413A42"></rect><rect x="3" y="12" width="1" height="1" fill="#96A2B3"></rect><rect x="4" y="12" width="1" height="1" fill="#96A2B3"></rect><rect x="5" y="12" width="1" height="1" fill="#596070"></rect><rect x="6" y="12" width="1" height="1" fill="#596070"></rect><rect x="7" y="12" width="1" height="1" fill="#596070"></rect><rect x="8" y="12" width="1" height="1" fill="#596070"></rect><rect x="9" y="12" width="1" height="1" fill="#596070"></rect><rect x="10" y="12" width="1" height="1" fill="#596070"></rect><rect x="11" y="12" width="1" height="1" fill="#596070"></rect><rect x="12" y="12" width="1" height="1" fill="#413A42"></rect><rect x="13" y="12" width="1" height="1" fill="#1F1F29"></rect><rect x="2" y="13" width="1" height="1" fill="#1F1F29"></rect><rect x="3" y="13" width="1" height="1" fill="#96A2B3"></rect><rect x="4" y="13" width="1" height="1" fill="#596070"></rect><rect x="5" y="13" width="1" height="1" fill="#596070"></rect><rect x="6" y="13" width="1" height="1" fill="#413A42"></rect><rect x="7" y="13" width="1" height="1" fill="#413A42"></rect><rect x="8" y="13" width="1" height="1" fill="#413A42"></rect><rect x="9" y="13" width="1" height="1" fill="#413A42"></rect><rect x="10" y="13" width="1" height="1" fill="#413A42"></rect><rect x="11" y="13" width="1" height="1" fill="#413A42"></rect><rect x="12" y="13" width="1" height="1" fill="#413A42"></rect><rect x="13" y="13" width="1" height="1" fill="#1F1F29"></rect><rect x="3" y="14" width="1" height="1" fill="#1F1F29"></rect><rect x="4" y="14" width="1" height="1" fill="#96A2B3"></rect><rect x="5" y="14" width="1" height="1" fill="#596070"></rect><rect x="6" y="14" width="1" height="1" fill="#596070"></rect><rect x="7" y="14" width="1" height="1" fill="#596070"></rect><rect x="8" y="14" width="1" height="1" fill="#596070"></rect><rect x="9" y="14" width="1" height="1" fill="#596070"></rect><rect x="10" y="14" width="1" height="1" fill="#596070"></rect><rect x="11" y="14" width="1" height="1" fill="#413A42"></rect><rect x="12" y="14" width="1" height="1" fill="#1F1F29"></rect><rect x="4" y="15" width="1" height="1" fill="#1F1F29"></rect><rect x="5" y="15" width="1" height="1" fill="#596070"></rect><rect x="6" y="15" width="1" height="1" fill="#596070"></rect><rect x="7" y="15" width="1" height="1" fill="#596070"></rect><rect x="8" y="15" width="1" height="1" fill="#596070"></rect><rect x="9" y="15" width="1" height="1" fill="#596070"></rect><rect x="10" y="15" width="1" height="1" fill="#413A42"></rect><rect x="11" y="15" width="1" height="1" fill="#1F1F29"></rect><rect x="4" y="16" width="1" height="1" fill="#1F1F29"></rect><rect x="5" y="16" width="1" height="1" fill="#413A42"></rect><rect x="6" y="16" width="1" height="1" fill="#596070"></rect><rect x="7" y="16" width="1" height="1" fill="#596070"></rect><rect x="8" y="16" width="1" height="1" fill="#596070"></rect><rect x="9" y="16" width="1" height="1" fill="#413A42"></rect><rect x="10" y="16" width="1" height="1" fill="#413A42"></rect><rect x="11" y="16" width="1" height="1" fill="#1F1F29"></rect><rect x="5" y="17" width="1" height="1" fill="#1F1F29"></rect><rect x="6" y="17" width="1" height="1" fill="#596070"></rect><rect x="7" y="17" width="1" height="1" fill="#596070"></rect><rect x="8" y="17" width="1" height="1" fill="#413A42"></rect><rect x="9" y="17" width="1" height="1" fill="#413A42"></rect><rect x="10" y="17" width="1" height="1" fill="#1F1F29"></rect><rect x="5" y="18" width="1" height="1" fill="#1F1F29"></rect><rect x="6" y="18" width="1" height="1" fill="#596070"></rect><rect x="7" y="18" width="1" height="1" fill="#596070"></rect><rect x="8" y="18" width="1" height="1" fill="#596070"></rect><rect x="9" y="18" width="1" height="1" fill="#413A42"></rect><rect x="10" y="18" width="1" height="1" fill="#1F1F29"></rect><rect x="5" y="19" width="1" height="1" fill="#1F1F29"></rect><rect x="6" y="19" width="1" height="1" fill="#596070"></rect><rect x="7" y="19" width="1" height="1" fill="#596070"></rect><rect x="8" y="19" width="1" height="1" fill="#596070"></rect><rect x="9" y="19" width="1" height="1" fill="#413A42"></rect><rect x="10" y="19" width="1" height="1" fill="#1F1F29"></rect><rect x="5" y="20" width="1" height="1" fill="#1F1F29"></rect><rect x="6" y="20" width="1" height="1" fill="#596070"></rect><rect x="7" y="20" width="1" height="1" fill="#596070"></rect><rect x="8" y="20" width="1" height="1" fill="#596070"></rect><rect x="9" y="20" width="1" height="1" fill="#413A42"></rect><rect x="10" y="20" width="1" height="1" fill="#1F1F29"></rect><rect x="5" y="21" width="1" height="1" fill="#1F1F29"></rect><rect x="6" y="21" width="1" height="1" fill="#596070"></rect><rect x="7" y="21" width="1" height="1" fill="#596070"></rect><rect x="8" y="21" width="1" height="1" fill="#596070"></rect><rect x="9" y="21" width="1" height="1" fill="#413A42"></rect><rect x="10" y="21" width="1" height="1" fill="#1F1F29"></rect><rect x="5" y="22" width="1" height="1" fill="#1F1F29"></rect><rect x="6" y="22" width="1" height="1" fill="#596070"></rect><rect x="7" y="22" width="1" height="1" fill="#596070"></rect><rect x="8" y="22" width="1" height="1" fill="#596070"></rect><rect x="9" y="22" width="1" height="1" fill="#413A42"></rect><rect x="10" y="22" width="1" height="1" fill="#1F1F29"></rect><rect x="5" y="23" width="1" height="1" fill="#1F1F29"></rect><rect x="6" y="23" width="1" height="1" fill="#596070"></rect><rect x="7" y="23" width="1" height="1" fill="#596070"></rect><rect x="8" y="23" width="1" height="1" fill="#596070"></rect><rect x="9" y="23" width="1" height="1" fill="#413A42"></rect><rect x="10" y="23" width="1" height="1" fill="#1F1F29"></rect><rect x="4" y="24" width="1" height="1" fill="#413A42"></rect><rect x="5" y="24" width="1" height="1" fill="#596070"></rect><rect x="6" y="24" width="1" height="1" fill="#596070"></rect><rect x="7" y="24" width="1" height="1" fill="#596070"></rect><rect x="8" y="24" width="1" height="1" fill="#596070"></rect><rect x="9" y="24" width="1" height="1" fill="#413A42"></rect><rect x="10" y="24" width="1" height="1" fill="#413A42"></rect><rect x="11" y="24" width="1" height="1" fill="#1F1F29"></rect><rect x="3" y="25" width="1" height="1" fill="#413A42"></rect><rect x="4" y="25" width="1" height="1" fill="#596070"></rect><rect x="5" y="25" width="1" height="1" fill="#413A42"></rect><rect x="6" y="25" width="1" height="1" fill="#413A42"></rect><rect x="7" y="25" width="1" height="1" fill="#413A42"></rect><rect x="8" y="25" width="1" height="1" fill="#413A42"></rect><rect x="9" y="25" width="1" height="1" fill="#413A42"></rect><rect x="10" y="25" width="1" height="1" fill="#413A42"></rect><rect x="11" y="25" width="1" height="1" fill="#413A42"></rect><rect x="12" y="25" width="1" height="1" fill="#1F1F29"></rect><rect x="2" y="26" width="1" height="1" fill="#413A42"></rect><rect x="3" y="26" width="1" height="1" fill="#96A2B3"></rect><rect x="4" y="26" width="1" height="1" fill="#596070"></rect><rect x="5" y="26" width="1" height="1" fill="#596070"></rect><rect x="6" y="26" width="1" height="1" fill="#596070"></rect><rect x="7" y="26" width="1" height="1" fill="#596070"></rect><rect x="8" y="26" width="1" height="1" fill="#596070"></rect><rect x="9" y="26" width="1" height="1" fill="#596070"></rect><rect x="10" y="26" width="1" height="1" fill="#596070"></rect><rect x="11" y="26" width="1" height="1" fill="#413A42"></rect><rect x="12" y="26" width="1" height="1" fill="#413A42"></rect><rect x="13" y="26" width="1" height="1" fill="#1F1F29"></rect><rect x="2" y="27" width="1" height="1" fill="#413A42"></rect><rect x="3" y="27" width="1" height="1" fill="#596070"></rect><rect x="4" y="27" width="1" height="1" fill="#96A2B3"></rect><rect x="5" y="27" width="1" height="1" fill="#96A2B3"></rect><rect x="6" y="27" width="1" height="1" fill="#96A2B3"></rect><rect x="7" y="27" width="1" height="1" fill="#596070"></rect><rect x="8" y="27" width="1" height="1" fill="#96A2B3"></rect><rect x="9" y="27" width="1" height="1" fill="#596070"></rect><rect x="10" y="27" width="1" height="1" fill="#596070"></rect><rect x="11" y="27" width="1" height="1" fill="#413A42"></rect><rect x="12" y="27" width="1" height="1" fill="#413A42"></rect><rect x="13" y="27" width="1" height="1" fill="#1F1F29"></rect><rect x="2" y="28" width="1" height="1" fill="#1F1F29"></rect><rect x="3" y="28" width="1" height="1" fill="#413A42"></rect><rect x="4" y="28" width="1" height="1" fill="#413A42"></rect><rect x="5" y="28" width="1" height="1" fill="#413A42"></rect><rect x="6" y="28" width="1" height="1" fill="#413A42"></rect><rect x="7" y="28" width="1" height="1" fill="#413A42"></rect><rect x="8" y="28" width="1" height="1" fill="#413A42"></rect><rect x="9" y="28" width="1" height="1" fill="#413A42"></rect><rect x="10" y="28" width="1" height="1" fill="#413A42"></rect><rect x="11" y="28" width="1" height="1" fill="#413A42"></rect><rect x="12" y="28" width="1" height="1" fill="#413A42"></rect><rect x="13" y="28" width="1" height="1" fill="#1F1F29"></rect><rect x="1" y="29" width="1" height="1" fill="#1F1F29"></rect><rect x="2" y="29" width="1" height="1" fill="#96A2B3"></rect><rect x="3" y="29" width="1" height="1" fill="#596070"></rect><rect x="4" y="29" width="1" height="1" fill="#96A2B3"></rect><rect x="5" y="29" width="1" height="1" fill="#96A2B3"></rect><rect x="6" y="29" width="1" height="1" fill="#596070"></rect><rect x="7" y="29" width="1" height="1" fill="#96A2B3"></rect><rect x="8" y="29" width="1" height="1" fill="#596070"></rect><rect x="9" y="29" width="1" height="1" fill="#596070"></rect><rect x="10" y="29" width="1" height="1" fill="#596070"></rect><rect x="11" y="29" width="1" height="1" fill="#596070"></rect><rect x="12" y="29" width="1" height="1" fill="#413A42"></rect><rect x="13" y="29" width="1" height="1" fill="#413A42"></rect><rect x="14" y="29" width="1" height="1" fill="#1F1F29"></rect><rect x="1" y="30" width="1" height="1" fill="#1F1F29"></rect><rect x="2" y="30" width="1" height="1" fill="#1F1F29"></rect><rect x="3" y="30" width="1" height="1" fill="#1F1F29"></rect><rect x="4" y="30" width="1" height="1" fill="#1F1F29"></rect><rect x="5" y="30" width="1" height="1" fill="#1F1F29"></rect><rect x="6" y="30" width="1" height="1" fill="#1F1F29"></rect><rect x="7" y="30" width="1" height="1" fill="#1F1F29"></rect><rect x="8" y="30" width="1" height="1" fill="#1F1F29"></rect><rect x="9" y="30" width="1" height="1" fill="#1F1F29"></rect><rect x="10" y="30" width="1" height="1" fill="#1F1F29"></rect><rect x="11" y="30" width="1" height="1" fill="#1F1F29"></rect><rect x="12" y="30" width="1" height="1" fill="#1F1F29"></rect><rect x="13" y="30" width="1" height="1" fill="#1F1F29"></rect><rect x="14" y="30" width="1" height="1" fill="#1F1F29"></rect><rect x="2" y="31" width="1" height="1" fill="#1F1F29"></rect><rect x="3" y="31" width="1" height="1" fill="#1F1F29"></rect><rect x="4" y="31" width="1" height="1" fill="#1F1F29"></rect><rect x="5" y="31" width="1" height="1" fill="#1F1F29"></rect><rect x="6" y="31" width="1" height="1" fill="#1F1F29"></rect><rect x="7" y="31" width="1" height="1" fill="#1F1F29"></rect><rect x="8" y="31" width="1" height="1" fill="#1F1F29"></rect><rect x="9" y="31" width="1" height="1" fill="#1F1F29"></rect><rect x="10" y="31" width="1" height="1" fill="#1F1F29"></rect><rect x="11" y="31" width="1" height="1" fill="#1F1F29"></rect><rect x="12" y="31" width="1" height="1" fill="#1F1F29"></rect><rect x="13" y="31" width="1" height="1" fill="#1F1F29"></rect></svg>