<svg xmlns="http://www.w3.org/2000/svg" version="1.0" width="64" height="64" viewBox="0 -3 430 430"><path style="opacity:1;fill:#fff;fill-opacity:1;fill-rule:nonzero;stroke:none;stroke-width:.30000001;stroke-linecap:round;stroke-miterlimit:1.39999998;stroke-dasharray:none;stroke-opacity:1" d="M72.857 105.087H150v70H72.857z"/><path style="opacity:1;fill:#fff;fill-opacity:1;fill-rule:nonzero;stroke:none;stroke-width:.30000001;stroke-linecap:round;stroke-miterlimit:1.39999998;stroke-dasharray:none;stroke-opacity:1" d="M146.308 303.216h37.143v47.857h-37.143z" transform="translate(-132.736 -63.843)"/><path d="M237.857 53.301c48.173-1.527 48.333 12.381 72.5 18.572 0 0 35.988 28.226 53.214 53.214 10.677 15.487 29.89 67.443 42.01 122.729 16.795 76.602 25.998 159.599 19.776 160.842l-2.143 10.358c-25.92 15.951-95.56-51.624-91.785-111.072 3.413-53.764-125.238-220.131-128.929-250" style="fill:#fff;fill-opacity:1;fill-rule:evenodd;stroke:none;stroke-width:1px;stroke-linecap:butt;stroke-linejoin:miter;stroke-opacity:1"/><path d="M205.22 487.33c-.396-.965-.706-7.154-.688-13.754.026-9.655.484-13.458 2.344-19.464 5.444-17.578 11.337-25.568 39.112-53.036 23.17-22.913 29.062-30.245 36.963-46 8.701-17.349 12.83-33.163 13.705-52.5.545-12.03-.702-26.946-2.395-28.638-.537-.538-2.696.396-5.332 2.306-9.838 7.13-24.481 15.744-44.079 25.927-39.553 20.554-46.316 26.662-61.273 55.333-3.71 7.11-8.483 15.49-10.61 18.62-9.446 13.911-22.948 20.31-31.653 15.002-3.668-2.236-5.443-5.086-6.261-10.05-.552-3.346-.774-3.51-5.065-3.745-23.27-1.274-39.46-13.36-44.578-33.28-3.366-13.097.2-31.89 9.376-49.41 2.035-3.886 9.697-16.065 17.027-27.065 16.098-24.156 21.044-33.036 25.344-45.5 3.218-9.328 3.279-9.825 3.331-27.5.067-22.532-.059-22.25 17.951-40 15.136-14.916 21.562-23.855 21.56-29.991-.001-2.205-.9-14.809-1.999-28.009-2.317-27.843-2.368-29.5-.907-29.5.601 0 13.98 7.738 29.733 17.196 15.752 9.458 29.387 17.22 30.301 17.25.914.03 9.41-8.181 18.88-18.247 10.156-10.795 17.84-18.178 18.735-18 .901.18 6.236 10.644 13.155 25.801l11.639 25.5 3.982-.258c16.52-1.075 38.648-.58 46.664 1.041 28.026 5.67 51.769 18.53 72.318 39.17 23.643 23.746 39.07 51.148 54.073 96.047 21.281 63.69 36.027 150.627 36.721 216.5l.206 19.5-153.78.254c-145.76.24-153.818.161-154.5-1.5zm300.418-7.801c2.508-2.508 2.538-2.714 1.893-13.25-3.645-59.55-10.006-105.288-22.143-159.203-10.281-45.672-20.786-77.34-34.497-104-9.032-17.561-18.016-30.136-30.383-42.526-24.407-24.452-53.641-37.526-87.508-39.135-16.02-.761-34.25 1.625-37.797 4.948-3.096 2.899-2.7 8.274.802 10.876 2.38 1.77 3 1.787 12.5.356 37.427-5.641 72.036 5.217 99.646 31.263 27.061 25.528 46.049 68.306 62.237 140.218 11.725 52.087 18.17 97.195 21.645 151.5.964 15.069 1.328 17.255 3.202 19.25 2.856 3.041 7.19 2.917 10.403-.297zm-391.005-142.35c7.638-5.31 11.357-9.859 11.363-13.902.006-3.568-2.731-8.012-5.963-9.684-9.833-5.084-18.602 4.434-19.769 21.459-.296 4.326-.25 8.62.104 9.54.739 1.926 1.112 1.732 14.265-7.412zm59.517-125.353c6.039-3.09 10.36-6.297 15.828-11.75 6.911-6.89 15.022-18.635 15.022-21.752 0-.713-1.154-1.736-2.565-2.272-6.402-2.434-14.75.203-20.165 6.37-2.96 3.37-20.27 31.568-20.27 33.018 0 1.628 4.553.274 12.15-3.614z" style="fill:#000;fill-opacity:1" transform="translate(-84.165 -65.272)"/></svg>