<svg xmlns="http://www.w3.org/2000/svg" version="1.0" width="64" height="64" viewBox="0 0 504 504"><path d="M90 430.5V412h25v-42.71l21-22.361 21-22.362V175.45l-24.444-18.475-24.444-18.475-.056-33.75L108 71h57v30h52V71h70v30h52V71h57l-.052 33.75-.052 33.75-24.447 18.5-24.446 18.5-.001 74.696-.002 74.696 20.971 22.304 20.971 22.304.03 21.25L389 412h25v37H90v-18.5zm289.733-13.466c3.957-3.686 3.696-8.418-.646-11.752-1.228-.943-30.023-1.226-127.148-1.25-123.482-.031-125.597 0-127.672 1.934-3.957 3.686-3.696 8.418.646 11.752 1.228.943 30.023 1.226 127.148 1.25 123.482.031 125.597 0 127.672-1.934zm0-42c3.957-3.686 3.696-8.418-.646-11.752-1.228-.943-30.023-1.226-127.148-1.25-123.482-.031-125.597 0-127.672 1.934-3.957 3.686-3.696 8.418.646 11.752 1.228.943 30.023 1.226 127.148 1.25 123.482.031 125.597 0 127.672-1.934zm-42.188-45.489c3.129-3.128 3.129-6.962 0-10.09L335.091 317H168.91l-2.455 2.455c-3.129 3.128-3.129 6.962 0 10.09l2.454 2.455H335.09l2.455-2.455zm0-149c3.129-3.128 3.129-6.962 0-10.09L335.091 168H168.91l-2.455 2.455c-3.129 3.128-3.129 6.962 0 10.09l2.454 2.455H335.09l2.455-2.455zm50-38c3.129-3.128 3.129-6.962 0-10.09L385.091 130H118.91l-2.455 2.455c-3.129 3.128-3.129 6.962 0 10.09l2.454 2.455H385.09l2.455-2.455z" style="fill:#000"/></svg>