<svg xmlns="http://www.w3.org/2000/svg" version="1.0" width="64" height="64"><path d="M30.768 10.924a3.118 3.118 0 0 0-3.128 3.111c0 1.717 1.397 3.102 3.128 3.102 1.732 0 3.137-1.385 3.137-3.102 0-1.717-1.405-3.11-3.137-3.11zm0 6.213C16.967 22.113 16.1 34.555 23.001 36.421l-2.63 6.439c2.902 3.988 17.65 4.211 20.913 0l-2.74-6.439c6.901-1.866 6.026-14.308-7.776-19.284zm0 29.142c-2.782 1.981-5.44 5.142-9.52 2.723-3.702-2.197-11.4 3.154-12.201 3.91l2.84 2.979c5.928-4.447 12.889-.192 18.881-4.155 5.498 4.122 13.865-.769 20.71 4.343l3.475-3.167s-10.448-4.833-13.922-3.91c-6.022 1.6-7.601-.828-10.263-2.723zm.004-22.386v6.22m-3.137-3.11h6.274" style="fill:#fff;fill-opacity:1;fill-rule:evenodd;stroke:#000;stroke-width:2;stroke-linecap:round;stroke-linejoin:miter;stroke-miterlimit:4;stroke-dasharray:none;stroke-opacity:1;display:inline" transform="matrix(1.00161 0 0 1.01827 -.052 -2.114)"/><path d="M22.682 36.572c4.182-2.11 11.876-1.672 16.058 0" style="fill:none;fill-opacity:.75;fill-rule:evenodd;stroke:#000;stroke-width:2;stroke-linecap:butt;stroke-linejoin:miter;stroke-miterlimit:4;stroke-dasharray:none;stroke-opacity:1;display:inline" transform="matrix(1.00161 0 0 1.01827 -.052 -2.114)"/><path d="M21.03 42.853c6.044-3.381 12.623-3.805 19.251-.187" style="fill:none;stroke:#000;stroke-width:2;stroke-linecap:butt;stroke-linejoin:miter;stroke-miterlimit:4;stroke-dasharray:none;stroke-opacity:1;display:inline" transform="matrix(1.00161 0 0 1.01827 -.052 -2.114)"/></svg>