<svg id="Layer_2" data-name="Layer 2" xmlns="http://www.w3.org/2000/svg" viewBox="0 0 12.61 12.6"><defs><style>.cls-1{fill:#fff}</style></defs><g id="Layer_1-2" data-name="Layer 1"><path class="cls-1" d="M6.3 12.6c-1.32 0-2.57-.4-3.62-1.15A6.257 6.257 0 0 1-.01 6.31C0 2.83 2.83 0 6.3 0s6.3 2.83 6.3 6.3c0 2.04-1 3.97-2.68 5.15a6.308 6.308 0 0 1-3.63 1.15ZM6.3.75C3.24.75.75 3.24.75 6.3c0 1.81.88 3.5 2.37 4.53 1.83 1.32 4.48 1.33 6.38 0a5.54 5.54 0 0 0 2.36-4.53C11.86 3.24 9.37.75 6.3.75Z"/><path class="cls-1" d="M6.3 12.6c-1.32 0-2.57-.4-3.62-1.15a.366.366 0 0 1-.16-.3v-.92c0-1.77 1.44-3.21 3.21-3.21h1.12c1.78 0 3.23 1.44 3.23 3.21v.92c0 .12-.06.24-.16.31a6.3 6.3 0 0 1-3.62 1.15Zm-3.03-1.65c1.76 1.17 4.23 1.19 6.06 0v-.72c0-1.36-1.11-2.46-2.48-2.46H5.73c-1.36 0-2.46 1.11-2.46 2.46v.72Zm6.44.2ZM6.3 6.29c-1.15 0-2.08-.94-2.08-2.09s.94-2.09 2.08-2.09 2.09.94 2.09 2.09-.94 2.09-2.09 2.09Zm0-3.42c-.74 0-1.33.6-1.33 1.34s.6 1.34 1.33 1.34 1.34-.6 1.34-1.34-.6-1.34-1.34-1.34Z"/></g></svg>