<svg id="Layer_2" data-name="Layer 2" xmlns="http://www.w3.org/2000/svg" viewBox="0 0 10.59 12.03"><defs><style>.cls-1{fill:#fff}</style></defs><g id="Layer_1-2" data-name="Layer 1"><path class="cls-1" d="M10.21 9.78H.37c-.14 0-.28-.08-.34-.21a.41.41 0 0 1 .04-.4A5.831 5.831 0 0 0 1.3 4.81c0-2.17 1.73-3.9 3.85-3.9S9 2.64 9 4.76c-.07.58-.09 1.41.21 2.33.32.97.86 1.65 1.26 2.04.11.11.14.27.08.41-.06.14-.2.23-.35.23Zm-9.12-.75H9.4c-.33-.44-.66-1-.88-1.7-.27-.84-.36-1.74-.25-2.61 0-1.66-1.39-3.05-3.1-3.05s-3.1 1.39-3.11 3.1c.1.75.05 1.54-.14 2.32-.17.68-.45 1.34-.82 1.94Z"/><path class="cls-1" d="M5.29 1.67a.38.38 0 0 1-.38-.38V.38a.38.38 0 1 1 .76 0v.92c0 .21-.17.38-.38.38ZM6.99 10.56c0 .82-.76 1.47-1.69 1.47s-1.7-.65-1.7-1.47h3.39Z"/></g></svg>