<svg id="Layer_2" data-name="Layer 2" xmlns="http://www.w3.org/2000/svg" viewBox="0 0 10.83 10.87"><defs><style>.cls-1{fill:#fff}</style></defs><g id="Layer_1-2" data-name="Layer 1"><path class="cls-1" d="M4.4 8.79C1.97 8.79 0 6.82 0 4.4S1.97 0 4.4 0a4.4 4.4 0 0 1 0 8.8ZM4.4 1C2.53 1 1 2.52 1 4.4s1.52 3.4 3.4 3.4 3.4-1.52 3.4-3.4S6.28 1 4.4 1Z"/><path class="cls-1" d="M10.33 10.87a.47.47 0 0 1-.35-.15l-3.2-3.2c-.2-.2-.2-.51 0-.71s.51-.2.71 0l3.2 3.2c.2.2.2.51 0 .71-.1.1-.23.15-.35.15Z"/></g></svg>