<svg xmlns="http://www.w3.org/2000/svg" version="1.0" width="64" height="64" viewBox="0 0 504 504"><path d="M277.976 79.998a26.39 26.39 0 1 1-52.78 0 26.39 26.39 0 1 1 52.78 0z" transform="matrix(.96667 0 0 .96667 9.266 .028)" style="fill:#000;fill-opacity:1;stroke:none;stroke-width:.2;stroke-miterlimit:4;stroke-dasharray:none"/><path d="M253.103 101.99s85.108 58.498 96.764 78.29c26.945 45.757 28.7 91.036-21.992 120.516-.937.545 15.642 57.925 14.075 58.938-39.833 25.758-75.652 23.75-75.652 23.75s13.195 37.387 108.2 27.27c49.659-5.238 81.81 34.308 81.81 34.308l-27.27 29.03s-33.624-28.905-79.17-26.391c-67.736 3.739-96.765-21.992-96.765-21.992s-35.145 26.366-87.967 21.992c-56.496-4.679-85.328 27.27-85.328 27.27l-30.789-29.03s43.58-43.687 107.32-36.066c67.063 8.019 83.57-23.751 83.57-23.751s-45.054-6.821-75.653-26.39c-1.348-.863 14.075-58.938 14.075-58.938s-80.05-44.66-17.593-126.673c16.3-21.404 92.365-72.133 92.365-72.133z" style="fill:#000;fill-opacity:1;fill-rule:evenodd;stroke:none;stroke-width:1.79999995;stroke-linecap:butt;stroke-linejoin:miter;stroke-miterlimit:4;stroke-dasharray:none;stroke-opacity:1"/><path style="fill:#fff;fill-opacity:1;stroke:none;stroke-width:1.79999995;stroke-miterlimit:4;stroke-dasharray:none;stroke-opacity:1" d="M244.989 173.903h15.174v65.316h-15.174z"/><path style="fill:#fff;fill-opacity:1;stroke:none;stroke-width:1.79999995;stroke-miterlimit:4;stroke-dasharray:none;stroke-opacity:1" d="M219.918 198.974h63.996v14.954h-63.996z"/><path d="M187.81 295.078c35.347-23.043 98.965-21.625 128.432-.44.161.116-6.052 12.542-6.378 12.315-24.19-16.86-85.75-18.36-114.577 0-.282.18-7.713-11.721-7.477-11.875zM171.388 355.096c45.244-38.437 122.497-35.26 160.54-.44.147.134-8.047 11.684-8.356 11.436-31.448-25.217-106.253-33.656-142.727.22-.209.194-9.672-11.033-9.457-11.216z" style="fill:#fff;fill-opacity:1;fill-rule:evenodd;stroke:none;stroke-width:1px;stroke-linecap:butt;stroke-linejoin:miter;stroke-opacity:1"/></svg>