<svg xmlns="http://www.w3.org/2000/svg" version="1.0" width="64" height="64" viewBox="-5 -10 450 450"><path d="m212.469 0-1 21-32 1v14l32 1v38.875l-6 3.031c-11.221 5.665-20.565 17.2-25.594 31.594-1.934 5.536-2.283 8.575-2.313 20.5-.04 16.226 1.343 23.834 8.094 44.813 2.446 7.6 4.28 14.287 4.094 14.843-.185.557-3.366-2.614-7.094-7.031-25.784-30.554-64.278-54.342-98.187-60.688-32.501-6.081-63.363 8.25-76.906 35.688-9.82 19.895-10.078 38.38-.782 58.219 4.646 9.913 8.802 16.203 23.563 35.656 12.182 16.055 22.506 31.584 30.593 46 2.932 5.225 6.147 10.4 7.126 11.5 1.431 1.61 2.18 6.348 3.843 24.219 2.58 27.717 2.588 28.871-.094 50.656-2.149 17.46-2.177 17.91-.343 19.25 33.206 17.36 62.795 26.252 147.469 26.188 84.736-.065 114.007-8.71 147.53-26.188 2.015-1.05 1.837-1.79-.312-19.25-2.681-21.785-2.705-22.94-.125-50.656 1.664-17.871 2.412-22.61 3.844-24.219.979-1.1 4.194-6.275 7.125-11.5 8.088-14.416 18.411-29.945 30.594-46 14.76-19.453 18.917-25.743 23.562-35.656 9.297-19.838 9.04-38.324-.781-58.219-13.544-27.438-44.406-41.769-76.906-35.688-33.91 6.346-72.373 30.134-98.156 60.688-3.728 4.417-6.94 7.588-7.125 7.031-.186-.556 1.679-7.244 4.125-14.844 6.75-20.978 8.102-28.586 8.062-44.812-.03-11.925-.378-14.964-2.313-20.5-5.014-14.353-14.544-26.157-25.375-31.438l-5.75-2.812.532-39.25 31-1V22l-31-1-1-21h-14zm6.5 83.031c9.235 0 13.442 1.859 20.781 9.156 10.41 10.352 15.075 25.428 13.844 44.813-.968 15.235-3.373 24.088-19.344 71.625-8.11 24.14-14.98 43.875-15.281 43.875-.987 0-29.98-87.546-32-96.625-6.177-27.76-2.205-50.34 11.219-63.688 7.339-7.297 11.545-9.156 20.78-9.156zm0 11.969c-5.605 0-7.308.452-10.875 2.813-2.327 1.54-5.58 4.914-7.219 7.5-11.873 18.717-8.178 49.233 13.313 109.937 2.19 6.188 4.345 11.25 4.78 11.25 1.536 0 14.347-38.236 19.095-57 9.516-37.61 6.738-61.79-8.22-71.688-3.567-2.36-5.27-2.812-10.874-2.812zm-149.5 34.125c11.858.015 15.453.414 23.562 2.594 26.07 7.008 51.672 22.584 74.406 45.281 13.257 13.235 22.837 26.019 30.375 40.5 5.703 10.954 7.934 18.371 13.125 44l2.22 16.5h12.374L227 261.5c5.192-25.629 7.423-33.046 13.125-44 7.539-14.481 17.118-27.265 30.375-40.5 22.734-22.697 48.337-38.273 74.406-45.281 8.11-2.18 11.705-2.58 23.563-2.594 12.536-.016 14.836.264 22 2.656 34.034 11.364 49.945 49.356 34.719 82.938-3.616 7.973-8.239 14.863-22.594 33.781-12.707 16.746-22.286 31.229-32.5 49.188-7.176 12.616-11.57 17.812-15.125 17.812-1.02 0-7.413-1.567-14.188-3.5-21.655-6.178-47.887-11.17-74.812-14.188-21.68-2.43-72.321-2.43-94 0-26.926 3.018-53.158 8.01-74.813 14.188-6.774 1.933-13.167 3.5-14.187 3.5-3.556 0-7.95-5.196-15.125-17.813-10.214-17.958-19.793-32.44-32.5-49.187-14.356-18.918-18.947-25.808-22.563-33.781-15.227-33.582.653-71.574 34.688-82.938 7.163-2.392 9.463-2.672 22-2.656zm-1.25 7.531C44.028 137 25 151.257 19.5 174.594c-3.132 13.288-1.34 27.137 5.375 41.469 4.33 9.24 8.501 15.426 26.313 39.218 6.292 8.406 15.211 21.395 19.843 28.844 7.653 12.307 8.662 13.502 10.938 13.094 1.377-.248 8.35-2.11 15.5-4.125 30.46-8.59 70.835-14.564 98.75-14.594h10.25l-.5-5.094c0-13.384-7.453-37.476-16.469-53.281-21.561-37.798-70.177-75.035-107.375-82.219a68.125 68.125 0 0 0-13.906-1.25zm300.437 0c-17.846.168-38.518 7.763-60.781 22.688-25.898 17.361-46.958 38.903-59.438 60.781-8.97 15.725-16.468 39.894-16.468 53.125v4.938l16.75.625c29.151 1.096 57.223 5.246 85.75 12.656 8.25 2.143 16.125 4.353 17.5 4.906 5.636 2.269 6.164 1.815 14.969-12.344 4.605-7.406 13.55-20.344 19.843-28.75 22.997-30.72 28.786-40.723 31.719-54.562 4.073-19.218-1.512-39.704-13.906-50.906-9.879-8.929-22.058-13.287-35.938-13.157zM218.97 331.031c33.458 0 54.072 2.403 85.594 9.969 15.886 3.813 43.695 12.786 48.312 15.594 3.726 2.266 4.945 6.291 2.969 9.812-2.633 4.69-5.357 4.738-17.469.281-23.619-8.69-50.732-15.242-77.906-18.843-18.263-2.42-64.737-2.42-83 0-27.032 3.582-54.282 10.152-77.563 18.719-5.87 2.16-11.425 3.937-12.344 3.937-2.446 0-6.593-4.53-6.593-7.219 0-5.58 5.336-8.464 30.219-16.219 36.322-11.32 68.085-16.03 107.78-16.03zm.062 37.844c33.458 0 54.104 2.403 85.625 9.969 15.886 3.813 43.664 12.786 48.281 15.594 3.726 2.265 4.946 6.322 2.97 9.843-2.633 4.69-5.358 4.738-17.47.281-23.618-8.69-50.731-15.242-77.906-18.843-18.263-2.42-64.737-2.42-83 0C150.5 389.3 123.25 395.87 99.97 404.438c-5.87 2.16-11.425 3.937-12.344 3.937-2.447 0-6.594-4.56-6.594-7.25 0-5.58 5.337-8.433 30.219-16.188 36.322-11.32 68.086-16.062 107.781-16.062z" style="fill:#000"/></svg>