<svg xmlns="http://www.w3.org/2000/svg" version="1.0" width="64" height="64" viewBox="0 0 504 504"><path d="M180.917 459.93c-20.704-1.452-39.947-5.473-55.389-11.573-9.341-3.691-21.004-9.7-22.022-11.347-.32-.518 3.71-10.81 8.956-22.871 5.246-12.061 9.538-22.454 9.538-23.096 0-1.255-15.852-37.931-18.985-43.925-1.04-1.99-9.976-13.464-19.857-25.498l-17.965-21.88-1.184-9.62c-.652-5.291-5.545-44.495-10.874-87.12l-9.69-77.498-5.696-.712c-16.446-2.054-26.268-16.68-21.282-31.69 2.119-6.38 5.358-10.325 11.388-13.87C31.8 76.912 33.632 76.5 40 76.5c6.368 0 8.201.412 12.145 2.73 6.03 3.545 9.27 7.49 11.388 13.87 3.618 10.893-1.093 23.077-11.086 28.67-1.156.647 6.241 16.632 36.683 79.27 20.973 43.153 38.193 78.542 38.267 78.642.205.278 10.701-187.799 10.649-190.813-.04-2.254-.664-2.787-4.346-3.714-5.971-1.504-12.05-6.191-15.383-11.863-2.42-4.116-2.817-5.86-2.817-12.37 0-6.687.356-8.158 3.03-12.5 10.049-16.328 32.891-16.328 42.94 0 2.68 4.354 3.03 5.804 3.03 12.578 0 6.764-.352 8.23-3.018 12.578-1.802 2.938-5.05 6.264-8.059 8.25l-5.04 3.328 31.555 91.422c17.355 50.282 31.782 91.422 32.058 91.421.348 0 33.135-186.556 35.38-201.307.069-.445-1.564-1.405-3.628-2.133-5.517-1.948-10.339-6.006-13.476-11.343-2.37-4.033-2.772-5.813-2.772-12.294 0-6.687.356-8.158 3.03-12.5 10.049-16.328 32.891-16.328 42.94 0 2.674 4.342 3.03 5.813 3.03 12.5 0 6.48-.401 8.26-2.772 12.294-3.137 5.337-7.96 9.395-13.476 11.343-2.064.728-3.697 1.688-3.629 2.133 2.246 14.751 35.033 201.307 35.38 201.307.277 0 14.704-41.139 32.059-91.421l31.555-91.422-5.04-3.328c-3.008-1.986-6.257-5.312-8.059-8.25-2.666-4.347-3.018-5.814-3.018-12.578 0-6.774.35-8.224 3.03-12.578 10.049-16.328 32.891-16.328 42.94 0 2.674 4.342 3.03 5.813 3.03 12.5 0 6.51-.397 8.254-2.817 12.37-3.334 5.672-9.412 10.36-15.383 11.863-3.682.927-4.307 1.46-4.346 3.714-.052 3.014 10.444 191.091 10.65 190.813.073-.1 17.293-35.489 38.266-78.642 30.442-62.638 37.84-78.623 36.683-79.27-9.993-5.593-14.704-17.777-11.086-28.67 2.119-6.38 5.358-10.325 11.388-13.87 3.944-2.318 5.777-2.73 12.145-2.73 6.368 0 8.201.412 12.145 2.73 6.03 3.545 9.27 7.49 11.388 13.87 4.986 15.01-4.836 29.636-21.282 31.69l-5.696.712-9.69 77.499c-5.329 42.624-10.222 81.828-10.874 87.119l-1.184 9.62-17.965 21.88c-9.881 12.034-18.817 23.508-19.857 25.498-3.133 5.994-18.985 42.67-18.985 43.925 0 .642 4.292 11.035 9.538 23.096 5.246 12.06 9.276 22.353 8.956 22.87-2.294 3.713-26.341 13.788-41.798 17.513-22.394 5.396-26.873 5.662-99.696 5.915-37.125.13-72.262-.1-78.083-.507zM121.8 442.61c5.192-2.674 34.808-12.372 47.2-15.456 28.65-7.13 50.168-9.625 83-9.625 25.802 0 37.584.909 58.897 4.544 21.222 3.619 45.707 10.48 66.313 18.583l8.71 3.425 4.089-2.086c4.569-2.33 5.496-3.846 4.582-7.489-.815-3.247-6.177-5.922-24.591-12.268-63.041-21.726-126.282-25.908-190.5-12.598-22.06 4.573-53.334 14.228-64.733 19.986-7.395 3.735-7.827 8.713-1.067 12.28 4.61 2.433 4.722 2.443 8.1.704zm32.202-51.405c19.95-8.59 40.608-14.454 62.998-17.884 16.035-2.457 53.87-2.465 70-.016 23.338 3.544 45.841 10.181 68.41 20.176 10.273 4.55 12.344 5.152 14.79 4.3 5.505-1.92 6.496-8.176 1.906-12.039-6.92-5.822-40.52-18.318-62.106-23.097-22.624-5.009-32.888-6.086-58-6.086-25.112 0-35.376 1.077-58 6.086-21.585 4.779-55.187 17.275-62.106 23.097-4.52 3.804-3.788 9.558 1.499 11.781 2.55 1.073 3.62 1.067 6.1-.033 1.654-.733 8.183-3.562 14.51-6.285zm-23.498-43.206c24.91-9.336 51.613-15.898 79.996-19.659 18.263-2.42 64.737-2.42 83 0 28.507 3.778 55.077 10.32 80.3 19.773 14.962 5.606 17.332 5.688 20.136.692 2.312-4.12.552-7.815-5.048-10.595-8.282-4.111-32.455-12.058-49.094-16.138-32.986-8.09-53.464-10.55-87.794-10.55-15.572 0-30.83.533-37 1.292-34.444 4.237-64.524 11.496-92.743 22.379-10.48 4.041-13.257 6.257-13.257 10.575 0 2.666 4.125 7.232 6.533 7.232.894 0 7.63-2.25 14.97-5.001z" style="fill:#000"/></svg>