<svg xmlns="http://www.w3.org/2000/svg" version="1.0" width="64" height="64" viewBox="0 0 700 700"><path d="M350 152c-102 0-52 179 0 253 53-69 86-253 0-253z" style="fill:#fff;stroke:#000;stroke-width:24;stroke-linecap:round;stroke-linejoin:round"/><path d="M570 493v143c-136 61-304 57-440 0V493c-64-78-174-254-11-275 132-18 207 114 231 242 20-129 99-266 231-242 169 29 42 192-11 275z" style="fill:#fff;stroke:#000;stroke-width:24;stroke-linecap:round;stroke-linejoin:round"/><path d="M130 493c141-45 299-42 440 0M130 570c141-45 299-42 440 0M130 636c141-45 299-42 440 0" style="fill:#fff;stroke:#000;stroke-width:24"/><path d="M350 31v121M284 86h132" style="stroke:#000;stroke-width:24"/></svg>