<svg xmlns="http://www.w3.org/2000/svg" version="1.0" width="64" height="64"><path d="M34.904 23.969c.313 3.968-2.156 8.718-10.75 11.375-6.469 3.031-8.281 11.375-11.625 11.75-.449-.634-3.757-.297.15-5.04-3.858 4.686-9.138.546-8.15-3.585.5-5.5 6.875-10.407 7.375-14.5-2-5.344 4.5-9.875 4.5-9.875l.125-8.75 8 4.5 4.25-5 3.25 6.875c25-4.75 26.469 35.687 27.563 47.375l-39.688.062c-2.187-9.062 13.188-14.312 11.75-27.562M24.53 9.844l-7.625 4" style="fill:#fff;fill-opacity:1;stroke:#000;stroke-width:2;stroke-linecap:round;stroke-linejoin:round;stroke-miterlimit:4;stroke-dashoffset:0;stroke-opacity:1"/><path d="M72.09 13.334c.773-.936 2.018-.946 2.801-.023.783.924.815 2.441.072 3.413-.742.972-1.987 1.04-2.798.154-.811-.887-.891-2.402-.18-3.407" transform="matrix(.51974 .21576 -.3834 .92358 -15.897 -8.613)" style="fill:#000;fill-opacity:1;stroke:none;stroke-width:1.33304513;stroke-linecap:round;stroke-linejoin:round;stroke-miterlimit:4;stroke-dasharray:none;stroke-dashoffset:0;stroke-opacity:1"/><path d="M72.09 13.334c.773-.936 2.018-.946 2.801-.023.783.924.815 2.441.072 3.413-.742.972-1.987 1.04-2.798.154-.811-.887-.891-2.402-.18-3.407" transform="matrix(.51974 .21576 -.3834 .92358 -23.897 10.137)" style="fill:#000;fill-opacity:1;stroke:none;stroke-width:1.33304513;stroke-linecap:round;stroke-linejoin:round;stroke-miterlimit:4;stroke-dasharray:none;stroke-dashoffset:0;stroke-opacity:1"/></svg>