<svg xmlns="http://www.w3.org/2000/svg" width="42" height="42" style="shape-rendering:geometricPrecision;text-rendering:geometricPrecision;image-rendering:optimizeQuality;fill-rule:evenodd;clip-rule:evenodd"><path style="opacity:1" d="M17.5 2.5v6h-3v-6h3Z"/><path style="opacity:1" fill="#0b0b0b" d="M17.5-.5h6v3h3v6h-3v3h-6v-3h3v-6h-3v-3Z"/><path style="opacity:1" fill="#353535" d="M17.5 2.5h3v6h-3v-6Z"/><path style="opacity:1" d="M-.5 11.5h3v3h-3v-3ZM41.5 11.5v3h-3v-3h3ZM2.5 14.5h6v3h-3v6h-3v-9ZM23.5 17.5h-6v-3h6v3ZM8.5 17.5h3v3-3h-3ZM17.5 17.5v3h-3v-3h3Z"/><path style="opacity:1" fill="#2e2e2e" d="M17.5 17.5h6v3h3v6h-3v3h-3v3h-9v-9h3v-3h3v-3Z"/><path style="opacity:1" d="M23.5 17.5h3v3-3h-3Z"/><path style="opacity:1" fill="#111" d="M38.5 14.5v9h-3v6h-6v3h-9v-3h3v-3h3v-6h3v-3h3v-3h6Z"/><path style="opacity:1" fill="#4d4d4d" d="M8.5 17.5v3h3v9h-3v-6h-3v-6h3Z"/><path style="opacity:1" d="M11.5 20.5h3v3h-3v-3ZM5.5 23.5h3v6h-3v-6Z"/><path style="opacity:1" fill="#050505" d="M8.5 29.5h3v3h18v-3h3v9h-9v-3h-15v-6Z"/><path style="opacity:1" d="M8.5 35.5v3h24v-3h3v6h-30v-6h3Z"/><path style="opacity:1" fill="#595a59" d="M8.5 35.5h3v3h-3v-3Z"/><path style="opacity:1" fill="#2d2d2d" d="M11.5 35.5h12v3h-12v-3Z"/></svg>