<svg xmlns="http://www.w3.org/2000/svg" width="42" height="42" style="shape-rendering:geometricPrecision;text-rendering:geometricPrecision;image-rendering:optimizeQuality;fill-rule:evenodd;clip-rule:evenodd"><path style="opacity:1" d="M17.5-.5h6v3h-6v-3ZM17.5 2.5v6h-3v-6h3Z"/><path style="opacity:1" fill="#9f9f9f" d="M17.5 2.5h6v6h-6v-6Z"/><path style="opacity:1" d="M23.5 2.5h3v6h-3v-6ZM17.5 8.5h6v3h-6v-3ZM17.5 11.5v3h-3v-3h3ZM23.5 11.5h3v3h-3v-3ZM14.5 14.5v3h-3v-3h3Z"/><path style="opacity:1" fill="#c8c8c8" d="M17.5 11.5h6v6h-3v15h-6v-3h-3v-12h3v-3h3v-3Z"/><path style="opacity:1" d="M26.5 14.5h3v3h-3v-3ZM11.5 17.5v12h-3v-12h3ZM23.5 17.5h3v3h-3v-3ZM29.5 17.5h3v12h-3v-12ZM20.5 20.5h3v3h-3v-3Z"/><path style="opacity:1" fill="#9f9f9f" d="M26.5 17.5h3v12h-3v3h-6v-9h3v-3h3v-3Z"/><path style="opacity:1" d="M11.5 29.5h3v3h12v-3h3v3h3v3h-24v-3h3v-3ZM8.5 35.5v3h24v-3h3v6h-30v-6h3Z"/><path style="opacity:1" fill="#cacaca" d="M8.5 35.5h12v3h-12v-3Z"/><path style="opacity:1" fill="#8f8f8f" d="M20.5 35.5h12v3h-12v-3Z"/></svg>