<svg xmlns="http://www.w3.org/2000/svg" width="42" height="42" style="shape-rendering:geometricPrecision;text-rendering:geometricPrecision;image-rendering:optimizeQuality;fill-rule:evenodd;clip-rule:evenodd"><path style="opacity:1" d="M17.5-.5h6v3h-6v-3ZM17.5 2.5v6h-3v-6h3ZM23.5 2.5h3v6h-3v-6Z"/><path style="opacity:1" fill="#ababab" d="M17.5 2.5h6v6h-6v-6Z"/><path style="opacity:1" d="M14.5 8.5v3h-9v-3h9ZM17.5 8.5h6v3h-6v-3ZM26.5 8.5h9v3h-9v-3ZM5.5 11.5v12h-3v-12h3ZM14.5 11.5h3v3h-3v-3ZM23.5 11.5h3v3h-3v-3Z"/><path style="opacity:1" fill="#8e8e8e" d="M26.5 11.5h9v12h-3v-9h-6v-3Z"/><path style="opacity:1" d="M35.5 11.5h3v12h-3v-12Z"/><path style="opacity:1" fill="#c4c4c4" d="M5.5 11.5h9v3h-6v9h-3v-12Z"/><path style="opacity:1" d="M11.5 14.5h3v3h-3v-3ZM17.5 14.5h6v3h-6v-3Z"/><path style="opacity:1" fill="#c6c7c6" d="M23.5 14.5h3v3h-3v-3Z"/><path style="opacity:1" d="M26.5 14.5h3v3h-3v-3ZM14.5 17.5h3v3h-3v-3ZM23.5 17.5h3v3h-3v-3ZM8.5 20.5h3v3h-3v-3ZM32.5 20.5v3h-3v-3h3ZM5.5 23.5h3v6h-3v-6Z"/><path style="opacity:1" fill="#bdbdbd" d="M17.5 17.5h6v9h3v3h-3v3h-12v-3h-3v-6h3v3h6v-9Z"/><path style="opacity:1" d="M11.5 23.5h6v3h-6v-3ZM23.5 23.5h6v3h-6v-3Z"/><path style="opacity:1" fill="#898a89" d="M29.5 23.5h3v6h-3v3h-6v-3h3v-3h3v-3Z"/><path style="opacity:1" d="M32.5 23.5h3v6h-3v-6ZM8.5 29.5h3v3h18v-3h3v6h-24v-6ZM8.5 35.5v3h24v-3h3v6h-30v-6h3Z"/><path style="opacity:1" fill="#a6a6a6" d="M8.5 35.5h24v3h-24v-3Z"/></svg>