<svg xmlns="http://www.w3.org/2000/svg" width="42" height="42" style="shape-rendering:geometricPrecision;text-rendering:geometricPrecision;image-rendering:optimizeQuality;fill-rule:evenodd;clip-rule:evenodd"><path style="opacity:1" d="M8.5-.5h12v3h-9v3h-3v-6Z"/><path style="opacity:1" fill="#c5c5c5" d="M20.5 2.5v15h-9v3h-6v-6h3v-3h3v-3h3v-3h-3v-3h9Z"/><path style="opacity:1" d="M20.5 2.5h9v3h-9v-3ZM11.5 5.5h3v3h-3v-3Z"/><path style="opacity:1" fill="#a6a6a6" d="M20.5 5.5h9v27h-18v-3h3v-3h3v-3h3v-6h3v-3h-3v-9Z"/><path style="opacity:1" d="M29.5 5.5h3v3h-3v-3ZM11.5 8.5v3h-3v-3h3ZM14.5 8.5h3v3h-3v-3Z"/><path style="opacity:1" fill="#898a89" d="M29.5 8.5h3v18h-3v-18Z"/><path style="opacity:1" d="M32.5 8.5h3v18h-3v-18ZM8.5 11.5v3h-3v-3h3ZM5.5 14.5v6h-3v-6h3ZM20.5 14.5h3v3h-3v-3ZM20.5 17.5v6h-3v-3h-6v-3h9ZM5.5 20.5h6v3h-6v-3ZM17.5 23.5v3h-3v-3h3ZM14.5 26.5v3h-3v-3h3Z"/><path style="opacity:1" d="M29.5 26.5h3v9h-24v-6h3v3h18v-6ZM8.5 35.5v3h24v-3h3v6h-30v-6h3Z"/><path style="opacity:1" fill="#979797" d="M8.5 35.5h24v3h-24v-3Z"/></svg>