<svg xmlns="http://www.w3.org/2000/svg" width="42" height="42" style="shape-rendering:geometricPrecision;text-rendering:geometricPrecision;image-rendering:optimizeQuality;fill-rule:evenodd;clip-rule:evenodd"><path style="opacity:1" d="M17.5-.5h6v3h-6v-3ZM17.5 2.5v6h-3v-6h3ZM23.5 2.5h3v6h-3v-6Z"/><path style="opacity:1" fill="#ababab" d="M17.5 2.5h6v6h-6v-6Z"/><path style="opacity:1" d="M17.5 8.5h6v3h-6v-3ZM-.5 11.5h3v3h-3v-3ZM41.5 11.5v3h-3v-3h3ZM2.5 14.5h6v3h-3v6h-3v-9ZM23.5 17.5h-6v-3h6v3ZM38.5 14.5v9h-3v-6h-3v-3h6Z"/><path style="opacity:1" fill="#d5d5d5" d="M8.5 17.5v3h3v3h3v9h-3v-3h-3v-6h-3v-6h3Z"/><path style="opacity:1" d="M8.5 17.5h3v3-3h-3ZM17.5 17.5v3h-3v-3h3Z"/><path style="opacity:1" fill="#adadad" d="M17.5 17.5h6v3h3v6h-3v3h-3v3h-6v-12h3v-3Z"/><path style="opacity:1" d="M23.5 17.5h3v3-3h-3ZM32.5 17.5v3h-3v-3h3Z"/><path style="opacity:1" fill="#898a89" d="M32.5 17.5h3v6h-3v6h-3v3h-9v-3h3v-3h3v-3h3v-3h3v-3Z"/><path style="opacity:1" d="M11.5 20.5h3v3h-3v-3ZM26.5 20.5h3v3h-3v-3ZM5.5 23.5h3v6h-3v-6ZM35.5 23.5v6h-3v-6h3ZM8.5 29.5h3v3h18v-3h3v6h-24v-6ZM8.5 35.5v3h24v-3h3v6h-30v-6h3Z"/><path style="opacity:1" fill="#a7a7a7" d="M8.5 35.5h24v3h-24v-3Z"/></svg>