<svg xmlns="http://www.w3.org/2000/svg" width="42" height="42" style="shape-rendering:geometricPrecision;text-rendering:geometricPrecision;image-rendering:optimizeQuality;fill-rule:evenodd;clip-rule:evenodd"><path style="opacity:1" d="M5.5-.5h9v6h3v-6h18v15h-3v3h-3v-3h-18v3h-3v-3h-3v-15Z"/><path style="opacity:1" fill="#d0d0d0" d="M17.5 8.5v3h-9v-9h3v6h6Z"/><path style="opacity:1" fill="#a5a5a5" d="M17.5 11.5v-3h3v-6h12v9h-15Z"/><path style="opacity:1" fill="#aeaeae" d="M29.5 17.5h-18v-3h18v3Z"/><path style="opacity:1" d="M11.5 17.5h18v12h-3v-9h-12v9h-3v-12Z"/><path style="opacity:1" fill="#9e9e9e" d="M17.5 20.5h9v9h3v3h3v3h3v3h-12v-6h-3v-3h-3v-9Z"/><path style="opacity:1" d="M11.5 29.5v3h-3v-3h3Z"/><path style="opacity:1" fill="#b9b9b9" d="M17.5 20.5v9h3v3h3v6h-18v-3h3v-3h3v-3h3v-9h3Z"/><path style="opacity:1" d="M29.5 29.5h3v3-3h-3ZM8.5 32.5v3h-3v-3h3ZM32.5 32.5h3v3-3h-3ZM5.5 35.5v3h30v-3h3v6h-36v-6h3Z"/></svg>