<svg id="Layer_2" data-name="Layer 2" xmlns="http://www.w3.org/2000/svg" viewBox="0 0 11.48 11.1"><defs><style>.cls-1{fill:#fff}</style></defs><g id="Layer_1-2" data-name="Layer 1"><path class="cls-1" d="M2.16.94c.94.84 1.94 1.8 2.94 2.79l-.98.99c-.99-1-1.94-2.01-2.79-2.95C.82 1.37.72.59.39.07.37.05.38.02.39 0c.55.27 1.33.45 1.76.94ZM10.62 10.94c.16-.38-.06-.38-.14-.52-.25-.26-.52-.54-.79-.78-.08.08-.17.14-.27.2-.52.14-1.06.35-1.6.44-.21.05-.3-.28-.09-.34.37-.15.71-.38.96-.68.05-.12.12-.22.21-.31-.17-.14-.34-.27-.5-.4-.14-.08-.43-.01-.53-.13-.47-.45-.96-.92-1.46-1.41l.98-.98c.49.5.96.99 1.41 1.46.13.09.05.38.14.52l.29.37c.04.05.08.11.14.16l.11-.08c.17-.05.25-.19.35-.31.2-.24.38-.51.47-.81.07-.24.45-.14.39.1-.16.57-.34 1.3-.69 1.83.25.28.53.56.81.82.14.09.14.3.52.14.46.45-.26 1.18-.71.71ZM.86 10.94c-.16-.38.06-.38.14-.52.25-.26.52-.54.79-.78.08.08.17.14.27.2.52.14 1.06.35 1.6.44.21.05.3-.28.09-.34-.37-.15-.71-.38-.96-.68a.945.945 0 0 0-.21-.31c.17-.14.34-.27.5-.4.14-.08.43 0 .53-.13 2.1-2.02 4.61-4.5 6.54-6.65.51-.4.61-1.18.94-1.7.02-.02.01-.05-.01-.07-.55.27-1.33.45-1.76.94-2.14 1.93-4.63 4.45-6.64 6.55-.13.09-.05.38-.14.52l-.29.37s-.08.11-.14.16L2 8.46c-.17-.05-.25-.19-.35-.31-.2-.24-.38-.51-.47-.81-.07-.24-.45-.14-.39.1.16.57.34 1.3.69 1.83-.25.28-.53.56-.81.82-.14.09-.14.3-.52.14-.46.45.26 1.18.71.71Z"/></g></svg>