<svg xmlns="http://www.w3.org/2000/svg" width="42" height="42" style="shape-rendering:geometricPrecision;text-rendering:geometricPrecision;image-rendering:optimizeQuality;fill-rule:evenodd;clip-rule:evenodd"><path style="opacity:1" d="M17.5-.5h6v3h-6v-3ZM17.5 2.5v6h-3v-6h3Z"/><path style="opacity:1" fill="#494a49" d="M17.5 5.5h3v3h-3v-3Z"/><path style="opacity:1" fill="#0c0c0c" d="M17.5 2.5h9v6h-3v3h3v3h-6v-3h-3v-3h3v-3h-3v-3Z"/><path style="opacity:1" d="M17.5 11.5v3h-3v-3h3ZM14.5 14.5v3h-3v-3h3Z"/><path style="opacity:1" fill="#4a4a4a" d="M17.5 11.5h3v6h-3v6h-3v6h-3v-12h3v-3h3v-3Z"/><path style="opacity:1" fill="#292a29" d="M20.5 14.5h3v3h-3v-3Z"/><path style="opacity:1" d="M11.5 17.5v12h-3v-12h3Z"/><path style="opacity:1" fill="#3c3c3c" d="M20.5 17.5v15h-6v-9h3v-6h3Z"/><path style="opacity:1" d="M20.5 20.5h3v3h-3v-3Z"/><path style="opacity:1" fill="#292a29" d="M23.5 20.5h3v12h-6v-9h3v-3Z"/><path style="opacity:1" fill="#080808" d="M26.5 14.5h3v3h3v12h-3v3h3v6h-9v-3h-15v-3h3v-3h3v3h12v-12h-3v-3h3v-3Z"/><path style="opacity:1" d="M8.5 35.5v3h24v-3h3v6h-30v-6h3Z"/><path style="opacity:1" fill="#4f4f4f" d="M8.5 35.5h6v3h-6v-3Z"/><path style="opacity:1" fill="#363636" d="M14.5 35.5h9v3h-9v-3Z"/></svg>