<svg xmlns="http://www.w3.org/2000/svg" width="42" height="42" style="shape-rendering:geometricPrecision;text-rendering:geometricPrecision;image-rendering:optimizeQuality;fill-rule:evenodd;clip-rule:evenodd"><path style="opacity:1" d="M17.5-.5h6v3h-6v-3ZM17.5 2.5v6h-3v-6h3Z"/><path style="opacity:1" fill="#1c1c1c" d="M17.5 2.5h6v6h-3v-3h-3v-3Z"/><path style="opacity:1" d="M23.5 2.5h3v6h-3v-6Z"/><path style="opacity:1" fill="#494a49" d="M17.5 5.5h3v3h-3v-3Z"/><path style="opacity:1" d="M14.5 8.5v3h-9v-3h9ZM17.5 8.5h6v3h-6v-3ZM5.5 11.5v12h-3v-12h3Z"/><path style="opacity:1" fill="#292a29" d="M5.5 11.5h3v3h-3v-3Z"/><path style="opacity:1" fill="#4f4f4f" d="M8.5 11.5h6v3h-6v-3Z"/><path style="opacity:1" d="M14.5 11.5h3v3h-3v-3ZM23.5 11.5h3v3h-3v-3Z"/><path style="opacity:1" fill="#101010" d="M26.5 8.5h9v3h3v12h-3v6h-6v3h-6v-3h3v-3h-3v-3h6v-3h3v-6h-3v3h-3v-9Z"/><path style="opacity:1" fill="#555" d="M5.5 14.5h3v9h-3v-9Z"/><path style="opacity:1" d="M11.5 14.5h3v3h-3v-3ZM17.5 14.5h6v3h-6v-3Z"/><path style="opacity:1" fill="#3a3b3a" d="M23.5 14.5h3v3h-3v-3Z"/><path style="opacity:1" d="M14.5 17.5h3v3h-3v-3ZM23.5 17.5h3v3h-3v-3ZM8.5 20.5h3v3h-3v-3Z"/><path style="opacity:1" fill="#292a29" d="M23.5 20.5v6h3v3h-3v3h-6v-3h3v-9h3Z"/><path style="opacity:1" d="M5.5 23.5h3v6h-3v-6Z"/><path style="opacity:1" fill="#3b3b3b" d="M17.5 17.5h6v3h-3v9h-3v3h-6v-3h-3v-6h3v3h6v-9Z"/><path style="opacity:1" d="M11.5 23.5h6v3h-6v-3ZM8.5 29.5h3v3h18v-3h3v6h-24v-6ZM8.5 35.5v3h24v-3h3v6h-30v-6h3Z"/><path style="opacity:1" fill="#4f4f4f" d="M8.5 35.5h6v3h-6v-3Z"/><path style="opacity:1" fill="#1d1d1d" d="M14.5 35.5h18v3h-18v-3Z"/></svg>