<svg xmlns="http://www.w3.org/2000/svg" width="42" height="42" style="shape-rendering:geometricPrecision;text-rendering:geometricPrecision;image-rendering:optimizeQuality;fill-rule:evenodd;clip-rule:evenodd"><path style="opacity:1" d="M26.5 8.5h-12v-3h12v3ZM14.5 8.5v9h-3v-9h3Z"/><path style="opacity:1" fill="#292a29" d="M23.5 11.5v21h3v6h-12v-3h3v-3h3v-3h-3v-3h3v-12h-3v-3h6Z"/><path style="opacity:1" fill="#3e3e3e" d="M14.5 8.5h9v3h-6v3h3v12h-3v-9h-3v-9Z"/><path style="opacity:1" d="M14.5 17.5h3v3h-3v-3ZM14.5 20.5v6h-3v-6h3Z"/><path style="opacity:1" fill="#515251" d="M14.5 20.5h3v6h-3v-6Z"/><path style="opacity:1" fill="#0f0f0f" d="M23.5 8.5h6v9h-3v3h3v6h-3v3h3v9h-3v-6h-3v-24Z"/><path style="opacity:1" d="M14.5 26.5h3v3h-3v-3ZM14.5 29.5v3h-3v-3h3Z"/><path style="opacity:1" fill="#474747" d="M14.5 29.5h6v3h-3v3h-3v3h-3v-6h3v-3Z"/><path style="opacity:1" d="M11.5 32.5v6h18v-6h3v9h-24v-9h3Z"/></svg>