<svg xmlns="http://www.w3.org/2000/svg" width="42" height="42" style="shape-rendering:geometricPrecision;text-rendering:geometricPrecision;image-rendering:optimizeQuality;fill-rule:evenodd;clip-rule:evenodd"><path style="opacity:1" d="M26.5 8.5h-12v-3h12v3ZM14.5 8.5v9h-3v-9h3ZM26.5 8.5h3v9h-3v-9Z"/><path style="opacity:1" fill="#bbb" d="M14.5 8.5h9v3h-6v3h3v12h-6v-6h3v-3h-3v-9Z"/><path style="opacity:1" fill="#a2a2a2" d="M23.5 8.5h3v9h-3v3h3v6h-3v3h3v3h3v6h-18v-6h3v-3h3v-3h3v-12h-3v-3h6v-3Z"/><path style="opacity:1" d="M14.5 17.5h3v3h-3v-3ZM26.5 17.5v3h-3v-3h3ZM14.5 20.5v6h-3v-6h3ZM26.5 20.5h3v6h-3v-6ZM14.5 26.5h3v3h-3v-3ZM26.5 26.5v3h-3v-3h3ZM14.5 29.5v3h-3v-3h3ZM26.5 29.5h3v3-3h-3ZM11.5 32.5v6h18v-6h3v9h-24v-9h3Z"/></svg>