<?xml version="1.0" encoding="UTF-8"?>
<!DOCTYPE svg PUBLIC "-//W3C//DTD SVG 1.1//EN" "http://www.w3.org/Graphics/SVG/1.1/DTD/svg11.dtd">
<svg xmlns="http://www.w3.org/2000/svg" version="1.1" width="42px" height="42px" style="shape-rendering:geometricPrecision; text-rendering:geometricPrecision; image-rendering:optimizeQuality; fill-rule:evenodd; clip-rule:evenodd" xmlns:xlink="http://www.w3.org/1999/xlink">
<g><path style="opacity:1" fill="#000000" d="M 17.5,-0.5 C 19.5,-0.5 21.5,-0.5 23.5,-0.5C 23.5,0.5 23.5,1.5 23.5,2.5C 21.5,2.5 19.5,2.5 17.5,2.5C 17.5,1.5 17.5,0.5 17.5,-0.5 Z"/></g>
<g><path style="opacity:1" fill="#000000" d="M 17.5,2.5 C 17.5,4.5 17.5,6.5 17.5,8.5C 16.5,8.5 15.5,8.5 14.5,8.5C 14.5,6.5 14.5,4.5 14.5,2.5C 15.5,2.5 16.5,2.5 17.5,2.5 Z"/></g>
<g><path style="opacity:1" fill="#9f9f9f" d="M 17.5,2.5 C 19.5,2.5 21.5,2.5 23.5,2.5C 23.5,4.5 23.5,6.5 23.5,8.5C 21.5,8.5 19.5,8.5 17.5,8.5C 17.5,6.5 17.5,4.5 17.5,2.5 Z"/></g>
<g><path style="opacity:1" fill="#000000" d="M 23.5,2.5 C 24.5,2.5 25.5,2.5 26.5,2.5C 26.5,4.5 26.5,6.5 26.5,8.5C 25.5,8.5 24.5,8.5 23.5,8.5C 23.5,6.5 23.5,4.5 23.5,2.5 Z"/></g>
<g><path style="opacity:1" fill="#000000" d="M 17.5,8.5 C 19.5,8.5 21.5,8.5 23.5,8.5C 23.5,9.5 23.5,10.5 23.5,11.5C 21.5,11.5 19.5,11.5 17.5,11.5C 17.5,10.5 17.5,9.5 17.5,8.5 Z"/></g>
<g><path style="opacity:1" fill="#000000" d="M 17.5,11.5 C 17.5,12.5 17.5,13.5 17.5,14.5C 16.5,14.5 15.5,14.5 14.5,14.5C 14.5,13.5 14.5,12.5 14.5,11.5C 15.5,11.5 16.5,11.5 17.5,11.5 Z"/></g>
<g><path style="opacity:1" fill="#000000" d="M 23.5,11.5 C 24.5,11.5 25.5,11.5 26.5,11.5C 26.5,12.5 26.5,13.5 26.5,14.5C 25.5,14.5 24.5,14.5 23.5,14.5C 23.5,13.5 23.5,12.5 23.5,11.5 Z"/></g>
<g><path style="opacity:1" fill="#000000" d="M 14.5,14.5 C 14.5,15.5 14.5,16.5 14.5,17.5C 13.5,17.5 12.5,17.5 11.5,17.5C 11.5,16.5 11.5,15.5 11.5,14.5C 12.5,14.5 13.5,14.5 14.5,14.5 Z"/></g>
<g><path style="opacity:1" fill="#c8c8c8" d="M 17.5,11.5 C 19.5,11.5 21.5,11.5 23.5,11.5C 23.5,12.5 23.5,13.5 23.5,14.5C 23.5,15.5 23.5,16.5 23.5,17.5C 22.5,17.5 21.5,17.5 20.5,17.5C 20.5,18.5 20.5,19.5 20.5,20.5C 20.5,21.5 20.5,22.5 20.5,23.5C 20.5,26.5 20.5,29.5 20.5,32.5C 18.5,32.5 16.5,32.5 14.5,32.5C 14.5,31.5 14.5,30.5 14.5,29.5C 13.5,29.5 12.5,29.5 11.5,29.5C 11.5,25.5 11.5,21.5 11.5,17.5C 12.5,17.5 13.5,17.5 14.5,17.5C 14.5,16.5 14.5,15.5 14.5,14.5C 15.5,14.5 16.5,14.5 17.5,14.5C 17.5,13.5 17.5,12.5 17.5,11.5 Z"/></g>
<g><path style="opacity:1" fill="#000000" d="M 26.5,14.5 C 27.5,14.5 28.5,14.5 29.5,14.5C 29.5,15.5 29.5,16.5 29.5,17.5C 28.5,17.5 27.5,17.5 26.5,17.5C 26.5,16.5 26.5,15.5 26.5,14.5 Z"/></g>
<g><path style="opacity:1" fill="#000000" d="M 11.5,17.5 C 11.5,21.5 11.5,25.5 11.5,29.5C 10.5,29.5 9.5,29.5 8.5,29.5C 8.5,25.5 8.5,21.5 8.5,17.5C 9.5,17.5 10.5,17.5 11.5,17.5 Z"/></g>
<g><path style="opacity:1" fill="#000000" d="M 23.5,17.5 C 24.5,17.5 25.5,17.5 26.5,17.5C 26.5,18.5 26.5,19.5 26.5,20.5C 25.5,20.5 24.5,20.5 23.5,20.5C 23.5,19.5 23.5,18.5 23.5,17.5 Z"/></g>
<g><path style="opacity:1" fill="#000000" d="M 29.5,17.5 C 30.5,17.5 31.5,17.5 32.5,17.5C 32.5,21.5 32.5,25.5 32.5,29.5C 31.5,29.5 30.5,29.5 29.5,29.5C 29.5,25.5 29.5,21.5 29.5,17.5 Z"/></g>
<g><path style="opacity:1" fill="#000000" d="M 20.5,20.5 C 21.5,20.5 22.5,20.5 23.5,20.5C 23.5,21.5 23.5,22.5 23.5,23.5C 22.5,23.5 21.5,23.5 20.5,23.5C 20.5,22.5 20.5,21.5 20.5,20.5 Z"/></g>
<g><path style="opacity:1" fill="#9f9f9f" d="M 26.5,17.5 C 27.5,17.5 28.5,17.5 29.5,17.5C 29.5,21.5 29.5,25.5 29.5,29.5C 28.5,29.5 27.5,29.5 26.5,29.5C 26.5,30.5 26.5,31.5 26.5,32.5C 24.5,32.5 22.5,32.5 20.5,32.5C 20.5,29.5 20.5,26.5 20.5,23.5C 21.5,23.5 22.5,23.5 23.5,23.5C 23.5,22.5 23.5,21.5 23.5,20.5C 24.5,20.5 25.5,20.5 26.5,20.5C 26.5,19.5 26.5,18.5 26.5,17.5 Z"/></g>
<g><path style="opacity:1" fill="#000000" d="M 11.5,29.5 C 12.5,29.5 13.5,29.5 14.5,29.5C 14.5,30.5 14.5,31.5 14.5,32.5C 16.5,32.5 18.5,32.5 20.5,32.5C 22.5,32.5 24.5,32.5 26.5,32.5C 26.5,31.5 26.5,30.5 26.5,29.5C 27.5,29.5 28.5,29.5 29.5,29.5C 29.5,30.5 29.5,31.5 29.5,32.5C 30.5,32.5 31.5,32.5 32.5,32.5C 32.5,33.5 32.5,34.5 32.5,35.5C 28.5,35.5 24.5,35.5 20.5,35.5C 16.5,35.5 12.5,35.5 8.5,35.5C 8.5,34.5 8.5,33.5 8.5,32.5C 9.5,32.5 10.5,32.5 11.5,32.5C 11.5,31.5 11.5,30.5 11.5,29.5 Z"/></g>
<g><path style="opacity:1" fill="#000000" d="M 8.5,35.5 C 8.5,36.5 8.5,37.5 8.5,38.5C 12.5,38.5 16.5,38.5 20.5,38.5C 24.5,38.5 28.5,38.5 32.5,38.5C 32.5,37.5 32.5,36.5 32.5,35.5C 33.5,35.5 34.5,35.5 35.5,35.5C 35.5,37.5 35.5,39.5 35.5,41.5C 25.5,41.5 15.5,41.5 5.5,41.5C 5.5,39.5 5.5,37.5 5.5,35.5C 6.5,35.5 7.5,35.5 8.5,35.5 Z"/></g>
<g><path style="opacity:1" fill="#cacaca" d="M 8.5,35.5 C 12.5,35.5 16.5,35.5 20.5,35.5C 20.5,36.5 20.5,37.5 20.5,38.5C 16.5,38.5 12.5,38.5 8.5,38.5C 8.5,37.5 8.5,36.5 8.5,35.5 Z"/></g>
<g><path style="opacity:1" fill="#8f8f8f" d="M 20.5,35.5 C 24.5,35.5 28.5,35.5 32.5,35.5C 32.5,36.5 32.5,37.5 32.5,38.5C 28.5,38.5 24.5,38.5 20.5,38.5C 20.5,37.5 20.5,36.5 20.5,35.5 Z"/></g>
</svg>
