<?xml version="1.0" encoding="UTF-8"?>
<!DOCTYPE svg PUBLIC "-//W3C//DTD SVG 1.1//EN" "http://www.w3.org/Graphics/SVG/1.1/DTD/svg11.dtd">
<svg xmlns="http://www.w3.org/2000/svg" version="1.1" width="42px" height="42px" style="shape-rendering:geometricPrecision; text-rendering:geometricPrecision; image-rendering:optimizeQuality; fill-rule:evenodd; clip-rule:evenodd" xmlns:xlink="http://www.w3.org/1999/xlink">
<g><path style="opacity:1" fill="#000000" d="M 8.5,-0.5 C 12.5,-0.5 16.5,-0.5 20.5,-0.5C 20.5,0.5 20.5,1.5 20.5,2.5C 17.5,2.5 14.5,2.5 11.5,2.5C 11.5,3.5 11.5,4.5 11.5,5.5C 10.5,5.5 9.5,5.5 8.5,5.5C 8.5,3.5 8.5,1.5 8.5,-0.5 Z"/></g>
<g><path style="opacity:1" fill="#c5c5c5" d="M 20.5,2.5 C 20.5,3.5 20.5,4.5 20.5,5.5C 20.5,8.5 20.5,11.5 20.5,14.5C 20.5,15.5 20.5,16.5 20.5,17.5C 17.5,17.5 14.5,17.5 11.5,17.5C 11.5,18.5 11.5,19.5 11.5,20.5C 9.5,20.5 7.5,20.5 5.5,20.5C 5.5,18.5 5.5,16.5 5.5,14.5C 6.5,14.5 7.5,14.5 8.5,14.5C 8.5,13.5 8.5,12.5 8.5,11.5C 9.5,11.5 10.5,11.5 11.5,11.5C 11.5,10.5 11.5,9.5 11.5,8.5C 12.5,8.5 13.5,8.5 14.5,8.5C 14.5,7.5 14.5,6.5 14.5,5.5C 13.5,5.5 12.5,5.5 11.5,5.5C 11.5,4.5 11.5,3.5 11.5,2.5C 14.5,2.5 17.5,2.5 20.5,2.5 Z"/></g>
<g><path style="opacity:1" fill="#000000" d="M 20.5,2.5 C 23.5,2.5 26.5,2.5 29.5,2.5C 29.5,3.5 29.5,4.5 29.5,5.5C 26.5,5.5 23.5,5.5 20.5,5.5C 20.5,4.5 20.5,3.5 20.5,2.5 Z"/></g>
<g><path style="opacity:1" fill="#000000" d="M 11.5,5.5 C 12.5,5.5 13.5,5.5 14.5,5.5C 14.5,6.5 14.5,7.5 14.5,8.5C 13.5,8.5 12.5,8.5 11.5,8.5C 11.5,7.5 11.5,6.5 11.5,5.5 Z"/></g>
<g><path style="opacity:1" fill="#a6a6a6" d="M 20.5,5.5 C 23.5,5.5 26.5,5.5 29.5,5.5C 29.5,6.5 29.5,7.5 29.5,8.5C 29.5,14.5 29.5,20.5 29.5,26.5C 29.5,28.5 29.5,30.5 29.5,32.5C 23.5,32.5 17.5,32.5 11.5,32.5C 11.5,31.5 11.5,30.5 11.5,29.5C 12.5,29.5 13.5,29.5 14.5,29.5C 14.5,28.5 14.5,27.5 14.5,26.5C 15.5,26.5 16.5,26.5 17.5,26.5C 17.5,25.5 17.5,24.5 17.5,23.5C 18.5,23.5 19.5,23.5 20.5,23.5C 20.5,21.5 20.5,19.5 20.5,17.5C 21.5,17.5 22.5,17.5 23.5,17.5C 23.5,16.5 23.5,15.5 23.5,14.5C 22.5,14.5 21.5,14.5 20.5,14.5C 20.5,11.5 20.5,8.5 20.5,5.5 Z"/></g>
<g><path style="opacity:1" fill="#000000" d="M 29.5,5.5 C 30.5,5.5 31.5,5.5 32.5,5.5C 32.5,6.5 32.5,7.5 32.5,8.5C 31.5,8.5 30.5,8.5 29.5,8.5C 29.5,7.5 29.5,6.5 29.5,5.5 Z"/></g>
<g><path style="opacity:1" fill="#000000" d="M 11.5,8.5 C 11.5,9.5 11.5,10.5 11.5,11.5C 10.5,11.5 9.5,11.5 8.5,11.5C 8.5,10.5 8.5,9.5 8.5,8.5C 9.5,8.5 10.5,8.5 11.5,8.5 Z"/></g>
<g><path style="opacity:1" fill="#000000" d="M 14.5,8.5 C 15.5,8.5 16.5,8.5 17.5,8.5C 17.5,9.5 17.5,10.5 17.5,11.5C 16.5,11.5 15.5,11.5 14.5,11.5C 14.5,10.5 14.5,9.5 14.5,8.5 Z"/></g>
<g><path style="opacity:1" fill="#898a89" d="M 29.5,8.5 C 30.5,8.5 31.5,8.5 32.5,8.5C 32.5,14.5 32.5,20.5 32.5,26.5C 31.5,26.5 30.5,26.5 29.5,26.5C 29.5,20.5 29.5,14.5 29.5,8.5 Z"/></g>
<g><path style="opacity:1" fill="#000000" d="M 32.5,8.5 C 33.5,8.5 34.5,8.5 35.5,8.5C 35.5,14.5 35.5,20.5 35.5,26.5C 34.5,26.5 33.5,26.5 32.5,26.5C 32.5,20.5 32.5,14.5 32.5,8.5 Z"/></g>
<g><path style="opacity:1" fill="#000000" d="M 8.5,11.5 C 8.5,12.5 8.5,13.5 8.5,14.5C 7.5,14.5 6.5,14.5 5.5,14.5C 5.5,13.5 5.5,12.5 5.5,11.5C 6.5,11.5 7.5,11.5 8.5,11.5 Z"/></g>
<g><path style="opacity:1" fill="#000000" d="M 5.5,14.5 C 5.5,16.5 5.5,18.5 5.5,20.5C 4.5,20.5 3.5,20.5 2.5,20.5C 2.5,18.5 2.5,16.5 2.5,14.5C 3.5,14.5 4.5,14.5 5.5,14.5 Z"/></g>
<g><path style="opacity:1" fill="#000000" d="M 20.5,14.5 C 21.5,14.5 22.5,14.5 23.5,14.5C 23.5,15.5 23.5,16.5 23.5,17.5C 22.5,17.5 21.5,17.5 20.5,17.5C 20.5,16.5 20.5,15.5 20.5,14.5 Z"/></g>
<g><path style="opacity:1" fill="#000000" d="M 20.5,17.5 C 20.5,19.5 20.5,21.5 20.5,23.5C 19.5,23.5 18.5,23.5 17.5,23.5C 17.5,22.5 17.5,21.5 17.5,20.5C 15.5,20.5 13.5,20.5 11.5,20.5C 11.5,19.5 11.5,18.5 11.5,17.5C 14.5,17.5 17.5,17.5 20.5,17.5 Z"/></g>
<g><path style="opacity:1" fill="#000000" d="M 5.5,20.5 C 7.5,20.5 9.5,20.5 11.5,20.5C 11.5,21.5 11.5,22.5 11.5,23.5C 9.5,23.5 7.5,23.5 5.5,23.5C 5.5,22.5 5.5,21.5 5.5,20.5 Z"/></g>
<g><path style="opacity:1" fill="#000000" d="M 17.5,23.5 C 17.5,24.5 17.5,25.5 17.5,26.5C 16.5,26.5 15.5,26.5 14.5,26.5C 14.5,25.5 14.5,24.5 14.5,23.5C 15.5,23.5 16.5,23.5 17.5,23.5 Z"/></g>
<g><path style="opacity:1" fill="#000000" d="M 14.5,26.5 C 14.5,27.5 14.5,28.5 14.5,29.5C 13.5,29.5 12.5,29.5 11.5,29.5C 11.5,28.5 11.5,27.5 11.5,26.5C 12.5,26.5 13.5,26.5 14.5,26.5 Z"/></g>
<g><path style="opacity:1" fill="#000000" d="M 29.5,26.5 C 30.5,26.5 31.5,26.5 32.5,26.5C 32.5,29.5 32.5,32.5 32.5,35.5C 24.5,35.5 16.5,35.5 8.5,35.5C 8.5,33.5 8.5,31.5 8.5,29.5C 9.5,29.5 10.5,29.5 11.5,29.5C 11.5,30.5 11.5,31.5 11.5,32.5C 17.5,32.5 23.5,32.5 29.5,32.5C 29.5,30.5 29.5,28.5 29.5,26.5 Z"/></g>
<g><path style="opacity:1" fill="#000000" d="M 8.5,35.5 C 8.5,36.5 8.5,37.5 8.5,38.5C 16.5,38.5 24.5,38.5 32.5,38.5C 32.5,37.5 32.5,36.5 32.5,35.5C 33.5,35.5 34.5,35.5 35.5,35.5C 35.5,37.5 35.5,39.5 35.5,41.5C 25.5,41.5 15.5,41.5 5.5,41.5C 5.5,39.5 5.5,37.5 5.5,35.5C 6.5,35.5 7.5,35.5 8.5,35.5 Z"/></g>
<g><path style="opacity:1" fill="#979797" d="M 8.5,35.5 C 16.5,35.5 24.5,35.5 32.5,35.5C 32.5,36.5 32.5,37.5 32.5,38.5C 24.5,38.5 16.5,38.5 8.5,38.5C 8.5,37.5 8.5,36.5 8.5,35.5 Z"/></g>
</svg>
