<?xml version="1.0" encoding="UTF-8"?>
<!DOCTYPE svg PUBLIC "-//W3C//DTD SVG 1.1//EN" "http://www.w3.org/Graphics/SVG/1.1/DTD/svg11.dtd">
<svg xmlns="http://www.w3.org/2000/svg" version="1.1" width="42px" height="42px" style="shape-rendering:geometricPrecision; text-rendering:geometricPrecision; image-rendering:optimizeQuality; fill-rule:evenodd; clip-rule:evenodd" xmlns:xlink="http://www.w3.org/1999/xlink">
<g><path style="opacity:1" fill="#000000" d="M 26.5,8.5 C 25.5,8.5 24.5,8.5 23.5,8.5C 20.5,8.5 17.5,8.5 14.5,8.5C 14.5,7.5 14.5,6.5 14.5,5.5C 18.5,5.5 22.5,5.5 26.5,5.5C 26.5,6.5 26.5,7.5 26.5,8.5 Z"/></g>
<g><path style="opacity:1" fill="#000000" d="M 14.5,8.5 C 14.5,11.5 14.5,14.5 14.5,17.5C 13.5,17.5 12.5,17.5 11.5,17.5C 11.5,14.5 11.5,11.5 11.5,8.5C 12.5,8.5 13.5,8.5 14.5,8.5 Z"/></g>
<g><path style="opacity:1" fill="#000000" d="M 26.5,8.5 C 27.5,8.5 28.5,8.5 29.5,8.5C 29.5,11.5 29.5,14.5 29.5,17.5C 28.5,17.5 27.5,17.5 26.5,17.5C 26.5,14.5 26.5,11.5 26.5,8.5 Z"/></g>
<g><path style="opacity:1" fill="#bbbbbb" d="M 14.5,8.5 C 17.5,8.5 20.5,8.5 23.5,8.5C 23.5,9.5 23.5,10.5 23.5,11.5C 21.5,11.5 19.5,11.5 17.5,11.5C 17.5,12.5 17.5,13.5 17.5,14.5C 18.5,14.5 19.5,14.5 20.5,14.5C 20.5,18.5 20.5,22.5 20.5,26.5C 19.5,26.5 18.5,26.5 17.5,26.5C 16.5,26.5 15.5,26.5 14.5,26.5C 14.5,24.5 14.5,22.5 14.5,20.5C 15.5,20.5 16.5,20.5 17.5,20.5C 17.5,19.5 17.5,18.5 17.5,17.5C 16.5,17.5 15.5,17.5 14.5,17.5C 14.5,14.5 14.5,11.5 14.5,8.5 Z"/></g>
<g><path style="opacity:1" fill="#a2a2a2" d="M 23.5,8.5 C 24.5,8.5 25.5,8.5 26.5,8.5C 26.5,11.5 26.5,14.5 26.5,17.5C 25.5,17.5 24.5,17.5 23.5,17.5C 23.5,18.5 23.5,19.5 23.5,20.5C 24.5,20.5 25.5,20.5 26.5,20.5C 26.5,22.5 26.5,24.5 26.5,26.5C 25.5,26.5 24.5,26.5 23.5,26.5C 23.5,27.5 23.5,28.5 23.5,29.5C 24.5,29.5 25.5,29.5 26.5,29.5C 26.5,30.5 26.5,31.5 26.5,32.5C 27.5,32.5 28.5,32.5 29.5,32.5C 29.5,34.5 29.5,36.5 29.5,38.5C 23.5,38.5 17.5,38.5 11.5,38.5C 11.5,36.5 11.5,34.5 11.5,32.5C 12.5,32.5 13.5,32.5 14.5,32.5C 14.5,31.5 14.5,30.5 14.5,29.5C 15.5,29.5 16.5,29.5 17.5,29.5C 17.5,28.5 17.5,27.5 17.5,26.5C 18.5,26.5 19.5,26.5 20.5,26.5C 20.5,22.5 20.5,18.5 20.5,14.5C 19.5,14.5 18.5,14.5 17.5,14.5C 17.5,13.5 17.5,12.5 17.5,11.5C 19.5,11.5 21.5,11.5 23.5,11.5C 23.5,10.5 23.5,9.5 23.5,8.5 Z"/></g>
<g><path style="opacity:1" fill="#000000" d="M 14.5,17.5 C 15.5,17.5 16.5,17.5 17.5,17.5C 17.5,18.5 17.5,19.5 17.5,20.5C 16.5,20.5 15.5,20.5 14.5,20.5C 14.5,19.5 14.5,18.5 14.5,17.5 Z"/></g>
<g><path style="opacity:1" fill="#000000" d="M 26.5,17.5 C 26.5,18.5 26.5,19.5 26.5,20.5C 25.5,20.5 24.5,20.5 23.5,20.5C 23.5,19.5 23.5,18.5 23.5,17.5C 24.5,17.5 25.5,17.5 26.5,17.5 Z"/></g>
<g><path style="opacity:1" fill="#000000" d="M 14.5,20.5 C 14.5,22.5 14.5,24.5 14.5,26.5C 13.5,26.5 12.5,26.5 11.5,26.5C 11.5,24.5 11.5,22.5 11.5,20.5C 12.5,20.5 13.5,20.5 14.5,20.5 Z"/></g>
<g><path style="opacity:1" fill="#000000" d="M 26.5,20.5 C 27.5,20.5 28.5,20.5 29.5,20.5C 29.5,22.5 29.5,24.5 29.5,26.5C 28.5,26.5 27.5,26.5 26.5,26.5C 26.5,24.5 26.5,22.5 26.5,20.5 Z"/></g>
<g><path style="opacity:1" fill="#000000" d="M 14.5,26.5 C 15.5,26.5 16.5,26.5 17.5,26.5C 17.5,27.5 17.5,28.5 17.5,29.5C 16.5,29.5 15.5,29.5 14.5,29.5C 14.5,28.5 14.5,27.5 14.5,26.5 Z"/></g>
<g><path style="opacity:1" fill="#000000" d="M 26.5,26.5 C 26.5,27.5 26.5,28.5 26.5,29.5C 25.5,29.5 24.5,29.5 23.5,29.5C 23.5,28.5 23.5,27.5 23.5,26.5C 24.5,26.5 25.5,26.5 26.5,26.5 Z"/></g>
<g><path style="opacity:1" fill="#000000" d="M 14.5,29.5 C 14.5,30.5 14.5,31.5 14.5,32.5C 13.5,32.5 12.5,32.5 11.5,32.5C 11.5,31.5 11.5,30.5 11.5,29.5C 12.5,29.5 13.5,29.5 14.5,29.5 Z"/></g>
<g><path style="opacity:1" fill="#000000" d="M 26.5,29.5 C 27.5,29.5 28.5,29.5 29.5,29.5C 29.5,30.5 29.5,31.5 29.5,32.5C 29.5,31.5 29.5,30.5 29.5,29.5C 28.5,29.5 27.5,29.5 26.5,29.5 Z"/></g>
<g><path style="opacity:1" fill="#000000" d="M 11.5,32.5 C 11.5,34.5 11.5,36.5 11.5,38.5C 17.5,38.5 23.5,38.5 29.5,38.5C 29.5,36.5 29.5,34.5 29.5,32.5C 30.5,32.5 31.5,32.5 32.5,32.5C 32.5,35.5 32.5,38.5 32.5,41.5C 24.5,41.5 16.5,41.5 8.5,41.5C 8.5,38.5 8.5,35.5 8.5,32.5C 9.5,32.5 10.5,32.5 11.5,32.5 Z"/></g>
</svg>
