<?xml version="1.0" encoding="utf-8"?>
<!-- Generator: Adobe Illustrator 26.4.1, SVG Export Plug-In . SVG Version: 6.00 Build 0)  -->
<svg version="1.1" id="Layer_2_00000037665795272384718170000012559887320924717953_"
	 xmlns="http://www.w3.org/2000/svg" xmlns:xlink="http://www.w3.org/1999/xlink" x="0px" y="0px" viewBox="0 0 127.6 127.6"
	 style="enable-background:new 0 0 127.6 127.6;" xml:space="preserve">
<style type="text/css">
	.st0{fill:url(#SVGID_1_);stroke:#FFFFFF;stroke-width:3;stroke-linecap:round;stroke-linejoin:round;}
	
		.st1{fill:url(#SVGID_00000142889208130611808070000002501568552968221069_);stroke:#FFFFFF;stroke-width:3;stroke-linecap:round;stroke-linejoin:round;}
	.st2{fill:none;stroke:#FFFFFF;stroke-width:3;stroke-linecap:round;stroke-linejoin:round;}
</style>
<g id="Layer_1-2">
	<g id="BK">
		
			<linearGradient id="SVGID_1_" gradientUnits="userSpaceOnUse" x1="63.7845" y1="39.1151" x2="63.7845" y2="116.7651" gradientTransform="matrix(1 0 0 -1 0 129.2546)">
			<stop  offset="0" style="stop-color:#0F0F0F"/>
			<stop  offset="1" style="stop-color:#212121"/>
		</linearGradient>
		<path class="st0" d="M80.1,62.3c0,15.4-8.1,27.9-16.8,27.9S47.5,77.7,47.5,62.3c0-13.2,5.1-23.4,12.1-26.1v-8.2h-7.2v-8.2h7.2
			v-7.2h8.2v7.2h7v8.2h-7v8.1C74.8,38.6,80.1,49,80.1,62.3L80.1,62.3z"/>
		
			<linearGradient id="SVGID_00000155849896645388247040000012336312045835719300_" gradientUnits="userSpaceOnUse" x1="63.7878" y1="14.1851" x2="63.7878" y2="90.5301" gradientTransform="matrix(1 0 0 -1 0 129.2546)">
			<stop  offset="0" style="stop-color:#0F0F0F"/>
			<stop  offset="1" style="stop-color:#212121"/>
		</linearGradient>
		
			<path style="fill:url(#SVGID_00000155849896645388247040000012336312045835719300_);stroke:#FFFFFF;stroke-width:3;stroke-linecap:round;stroke-linejoin:round;" d="
			M64.8,115.1c26.2-0.4,31.3-7.1,31.3-7.1V88.9c1.8-0.4,11.5-2.8,16.5-11.9c5.7-10.3,1.6-21.8-2.5-27.4c-3-4.1-7.3-7-7.3-7
			c-2.6-1.7-5.1-2.7-6.4-3.1c-7.2-2.2-16.8,0.9-22.3,5.9c-12.1,11-7.7,33.8-9.2,33.9c-1.6,0.1,1.3-24.8-12-35.1
			c-5-3.9-14.1-7-21.5-4.6c-2.9,0.9-5.8,2.7-6.1,2.9c-0.6,0.3-5.4,3.4-8.5,7.9c-4.3,6.2-6.8,17.2-1.5,26.6
			c5.2,9.2,14.8,11.6,16.5,11.9V108C31.7,108,38.6,114.7,64.8,115.1L64.8,115.1L64.8,115.1z"/>
		<path class="st2" d="M32,88.5c6.7-3.8,18.3-7.6,32.5-7.5c13.6,0.1,24.9,2.9,31.6,7.5"/>
		<path class="st2" d="M38,95.5c5.3-3.8,14.6-6.4,26-6.4c10.9,0.1,20.3,2.6,25.3,6.4"/>
		<path class="st2" d="M46.1,100.4c3.8-2.5,9.6-4.1,17.8-4.1c7.8,0,13.8,1.6,17.4,4.1"/>
	</g>
</g>
</svg>
