<?xml version="1.0" encoding="utf-8"?>
<!-- Generator: Adobe Illustrator 26.4.1, SVG Export Plug-In . SVG Version: 6.00 Build 0)  -->
<svg version="1.1" id="Layer_2_00000062877295649913998470000013353309032433536403_"
	 xmlns="http://www.w3.org/2000/svg" xmlns:xlink="http://www.w3.org/1999/xlink" x="0px" y="0px" viewBox="0 0 127.6 127.6"
	 style="enable-background:new 0 0 127.6 127.6;" xml:space="preserve">
<style type="text/css">
	.st0{fill:url(#SVGID_1_);stroke:#231F20;stroke-width:3;stroke-linecap:round;stroke-linejoin:round;}
	
		.st1{fill:url(#SVGID_00000018232904055473313880000005715907328594063793_);stroke:#231F20;stroke-width:3;stroke-linecap:round;stroke-linejoin:round;}
	
		.st2{fill:url(#SVGID_00000082369329426733434350000005813920548773926276_);stroke:#231F20;stroke-width:3;stroke-linecap:round;stroke-linejoin:round;}
	
		.st3{fill:url(#SVGID_00000178195780540334968740000015078535021380157060_);stroke:#231F20;stroke-width:3;stroke-linecap:round;stroke-linejoin:round;}
	
		.st4{fill:url(#SVGID_00000158025051398888154950000010832988533634510495_);stroke:#231F20;stroke-width:3;stroke-linecap:round;stroke-linejoin:round;}
</style>
<g id="Layer_1-2">
	<g id="BB">
		
			<linearGradient id="SVGID_1_" gradientUnits="userSpaceOnUse" x1="63.7795" y1="16.2201" x2="63.7795" y2="43.3801" gradientTransform="matrix(1 0 0 -1 0 127.9446)">
			<stop  offset="0" style="stop-color:#CFCFCF"/>
			<stop  offset="5.000000e-02" style="stop-color:#D9D9D9"/>
			<stop  offset="0.16" style="stop-color:#EAEAEA"/>
			<stop  offset="0.29" style="stop-color:#F6F6F6"/>
			<stop  offset="0.48" style="stop-color:#FDFDFD"/>
			<stop  offset="1" style="stop-color:#FFFFFF"/>
		</linearGradient>
		<path class="st0" d="M68.7,84.6c0.8,7.4,3.4,9.8,5.1,10.8c2.5,1.3,3.5,1.3,16.1-0.2c5.2-0.6,10.9,0.1,21.1,6.4l-0.6,10.2
			c-10.1-6.3-15.8-6-21.1-5.4c-9.7,1.1-12,1.2-17.1,0.2c-2-0.4-5.1-1.5-8.5-4.8c-0.8,0.7-1.8,1.6-3.2,2.4c0,0-2.5,1.5-5.1,2.4
			c-6.2,2.2-11.1,0.5-17.1-0.2c-5.2-0.6-11-0.9-21.1,5.4l-0.6-10.2c10.1-6.3,15.8-7,21.1-6.4c12.8,1.5,13.6,1.4,16.1,0.2
			c2-0.9,4.9-3.4,6.4-10.8H68.7L68.7,84.6z"/>
		
			<linearGradient id="SVGID_00000173844887951330389720000009632398654136576664_" gradientUnits="userSpaceOnUse" x1="63.7748" y1="36.1266" x2="63.7748" y2="56.6401" gradientTransform="matrix(1 0 0 -1 0 127.9446)">
			<stop  offset="0" style="stop-color:#CFCFCF"/>
			<stop  offset="5.000000e-02" style="stop-color:#D9D9D9"/>
			<stop  offset="0.16" style="stop-color:#EAEAEA"/>
			<stop  offset="0.29" style="stop-color:#F6F6F6"/>
			<stop  offset="0.48" style="stop-color:#FDFDFD"/>
			<stop  offset="1" style="stop-color:#FFFFFF"/>
		</linearGradient>
		
			<path style="fill:url(#SVGID_00000173844887951330389720000009632398654136576664_);stroke:#231F20;stroke-width:3;stroke-linecap:round;stroke-linejoin:round;" d="
			M48.3,71.5c-2.7,4.5-5.4,11.3-5.4,18.1c0,3.4,41.9,2.6,41.7-1c-0.4-7.3-3-13.5-5.4-17.4L48.3,71.5z"/>
		
			<linearGradient id="SVGID_00000127015808501243083240000003404589642763938749_" gradientUnits="userSpaceOnUse" x1="63.7795" y1="50.4801" x2="63.7795" y2="112.1101" gradientTransform="matrix(1 0 0 -1 0 127.9446)">
			<stop  offset="0" style="stop-color:#CFCFCF"/>
			<stop  offset="5.000000e-02" style="stop-color:#D9D9D9"/>
			<stop  offset="0.16" style="stop-color:#EAEAEA"/>
			<stop  offset="0.29" style="stop-color:#F6F6F6"/>
			<stop  offset="0.48" style="stop-color:#FDFDFD"/>
			<stop  offset="1" style="stop-color:#FFFFFF"/>
		</linearGradient>
		
			<path style="fill:url(#SVGID_00000127015808501243083240000003404589642763938749_);stroke:#231F20;stroke-width:3;stroke-linecap:round;stroke-linejoin:round;" d="
			M90.5,51.7c0,14.8-12,25.7-26.7,25.7S37,66.5,37,51.7c0-13.2,13.5-21.9,21.2-26.9c-0.7-0.9-1.1-2.1-1.1-3.3c0-3.1,3.5-5.7,6.7-5.7
			c3.1,0,6.7,2.5,6.7,5.7c0,1.3-0.4,2.4-1.1,3.3C77,29.9,90.5,37.9,90.5,51.7z"/>
		
			<linearGradient id="SVGID_00000146462141502940212650000011536779505467349665_" gradientUnits="userSpaceOnUse" x1="63.7845" y1="72.3901" x2="63.7845" y2="86.1901" gradientTransform="matrix(1 0 0 -1 0 127.9446)">
			<stop  offset="0" style="stop-color:#0F0F0F"/>
			<stop  offset="1" style="stop-color:#212121"/>
		</linearGradient>
		
			<path style="fill:url(#SVGID_00000146462141502940212650000011536779505467349665_);stroke:#231F20;stroke-width:3;stroke-linecap:round;stroke-linejoin:round;" d="
			M63.8,41.8v13.8"/>
		
			<linearGradient id="SVGID_00000172407190574992464510000002155756189585715645_" gradientUnits="userSpaceOnUse" x1="56.8745" y1="79.2901" x2="70.6745" y2="79.2901" gradientTransform="matrix(1 0 0 -1 0 127.9446)">
			<stop  offset="0" style="stop-color:#0F0F0F"/>
			<stop  offset="1" style="stop-color:#212121"/>
		</linearGradient>
		
			<path style="fill:url(#SVGID_00000172407190574992464510000002155756189585715645_);stroke:#231F20;stroke-width:3;stroke-linecap:round;stroke-linejoin:round;" d="
			M56.9,48.7c4.6,0,9.2,0,13.8,0"/>
	</g>
</g>
</svg>
