<svg xmlns="http://www.w3.org/2000/svg" viewBox="0 0 16 32" width="1280" height="2560"><path fill="#413A42" d="M7 11h1v1H7zM8 11h1v1H8zM6 12h1v1H6z"/><path fill="#96A2B3" d="M7 12h1v1H7z"/><path fill="#596070" d="M8 12h1v1H8z"/><path fill="#1F1F29" d="M9 12h1v1H9z"/><path fill="#413A42" d="M5 13h1v1H5z"/><path fill="#96A2B3" d="M6 13h1v1H6z"/><path fill="#596070" d="M7 13h1v1H7zM8 13h1v1H8zM9 13h1v1H9z"/><path fill="#1F1F29" d="M10 13h1v1h-1z"/><path fill="#413A42" d="M4 14h1v1H4z"/><path fill="#96A2B3" d="M5 14h1v1H5z"/><path fill="#596070" d="M6 14h1v1H6zM7 14h1v1H7zM8 14h1v1H8zM9 14h1v1H9zM10 14h1v1h-1z"/><path fill="#1F1F29" d="M11 14h1v1h-1z"/><path fill="#413A42" d="M3 15h1v1H3z"/><path fill="#96A2B3" d="M4 15h1v1H4z"/><path fill="#596070" d="M5 15h1v1H5zM6 15h1v1H6z"/><path fill="#413A42" d="M7 15h1v1H7z"/><path fill="#596070" d="M8 15h1v1H8zM9 15h1v1H9zM10 15h1v1h-1zM11 15h1v1h-1z"/><path fill="#1F1F29" d="M12 15h1v1h-1z"/><path fill="#413A42" d="M3 16h1v1H3z"/><path fill="#596070" d="M4 16h1v1H4zM5 16h1v1H5z"/><path fill="#413A42" d="M6 16h1v1H6zM7 16h1v1H7zM8 16h1v1H8z"/><path fill="#596070" d="M9 16h1v1H9zM10 16h1v1h-1z"/><path fill="#413A42" d="M11 16h1v1h-1z"/><path fill="#1F1F29" d="M12 16h1v1h-1zM3 17h1v1H3z"/><path fill="#413A42" d="M4 17h1v1H4z"/><path fill="#596070" d="M5 17h1v1H5zM6 17h1v1H6z"/><path fill="#413A42" d="M7 17h1v1H7z"/><path fill="#596070" d="M8 17h1v1H8zM9 17h1v1H9z"/><path fill="#413A42" d="M10 17h1v1h-1zM11 17h1v1h-1z"/><path fill="#1F1F29" d="M12 17h1v1h-1zM4 18h1v1H4z"/><path fill="#413A42" d="M5 18h1v1H5z"/><path fill="#596070" d="M6 18h1v1H6zM7 18h1v1H7zM8 18h1v1H8z"/><path fill="#413A42" d="M9 18h1v1H9zM10 18h1v1h-1z"/><path fill="#1F1F29" d="M11 18h1v1h-1zM5 19h1v1H5z"/><path fill="#596070" d="M6 19h1v1H6zM7 19h1v1H7z"/><path fill="#413A42" d="M8 19h1v1H8zM9 19h1v1H9z"/><path fill="#1F1F29" d="M10 19h1v1h-1zM5 20h1v1H5z"/><path fill="#596070" d="M6 20h1v1H6zM7 20h1v1H7zM8 20h1v1H8z"/><path fill="#413A42" d="M9 20h1v1H9z"/><path fill="#1F1F29" d="M10 20h1v1h-1zM5 21h1v1H5z"/><path fill="#596070" d="M6 21h1v1H6zM7 21h1v1H7zM8 21h1v1H8z"/><path fill="#413A42" d="M9 21h1v1H9z"/><path fill="#1F1F29" d="M10 21h1v1h-1zM5 22h1v1H5z"/><path fill="#596070" d="M6 22h1v1H6zM7 22h1v1H7zM8 22h1v1H8z"/><path fill="#413A42" d="M9 22h1v1H9z"/><path fill="#1F1F29" d="M10 22h1v1h-1zM5 23h1v1H5z"/><path fill="#596070" d="M6 23h1v1H6zM7 23h1v1H7zM8 23h1v1H8z"/><path fill="#413A42" d="M9 23h1v1H9z"/><path fill="#1F1F29" d="M10 23h1v1h-1z"/><path fill="#413A42" d="M4 24h1v1H4z"/><path fill="#596070" d="M5 24h1v1H5zM6 24h1v1H6zM7 24h1v1H7zM8 24h1v1H8z"/><path fill="#413A42" d="M9 24h1v1H9zM10 24h1v1h-1z"/><path fill="#1F1F29" d="M11 24h1v1h-1z"/><path fill="#413A42" d="M3 25h1v1H3z"/><path fill="#596070" d="M4 25h1v1H4z"/><path fill="#413A42" d="M5 25h1v1H5zM6 25h1v1H6zM7 25h1v1H7zM8 25h1v1H8zM9 25h1v1H9zM10 25h1v1h-1zM11 25h1v1h-1z"/><path fill="#1F1F29" d="M12 25h1v1h-1z"/><path fill="#413A42" d="M2 26h1v1H2z"/><path fill="#96A2B3" d="M3 26h1v1H3z"/><path fill="#596070" d="M4 26h1v1H4zM5 26h1v1H5zM6 26h1v1H6zM7 26h1v1H7zM8 26h1v1H8zM9 26h1v1H9zM10 26h1v1h-1z"/><path fill="#413A42" d="M11 26h1v1h-1zM12 26h1v1h-1z"/><path fill="#1F1F29" d="M13 26h1v1h-1z"/><path fill="#413A42" d="M2 27h1v1H2z"/><path fill="#596070" d="M3 27h1v1H3z"/><path fill="#96A2B3" d="M4 27h1v1H4zM5 27h1v1H5zM6 27h1v1H6z"/><path fill="#596070" d="M7 27h1v1H7z"/><path fill="#96A2B3" d="M8 27h1v1H8z"/><path fill="#596070" d="M9 27h1v1H9zM10 27h1v1h-1z"/><path fill="#413A42" d="M11 27h1v1h-1zM12 27h1v1h-1z"/><path fill="#1F1F29" d="M13 27h1v1h-1zM2 28h1v1H2z"/><path fill="#413A42" d="M3 28h1v1H3zM4 28h1v1H4zM5 28h1v1H5zM6 28h1v1H6zM7 28h1v1H7zM8 28h1v1H8zM9 28h1v1H9zM10 28h1v1h-1zM11 28h1v1h-1zM12 28h1v1h-1z"/><path fill="#1F1F29" d="M13 28h1v1h-1zM1 29h1v1H1z"/><path fill="#96A2B3" d="M2 29h1v1H2z"/><path fill="#596070" d="M3 29h1v1H3z"/><path fill="#96A2B3" d="M4 29h1v1H4zM5 29h1v1H5z"/><path fill="#596070" d="M6 29h1v1H6z"/><path fill="#96A2B3" d="M7 29h1v1H7z"/><path fill="#596070" d="M8 29h1v1H8zM9 29h1v1H9zM10 29h1v1h-1zM11 29h1v1h-1z"/><path fill="#413A42" d="M12 29h1v1h-1zM13 29h1v1h-1z"/><path fill="#1F1F29" d="M14 29h1v1h-1zM1 30h1v1H1zM2 30h1v1H2zM3 30h1v1H3zM4 30h1v1H4zM5 30h1v1H5zM6 30h1v1H6zM7 30h1v1H7zM8 30h1v1H8zM9 30h1v1H9zM10 30h1v1h-1zM11 30h1v1h-1zM12 30h1v1h-1zM13 30h1v1h-1zM14 30h1v1h-1zM2 31h1v1H2zM3 31h1v1H3zM4 31h1v1H4zM5 31h1v1H5zM6 31h1v1H6zM7 31h1v1H7zM8 31h1v1H8zM9 31h1v1H9zM10 31h1v1h-1zM11 31h1v1h-1zM12 31h1v1h-1zM13 31h1v1h-1z"/></svg>