<svg version="1.1" id="Layer_2_00000181064578002443328220000006137214784808892549_" xmlns="http://www.w3.org/2000/svg" x="0" y="0" viewBox="0 0 127.6 127.6" style="enable-background:new 0 0 127.6 127.6" xml:space="preserve"><style>.st0{fill:url(#pawn_00000003072558377271741850000011865544218980372628_);stroke:#fff;stroke-width:3;stroke-linecap:round;stroke-linejoin:round}</style><g id="Layer_1-2"><g id="BP"><linearGradient id="pawn_00000096775162875282989700000012403694659472927874_" gradientUnits="userSpaceOnUse" x1="63.779" y1="20.345" x2="63.779" y2="109.485" gradientTransform="matrix(1 0 0 -1 0 128.695)"><stop offset="0" style="stop-color:#0f0f0f"/><stop offset="1" style="stop-color:#212121"/></linearGradient><path id="pawn" style="fill:url(#pawn_00000096775162875282989700000012403694659472927874_);stroke:#fff;stroke-width:3;stroke-linecap:round;stroke-linejoin:round" d="M102.5 102.1c0 2.1-.2 4.2-.7 6.2h-76c-.5-2-.7-4.1-.7-6.2 0-13.1 8.4-25.4 22-30.4-2.9-3.6-4.6-7.1-4.6-12 0-8.2 4.7-16.3 11.6-19.7-2.3-2.3-3.6-4.5-3.6-8 0-7.1 5.8-12.9 12.9-12.9s13.7 5.9 13.7 13c0 3.5-1.4 5.7-3.6 8 6.9 3.4 11.6 11.5 11.6 19.7 0 4.9-1.7 8.4-4.6 12 13.6 5 22 17.3 22 30.3z"/></g></g></svg>