<?xml version="1.0" encoding="UTF-8"?>
<!DOCTYPE svg PUBLIC "-//W3C//DTD SVG 1.1//EN" "http://www.w3.org/Graphics/SVG/1.1/DTD/svg11.dtd">
<svg xmlns="http://www.w3.org/2000/svg" version="1.1" width="42px" height="42px" style="shape-rendering:geometricPrecision; text-rendering:geometricPrecision; image-rendering:optimizeQuality; fill-rule:evenodd; clip-rule:evenodd" xmlns:xlink="http://www.w3.org/1999/xlink">
<g><path style="opacity:1" fill="#000000" d="M 17.5,2.5 C 17.5,4.5 17.5,6.5 17.5,8.5C 16.5,8.5 15.5,8.5 14.5,8.5C 14.5,6.5 14.5,4.5 14.5,2.5C 15.5,2.5 16.5,2.5 17.5,2.5 Z"/></g>
<g><path style="opacity:1" fill="#0b0b0b" d="M 17.5,-0.5 C 19.5,-0.5 21.5,-0.5 23.5,-0.5C 23.5,0.5 23.5,1.5 23.5,2.5C 24.5,2.5 25.5,2.5 26.5,2.5C 26.5,4.5 26.5,6.5 26.5,8.5C 25.5,8.5 24.5,8.5 23.5,8.5C 23.5,9.5 23.5,10.5 23.5,11.5C 21.5,11.5 19.5,11.5 17.5,11.5C 17.5,10.5 17.5,9.5 17.5,8.5C 18.5,8.5 19.5,8.5 20.5,8.5C 20.5,6.5 20.5,4.5 20.5,2.5C 19.5,2.5 18.5,2.5 17.5,2.5C 17.5,1.5 17.5,0.5 17.5,-0.5 Z"/></g>
<g><path style="opacity:1" fill="#353535" d="M 17.5,2.5 C 18.5,2.5 19.5,2.5 20.5,2.5C 20.5,4.5 20.5,6.5 20.5,8.5C 19.5,8.5 18.5,8.5 17.5,8.5C 17.5,6.5 17.5,4.5 17.5,2.5 Z"/></g>
<g><path style="opacity:1" fill="#000000" d="M -0.5,11.5 C 0.5,11.5 1.5,11.5 2.5,11.5C 2.5,12.5 2.5,13.5 2.5,14.5C 1.5,14.5 0.5,14.5 -0.5,14.5C -0.5,13.5 -0.5,12.5 -0.5,11.5 Z"/></g>
<g><path style="opacity:1" fill="#000000" d="M 41.5,11.5 C 41.5,12.5 41.5,13.5 41.5,14.5C 40.5,14.5 39.5,14.5 38.5,14.5C 38.5,13.5 38.5,12.5 38.5,11.5C 39.5,11.5 40.5,11.5 41.5,11.5 Z"/></g>
<g><path style="opacity:1" fill="#000000" d="M 2.5,14.5 C 4.5,14.5 6.5,14.5 8.5,14.5C 8.5,15.5 8.5,16.5 8.5,17.5C 7.5,17.5 6.5,17.5 5.5,17.5C 5.5,19.5 5.5,21.5 5.5,23.5C 4.5,23.5 3.5,23.5 2.5,23.5C 2.5,20.5 2.5,17.5 2.5,14.5 Z"/></g>
<g><path style="opacity:1" fill="#000000" d="M 23.5,17.5 C 21.5,17.5 19.5,17.5 17.5,17.5C 17.5,16.5 17.5,15.5 17.5,14.5C 19.5,14.5 21.5,14.5 23.5,14.5C 23.5,15.5 23.5,16.5 23.5,17.5 Z"/></g>
<g><path style="opacity:1" fill="#000000" d="M 8.5,17.5 C 9.5,17.5 10.5,17.5 11.5,17.5C 11.5,18.5 11.5,19.5 11.5,20.5C 11.5,19.5 11.5,18.5 11.5,17.5C 10.5,17.5 9.5,17.5 8.5,17.5 Z"/></g>
<g><path style="opacity:1" fill="#000000" d="M 17.5,17.5 C 17.5,18.5 17.5,19.5 17.5,20.5C 16.5,20.5 15.5,20.5 14.5,20.5C 14.5,19.5 14.5,18.5 14.5,17.5C 15.5,17.5 16.5,17.5 17.5,17.5 Z"/></g>
<g><path style="opacity:1" fill="#2e2e2e" d="M 17.5,17.5 C 19.5,17.5 21.5,17.5 23.5,17.5C 23.5,18.5 23.5,19.5 23.5,20.5C 24.5,20.5 25.5,20.5 26.5,20.5C 26.5,22.5 26.5,24.5 26.5,26.5C 25.5,26.5 24.5,26.5 23.5,26.5C 23.5,27.5 23.5,28.5 23.5,29.5C 22.5,29.5 21.5,29.5 20.5,29.5C 20.5,30.5 20.5,31.5 20.5,32.5C 17.5,32.5 14.5,32.5 11.5,32.5C 11.5,31.5 11.5,30.5 11.5,29.5C 11.5,27.5 11.5,25.5 11.5,23.5C 12.5,23.5 13.5,23.5 14.5,23.5C 14.5,22.5 14.5,21.5 14.5,20.5C 15.5,20.5 16.5,20.5 17.5,20.5C 17.5,19.5 17.5,18.5 17.5,17.5 Z"/></g>
<g><path style="opacity:1" fill="#000000" d="M 23.5,17.5 C 24.5,17.5 25.5,17.5 26.5,17.5C 26.5,18.5 26.5,19.5 26.5,20.5C 26.5,19.5 26.5,18.5 26.5,17.5C 25.5,17.5 24.5,17.5 23.5,17.5 Z"/></g>
<g><path style="opacity:1" fill="#111111" d="M 38.5,14.5 C 38.5,17.5 38.5,20.5 38.5,23.5C 37.5,23.5 36.5,23.5 35.5,23.5C 35.5,25.5 35.5,27.5 35.5,29.5C 34.5,29.5 33.5,29.5 32.5,29.5C 31.5,29.5 30.5,29.5 29.5,29.5C 29.5,30.5 29.5,31.5 29.5,32.5C 26.5,32.5 23.5,32.5 20.5,32.5C 20.5,31.5 20.5,30.5 20.5,29.5C 21.5,29.5 22.5,29.5 23.5,29.5C 23.5,28.5 23.5,27.5 23.5,26.5C 24.5,26.5 25.5,26.5 26.5,26.5C 26.5,24.5 26.5,22.5 26.5,20.5C 27.5,20.5 28.5,20.5 29.5,20.5C 29.5,19.5 29.5,18.5 29.5,17.5C 30.5,17.5 31.5,17.5 32.5,17.5C 32.5,16.5 32.5,15.5 32.5,14.5C 34.5,14.5 36.5,14.5 38.5,14.5 Z"/></g>
<g><path style="opacity:1" fill="#4d4d4d" d="M 8.5,17.5 C 8.5,18.5 8.5,19.5 8.5,20.5C 9.5,20.5 10.5,20.5 11.5,20.5C 11.5,21.5 11.5,22.5 11.5,23.5C 11.5,25.5 11.5,27.5 11.5,29.5C 10.5,29.5 9.5,29.5 8.5,29.5C 8.5,27.5 8.5,25.5 8.5,23.5C 7.5,23.5 6.5,23.5 5.5,23.5C 5.5,21.5 5.5,19.5 5.5,17.5C 6.5,17.5 7.5,17.5 8.5,17.5 Z"/></g>
<g><path style="opacity:1" fill="#000000" d="M 11.5,20.5 C 12.5,20.5 13.5,20.5 14.5,20.5C 14.5,21.5 14.5,22.5 14.5,23.5C 13.5,23.5 12.5,23.5 11.5,23.5C 11.5,22.5 11.5,21.5 11.5,20.5 Z"/></g>
<g><path style="opacity:1" fill="#000000" d="M 5.5,23.5 C 6.5,23.5 7.5,23.5 8.5,23.5C 8.5,25.5 8.5,27.5 8.5,29.5C 7.5,29.5 6.5,29.5 5.5,29.5C 5.5,27.5 5.5,25.5 5.5,23.5 Z"/></g>
<g><path style="opacity:1" fill="#050505" d="M 8.5,29.5 C 9.5,29.5 10.5,29.5 11.5,29.5C 11.5,30.5 11.5,31.5 11.5,32.5C 14.5,32.5 17.5,32.5 20.5,32.5C 23.5,32.5 26.5,32.5 29.5,32.5C 29.5,31.5 29.5,30.5 29.5,29.5C 30.5,29.5 31.5,29.5 32.5,29.5C 32.5,31.5 32.5,33.5 32.5,35.5C 32.5,36.5 32.5,37.5 32.5,38.5C 29.5,38.5 26.5,38.5 23.5,38.5C 23.5,37.5 23.5,36.5 23.5,35.5C 19.5,35.5 15.5,35.5 11.5,35.5C 10.5,35.5 9.5,35.5 8.5,35.5C 8.5,33.5 8.5,31.5 8.5,29.5 Z"/></g>
<g><path style="opacity:1" fill="#000000" d="M 8.5,35.5 C 8.5,36.5 8.5,37.5 8.5,38.5C 9.5,38.5 10.5,38.5 11.5,38.5C 15.5,38.5 19.5,38.5 23.5,38.5C 26.5,38.5 29.5,38.5 32.5,38.5C 32.5,37.5 32.5,36.5 32.5,35.5C 33.5,35.5 34.5,35.5 35.5,35.5C 35.5,37.5 35.5,39.5 35.5,41.5C 25.5,41.5 15.5,41.5 5.5,41.5C 5.5,39.5 5.5,37.5 5.5,35.5C 6.5,35.5 7.5,35.5 8.5,35.5 Z"/></g>
<g><path style="opacity:1" fill="#595a59" d="M 8.5,35.5 C 9.5,35.5 10.5,35.5 11.5,35.5C 11.5,36.5 11.5,37.5 11.5,38.5C 10.5,38.5 9.5,38.5 8.5,38.5C 8.5,37.5 8.5,36.5 8.5,35.5 Z"/></g>
<g><path style="opacity:1" fill="#2d2d2d" d="M 11.5,35.5 C 15.5,35.5 19.5,35.5 23.5,35.5C 23.5,36.5 23.5,37.5 23.5,38.5C 19.5,38.5 15.5,38.5 11.5,38.5C 11.5,37.5 11.5,36.5 11.5,35.5 Z"/></g>
</svg>
