<?xml version="1.0" encoding="UTF-8"?>
<!DOCTYPE svg PUBLIC "-//W3C//DTD SVG 1.1//EN" "http://www.w3.org/Graphics/SVG/1.1/DTD/svg11.dtd">
<svg xmlns="http://www.w3.org/2000/svg" version="1.1" width="42px" height="42px" style="shape-rendering:geometricPrecision; text-rendering:geometricPrecision; image-rendering:optimizeQuality; fill-rule:evenodd; clip-rule:evenodd" xmlns:xlink="http://www.w3.org/1999/xlink">
<g><path style="opacity:1" fill="#000000" d="M 5.5,-0.5 C 8.5,-0.5 11.5,-0.5 14.5,-0.5C 14.5,1.5 14.5,3.5 14.5,5.5C 15.5,5.5 16.5,5.5 17.5,5.5C 17.5,3.5 17.5,1.5 17.5,-0.5C 23.5,-0.5 29.5,-0.5 35.5,-0.5C 35.5,4.5 35.5,9.5 35.5,14.5C 34.5,14.5 33.5,14.5 32.5,14.5C 32.5,15.5 32.5,16.5 32.5,17.5C 31.5,17.5 30.5,17.5 29.5,17.5C 29.5,16.5 29.5,15.5 29.5,14.5C 23.5,14.5 17.5,14.5 11.5,14.5C 11.5,15.5 11.5,16.5 11.5,17.5C 10.5,17.5 9.5,17.5 8.5,17.5C 8.5,16.5 8.5,15.5 8.5,14.5C 7.5,14.5 6.5,14.5 5.5,14.5C 5.5,9.5 5.5,4.5 5.5,-0.5 Z"/></g>
<g><path style="opacity:1" fill="#d0d0d0" d="M 17.5,8.5 C 17.5,9.5 17.5,10.5 17.5,11.5C 14.5,11.5 11.5,11.5 8.5,11.5C 8.5,8.5 8.5,5.5 8.5,2.5C 9.5,2.5 10.5,2.5 11.5,2.5C 11.5,4.5 11.5,6.5 11.5,8.5C 13.5,8.5 15.5,8.5 17.5,8.5 Z"/></g>
<g><path style="opacity:1" fill="#a5a5a5" d="M 17.5,11.5 C 17.5,10.5 17.5,9.5 17.5,8.5C 18.5,8.5 19.5,8.5 20.5,8.5C 20.5,6.5 20.5,4.5 20.5,2.5C 24.5,2.5 28.5,2.5 32.5,2.5C 32.5,5.5 32.5,8.5 32.5,11.5C 27.5,11.5 22.5,11.5 17.5,11.5 Z"/></g>
<g><path style="opacity:1" fill="#aeaeae" d="M 29.5,17.5 C 23.5,17.5 17.5,17.5 11.5,17.5C 11.5,16.5 11.5,15.5 11.5,14.5C 17.5,14.5 23.5,14.5 29.5,14.5C 29.5,15.5 29.5,16.5 29.5,17.5 Z"/></g>
<g><path style="opacity:1" fill="#000000" d="M 11.5,17.5 C 17.5,17.5 23.5,17.5 29.5,17.5C 29.5,21.5 29.5,25.5 29.5,29.5C 28.5,29.5 27.5,29.5 26.5,29.5C 26.5,26.5 26.5,23.5 26.5,20.5C 23.5,20.5 20.5,20.5 17.5,20.5C 16.5,20.5 15.5,20.5 14.5,20.5C 14.5,23.5 14.5,26.5 14.5,29.5C 13.5,29.5 12.5,29.5 11.5,29.5C 11.5,25.5 11.5,21.5 11.5,17.5 Z"/></g>
<g><path style="opacity:1" fill="#9e9e9e" d="M 17.5,20.5 C 20.5,20.5 23.5,20.5 26.5,20.5C 26.5,23.5 26.5,26.5 26.5,29.5C 27.5,29.5 28.5,29.5 29.5,29.5C 29.5,30.5 29.5,31.5 29.5,32.5C 30.5,32.5 31.5,32.5 32.5,32.5C 32.5,33.5 32.5,34.5 32.5,35.5C 33.5,35.5 34.5,35.5 35.5,35.5C 35.5,36.5 35.5,37.5 35.5,38.5C 31.5,38.5 27.5,38.5 23.5,38.5C 23.5,36.5 23.5,34.5 23.5,32.5C 22.5,32.5 21.5,32.5 20.5,32.5C 20.5,31.5 20.5,30.5 20.5,29.5C 19.5,29.5 18.5,29.5 17.5,29.5C 17.5,26.5 17.5,23.5 17.5,20.5 Z"/></g>
<g><path style="opacity:1" fill="#000000" d="M 11.5,29.5 C 11.5,30.5 11.5,31.5 11.5,32.5C 10.5,32.5 9.5,32.5 8.5,32.5C 8.5,31.5 8.5,30.5 8.5,29.5C 9.5,29.5 10.5,29.5 11.5,29.5 Z"/></g>
<g><path style="opacity:1" fill="#b9b9b9" d="M 17.5,20.5 C 17.5,23.5 17.5,26.5 17.5,29.5C 18.5,29.5 19.5,29.5 20.5,29.5C 20.5,30.5 20.5,31.5 20.5,32.5C 21.5,32.5 22.5,32.5 23.5,32.5C 23.5,34.5 23.5,36.5 23.5,38.5C 17.5,38.5 11.5,38.5 5.5,38.5C 5.5,37.5 5.5,36.5 5.5,35.5C 6.5,35.5 7.5,35.5 8.5,35.5C 8.5,34.5 8.5,33.5 8.5,32.5C 9.5,32.5 10.5,32.5 11.5,32.5C 11.5,31.5 11.5,30.5 11.5,29.5C 12.5,29.5 13.5,29.5 14.5,29.5C 14.5,26.5 14.5,23.5 14.5,20.5C 15.5,20.5 16.5,20.5 17.5,20.5 Z"/></g>
<g><path style="opacity:1" fill="#000000" d="M 29.5,29.5 C 30.5,29.5 31.5,29.5 32.5,29.5C 32.5,30.5 32.5,31.5 32.5,32.5C 32.5,31.5 32.5,30.5 32.5,29.5C 31.5,29.5 30.5,29.5 29.5,29.5 Z"/></g>
<g><path style="opacity:1" fill="#000000" d="M 8.5,32.5 C 8.5,33.5 8.5,34.5 8.5,35.5C 7.5,35.5 6.5,35.5 5.5,35.5C 5.5,34.5 5.5,33.5 5.5,32.5C 6.5,32.5 7.5,32.5 8.5,32.5 Z"/></g>
<g><path style="opacity:1" fill="#000000" d="M 32.5,32.5 C 33.5,32.5 34.5,32.5 35.5,32.5C 35.5,33.5 35.5,34.5 35.5,35.5C 35.5,34.5 35.5,33.5 35.5,32.5C 34.5,32.5 33.5,32.5 32.5,32.5 Z"/></g>
<g><path style="opacity:1" fill="#000000" d="M 5.5,35.5 C 5.5,36.5 5.5,37.5 5.5,38.5C 11.5,38.5 17.5,38.5 23.5,38.5C 27.5,38.5 31.5,38.5 35.5,38.5C 35.5,37.5 35.5,36.5 35.5,35.5C 36.5,35.5 37.5,35.5 38.5,35.5C 38.5,37.5 38.5,39.5 38.5,41.5C 26.5,41.5 14.5,41.5 2.5,41.5C 2.5,39.5 2.5,37.5 2.5,35.5C 3.5,35.5 4.5,35.5 5.5,35.5 Z"/></g>
</svg>
